<?xml version="1.0" encoding="UTF-8" standalone="no"?>
<svg
   height="2179.1533"
   id="svg8"
   version="1.1"
   viewBox="0 0 116.2362 217.91533"
   width="1162.3621"
   inkscape:version="1.2.1 (9c6d41e410, 2022-07-14, custom)"
   sodipodi:docname="mockup1.svg"
   xmlns:inkscape="http://www.inkscape.org/namespaces/inkscape"
   xmlns:sodipodi="http://sodipodi.sourceforge.net/DTD/sodipodi-0.dtd"
   xmlns="http://www.w3.org/2000/svg"
   xmlns:svg="http://www.w3.org/2000/svg">
  <style
     id="style"><!-- needed for Inkscape only, must be removed by build process -->







     @import url(mockstyle_inkscape.css);
  </style>
  <defs
     id="defs2" />
  <sodipodi:namedview
     bordercolor="#666666"
     borderopacity="1.0"
     id="base"
     pagecolor="#ffffff"
     showgrid="false"
     inkscape:bbox-nodes="true"
     inkscape:bbox-paths="true"
     inkscape:current-layer="layer1"
     inkscape:cx="581.38639"
     inkscape:cy="1089.5767"
     inkscape:document-rotation="0"
     inkscape:document-units="px"
     inkscape:pageopacity="0.0"
     inkscape:pageshadow="2"
     inkscape:snap-bbox="true"
     inkscape:snap-bbox-edge-midpoints="true"
     inkscape:snap-bbox-midpoints="true"
     inkscape:snap-global="false"
     inkscape:window-height="708"
     inkscape:window-maximized="1"
     inkscape:window-width="1366"
     inkscape:window-x="0"
     inkscape:window-y="0"
     inkscape:zoom="0.23908368"
     inkscape:showpageshadow="2"
     inkscape:pagecheckerboard="0"
     inkscape:deskcolor="#d1d1d1" />
  <g
     id="layer1"
     inkscape:groupmode="layer"
     inkscape:label="Ebene 1">
    <rect
       id="deviceBackground-0-0-1-4-9-9"
       class="device-background"
       width="107.99519"
       height="181.54979"
       x="4.2243176"
       y="4.0217366"
       ry="2.5731127"
       style="stroke-width:1" />
    <text
       xml:space="preserve"
       style="font-style:normal;font-weight:normal;font-size:5.291px;line-height:125%;font-family:Roboto;letter-spacing:0px;word-spacing:0px;stroke-width:1"
       x="9.0287924"
       y="120.24686"
       id="textOnBackgroundTitle2"
       class="label-secondary"><tspan
         sodipodi:role="line"
         id="tspan9212-1-9-1-56-0-75"
         style="font-style:normal;font-variant:normal;font-weight:bold;font-stretch:normal;font-size:5.291px;font-family:Roboto;-inkscape-font-specification:'Roboto Bold';stroke-width:1"
         x="9.0287924"
         y="120.24686">Apply Coupon</tspan></text>
    <text
       xml:space="preserve"
       style="font-style:normal;font-weight:normal;font-size:8.68123px;line-height:125%;font-family:Roboto;letter-spacing:0px;word-spacing:0px;fill:#000000;stroke-width:1"
       x="39.198605"
       y="216.11929"
       id="text9214-7-0-6-9-4"
       class="mock-description"><tspan
         sodipodi:role="line"
         x="39.198605"
         y="216.11929"
         id="tspan170011"
         style="stroke-width:1">Shopping</tspan></text>
    <rect
       id="rect3608"
       class="card-outlined-container-unchecked"
       width="99.960739"
       height="36.306973"
       x="8.2845831"
       y="33.793655"
       ry="2.9337597"
       style="stroke-width:1" />
    <text
       xml:space="preserve"
       style="font-style:normal;font-weight:normal;font-size:7.0546px;line-height:125%;font-family:Roboto;letter-spacing:0px;word-spacing:0px;fill:#201a1a;stroke-width:1"
       x="12.6318"
       y="42.085663"
       id="text3614"
       class="card-labeltext"><tspan
         sodipodi:role="line"
         style="font-style:normal;font-variant:normal;font-weight:normal;font-stretch:normal;font-size:7.0546px;font-family:Roboto;-inkscape-font-specification:Roboto;stroke-width:1"
         x="12.6318"
         y="42.085663"
         id="tspan3612">Paneer Butter Masala</tspan></text>
    <text
       xml:space="preserve"
       style="font-style:normal;font-variant:normal;font-weight:500;font-stretch:normal;font-size:5.291px;line-height:125%;font-family:Roboto;-inkscape-font-specification:'Roboto Medium';letter-spacing:0px;word-spacing:0px;fill:#201a1a;stroke-width:1"
       x="24.954245"
       y="66.32119"
       id="text3620"
       class="card-labeltext"><tspan
         sodipodi:role="line"
         id="tspan3618"
         style="font-style:normal;font-variant:normal;font-weight:500;font-stretch:normal;font-size:5.291px;font-family:Roboto;-inkscape-font-specification:'Roboto Medium';stroke-width:1"
         x="24.954245"
         y="66.32119">2</tspan></text>
    <text
       xml:space="preserve"
       style="font-style:normal;font-weight:normal;font-size:6.1729px;line-height:125%;font-family:Roboto;letter-spacing:0px;word-spacing:0px;fill:#201a1a;stroke-width:1"
       x="83.379944"
       y="66.070786"
       id="text5434"
       class="card-labeltext"><tspan
         sodipodi:role="line"
         id="tspan5432"
         style="font-style:normal;font-variant:normal;font-weight:500;font-stretch:normal;font-size:6.1729px;font-family:Roboto;-inkscape-font-specification:'Roboto Medium';stroke-width:1"
         x="83.379944"
         y="66.070786">18,50 €</tspan></text>
    <rect
       id="rect7134"
       class="card-outlined-container-unchecked"
       width="99.960739"
       height="36.245705"
       x="8.2845831"
       y="73.71566"
       ry="2.9288085"
       style="stroke-width:1" />
    <text
       xml:space="preserve"
       style="font-style:normal;font-weight:normal;font-size:7.0546px;line-height:125%;font-family:Roboto;letter-spacing:0px;word-spacing:0px;fill:#201a1a;stroke-width:1"
       x="12.6318"
       y="82.007668"
       id="text7138"
       class="card-labeltext"><tspan
         sodipodi:role="line"
         style="font-style:normal;font-variant:normal;font-weight:normal;font-stretch:normal;font-size:7.0546px;font-family:Roboto;-inkscape-font-specification:Roboto;stroke-width:1"
         x="12.6318"
         y="82.007668"
         id="tspan7136">Murgh Makhani</tspan></text>
    <text
       xml:space="preserve"
       style="font-style:normal;font-weight:normal;font-size:6.1729px;line-height:125%;font-family:Roboto;letter-spacing:0px;word-spacing:0px;fill:#201a1a;stroke-width:1"
       x="84.041313"
       y="105.99284"
       id="text7164"
       class="card-labeltext"><tspan
         sodipodi:role="line"
         id="tspan7162"
         style="font-style:normal;font-variant:normal;font-weight:500;font-stretch:normal;font-size:6.1729px;font-family:Roboto;-inkscape-font-specification:'Roboto Medium';stroke-width:1"
         x="84.041313"
         y="105.99284">12,00 €</tspan></text>
    <text
       xml:space="preserve"
       style="font-style:normal;font-variant:normal;font-weight:normal;font-stretch:normal;font-size:7.0546px;line-height:125%;font-family:Roboto;-inkscape-font-specification:'Roboto, Normal';font-variant-ligatures:normal;font-variant-caps:normal;font-variant-numeric:normal;font-variant-east-asian:normal;letter-spacing:0px;word-spacing:0px;stroke-width:1"
       x="9.5562763"
       y="27.683802"
       id="textOnBackgroundTitle1"
       class="label-onbackground"><tspan
         sodipodi:role="line"
         id="tspan9764"
         style="font-style:normal;font-variant:normal;font-weight:500;font-stretch:normal;font-size:7.0546px;font-family:Roboto;-inkscape-font-specification:'Roboto Medium';font-variant-ligatures:normal;font-variant-caps:normal;font-variant-numeric:normal;font-variant-east-asian:normal;stroke-width:1"
         x="9.5562763"
         y="27.683802">Shopping Cart</tspan></text>
    <rect
       id="rect1166"
       class="chip-container"
       width="20.588099"
       height="6.4602771"
       x="44.437061"
       y="86.642982"
       ry="1.8747776" />
    <text
       xml:space="preserve"
       style="font-style:normal;font-weight:normal;font-size:4.40919px;line-height:125%;font-family:Roboto;letter-spacing:0px;word-spacing:0px;stroke-width:1"
       x="51.830887"
       y="90.991547"
       id="text1170"
       class="chip-text"><tspan
         sodipodi:role="line"
         id="tspan1168"
         style="font-style:normal;font-variant:normal;font-weight:normal;font-stretch:normal;font-size:4.40919px;font-family:Roboto;-inkscape-font-specification:Roboto;stroke-width:1"
         x="51.830887"
         y="90.991547">Spicy</tspan></text>
    <rect
       id="rect1174"
       class="chip-container"
       width="26.111729"
       height="6.5364308"
       x="13.118631"
       y="86.504616"
       ry="1.8747776" />
    <text
       xml:space="preserve"
       style="font-style:normal;font-weight:normal;font-size:4.40919px;line-height:125%;font-family:Roboto;letter-spacing:0px;word-spacing:0px;stroke-width:1"
       x="21.063913"
       y="91.120697"
       id="text1180"
       class="chip-text"><tspan
         sodipodi:role="line"
         id="tspan1178"
         style="font-style:normal;font-variant:normal;font-weight:normal;font-stretch:normal;font-size:4.40919px;font-family:Roboto;-inkscape-font-specification:Roboto;stroke-width:1"
         x="21.063913"
         y="91.120697">Chicken</tspan></text>
    <rect
       id="textFieldContainerStroke2-9"
       class="textfield-container"
       width="66.02832"
       height="12.498518"
       x="8.2845831"
       y="125.1469"
       ry="1.0652263"
       style="stroke-width:1" />
    <rect
       id="buttonFilled-6"
       class="button-tonal-container"
       width="27.347502"
       height="12.498989"
       x="80.300346"
       y="124.75423"
       ry="6.2494946"
       style="stroke-width:1" />
    <text
       xml:space="preserve"
       style="font-style:normal;font-weight:normal;font-size:7.0546px;line-height:125%;font-family:Roboto;letter-spacing:0px;word-spacing:0px;stroke-width:1"
       x="85.18499"
       y="132.89658"
       id="buttonFilledText-75"
       class="button-tonal-labeltext"><tspan
         sodipodi:role="line"
         id="tspan5081-5-3"
         style="font-style:normal;font-variant:normal;font-weight:500;font-stretch:normal;font-size:7.0546px;font-family:Roboto;-inkscape-font-specification:'Roboto Medium';stroke-width:1"
         x="85.18499"
         y="132.89658">Apply</tspan></text>
    <text
       xml:space="preserve"
       style="font-style:normal;font-weight:normal;font-size:6.1729px;line-height:125%;font-family:Roboto;letter-spacing:0px;word-spacing:0px;stroke-width:1"
       x="12.598743"
       y="133.58922"
       id="textFieldLabelText"
       class="textfield-label"><tspan
         sodipodi:role="line"
         id="tspan7592-6"
         style="font-size:6.1729px;stroke-width:1"
         x="12.598743"
         y="133.58922">Enter Code</tspan></text>
    <path
       d="m 100.19687,43.173301 q -0.308867,0 -0.530677,-0.217815 -0.22177,-0.21781 -0.22177,-0.526712 v -4.380023 h -0.0873 q -0.15841,0 -0.26534,-0.106937 -0.10687,-0.106931 -0.10687,-0.265333 0,-0.158414 0.10687,-0.265342 0.10689,-0.106929 0.26534,-0.106929 h 1.465307 q 0,-0.158414 0.10695,-0.269297 0.10685,-0.110888 0.26534,-0.110888 h 1.59994 q 0.1584,0 0.26929,0.110888 0.11086,0.110887 0.11086,0.269297 h 1.45736 q 0.15842,0 0.26532,0.106929 0.10698,0.106935 0.10698,0.265342 0,0.158408 -0.10698,0.265333 -0.1068,0.106937 -0.26532,0.106937 h -0.0873 v 4.380023 q 0,0.308902 -0.22175,0.526712 -0.2218,0.217815 -0.53069,0.217815 z m 0,-5.12455 v 4.380023 h 3.59589 v -4.380023 z m 0.79999,3.461246 q 0,0.11881 0.0913,0.209894 0.0914,0.09102 0.20987,0.09102 0.12673,0 0.21784,-0.09102 0.0913,-0.09102 0.0913,-0.209894 V 38.9596 q 0,-0.118803 -0.0951,-0.213847 -0.0951,-0.09498 -0.21385,-0.09498 -0.1267,0 -0.21384,0.09498 -0.0873,0.09498 -0.0873,0.213847 z m 1.38606,0 q 0,0.11881 0.0953,0.209894 0.0952,0.09102 0.21385,0.09102 0.12672,0 0.21783,-0.09102 0.0913,-0.09102 0.0913,-0.209894 V 38.9596 q 0,-0.118803 -0.0913,-0.213847 -0.0913,-0.09498 -0.21783,-0.09498 -0.12672,0 -0.21782,0.09498 -0.0913,0.09498 -0.0913,0.213847 z m -2.18605,-3.461246 v 4.380023 z"
       id="iconButton3"
       class="iconbutton-text-icon"
       style="stroke-width:1" />
    <path
       d="m 99.96781,83.071536 q -0.308897,0 -0.530697,-0.217812 -0.22176,-0.217805 -0.22176,-0.526698 v -4.379975 h -0.0873 q -0.15842,0 -0.26533,-0.106866 -0.10687,-0.106865 -0.10687,-0.265345 0,-0.158401 0.10687,-0.265329 0.10686,-0.106978 0.26533,-0.106978 h 1.465287 q 0,-0.158405 0.10699,-0.269291 0.10683,-0.110868 0.26531,-0.110868 h 1.59995 q 0.15841,0 0.26928,0.110868 0.11086,0.110863 0.11086,0.269291 h 1.45736 q 0.15841,0 0.26533,0.106978 0.10698,0.106868 0.10698,0.265329 0,0.15842 -0.10698,0.265345 -0.10682,0.106866 -0.26533,0.106866 h -0.0873 v 4.379975 q 0,0.308893 -0.22177,0.526698 -0.22177,0.217812 -0.53069,0.217812 z m 0,-5.124485 v 4.379975 h 3.59588 v -4.379975 z m 0.79994,3.461208 q 0,0.118859 0.0914,0.209881 0.0913,0.09104 0.20987,0.09104 0.12675,0 0.21785,-0.09104 0.0913,-0.09104 0.0913,-0.209881 v -2.550375 q 0,-0.118859 -0.0952,-0.213845 -0.0952,-0.09506 -0.21386,-0.09506 -0.12671,0 -0.21386,0.09506 -0.0873,0.09493 -0.0873,0.213845 z m 1.38611,0 q 0,0.118859 0.0954,0.209881 0.0951,0.09104 0.21385,0.09104 0.12672,0 0.21783,-0.09104 0.0913,-0.09104 0.0913,-0.209881 v -2.550375 q 0,-0.118859 -0.0913,-0.213845 -0.0913,-0.09506 -0.21783,-0.09506 -0.12672,0 -0.21782,0.09506 -0.0913,0.09493 -0.0913,0.213845 z m -2.18605,-3.461208 v 4.379975 z"
       id="iconButton4"
       class="iconbutton-text-icon"
       style="stroke-width:1" />
    <text
       xml:space="preserve"
       style="font-style:normal;font-variant:normal;font-weight:500;font-stretch:normal;font-size:5.291px;line-height:125%;font-family:Roboto;-inkscape-font-specification:'Roboto Medium';letter-spacing:0px;word-spacing:0px;fill:#201a1a;stroke-width:1"
       x="24.840845"
       y="105.49416"
       id="text1206"
       class="card-labeltext"><tspan
         sodipodi:role="line"
         id="tspan1204"
         style="font-style:normal;font-variant:normal;font-weight:500;font-stretch:normal;font-size:5.291px;font-family:Roboto;-inkscape-font-specification:'Roboto Medium';stroke-width:1"
         x="24.840845"
         y="105.49416">1</tspan></text>
    <path
       d="m 34.168935,67.060099 c -1.458342,0 -2.645518,-1.18718 -2.645518,-2.645519 0,-1.458345 1.187176,-2.645519 2.645518,-2.645519 1.458343,0 2.645521,1.187174 2.645521,2.645519 0,1.458339 -1.187178,2.645519 -2.645521,2.645519 m 0,-5.95242 a 3.3068994,3.3068994 0 0 0 -3.306894,3.306901 3.3068994,3.3068994 0 0 0 3.306894,3.306895 3.3068994,3.3068994 0 0 0 3.3069,-3.306895 3.3068994,3.3068994 0 0 0 -3.3069,-3.306901 m 0.330688,1.65345 h -0.661378 v 1.322758 h -1.322757 v 0.66138 h 1.322757 v 1.322768 h 0.661378 v -1.322768 h 1.322764 v -0.66138 h -1.322764 z"
       id="iconButton6"
       class="iconbutton-text-icon"
       style="stroke-width:1" />
    <path
       d="m 18.096554,67.060099 c -1.458341,0 -2.64552,-1.18718 -2.64552,-2.645519 0,-1.458345 1.187179,-2.645519 2.64552,-2.645519 1.458343,0 2.645523,1.187174 2.645523,2.645519 0,1.458339 -1.18718,2.645519 -2.645523,2.645519 m 0,-5.95242 a 3.3068994,3.3068994 0 0 0 -3.306899,3.306901 3.3068994,3.3068994 0 0 0 3.306899,3.306895 3.3068994,3.3068994 0 0 0 3.306899,-3.306895 3.3068994,3.3068994 0 0 0 -3.306899,-3.306901 m -1.653446,3.637587 h 3.306896 v -0.661379 h -3.306896"
       id="iconButton5"
       class="iconbutton-text-icon"
       style="stroke-width:1" />
    <path
       d="m 34.168935,106.2523 c -1.458342,0 -2.645518,-1.18715 -2.645518,-2.64549 0,-1.45836 1.187176,-2.64555 2.645518,-2.64555 1.458343,0 2.645521,1.18719 2.645521,2.64555 0,1.45834 -1.187178,2.64549 -2.645521,2.64549 m 0,-5.9524 a 3.3068994,3.3068994 0 0 0 -3.306894,3.30691 3.3068994,3.3068994 0 0 0 3.306894,3.3069 3.3068994,3.3068994 0 0 0 3.3069,-3.3069 3.3068994,3.3068994 0 0 0 -3.3069,-3.30691 m 0.330688,1.65347 h -0.661378 v 1.32271 h -1.322757 v 0.66141 h 1.322757 v 1.32276 h 0.661378 v -1.32276 h 1.322764 v -0.66141 h -1.322764 z"
       id="label-onsurface"
       class="iconbutton-text-icon"
       style="stroke-width:1" />
    <path
       d="m 18.096554,106.25232 c -1.458341,0 -2.64552,-1.18716 -2.64552,-2.64551 0,-1.45835 1.187179,-2.64553 2.64552,-2.64553 1.458343,0 2.645523,1.18718 2.645523,2.64553 0,1.45835 -1.18718,2.64551 -2.645523,2.64551 m 0,-5.95241 a 3.3068994,3.3068994 0 0 0 -3.306899,3.3069 3.3068994,3.3068994 0 0 0 3.306899,3.3069 3.3068994,3.3068994 0 0 0 3.306899,-3.3069 3.3068994,3.3068994 0 0 0 -3.306899,-3.3069 m -1.653446,3.6376 h 3.306896 v -0.66141 h -3.306896"
       id="iconButtonDisabled-1"
       class="iconbutton-text-icon-disabled"
       style="stroke-width:1" />
    <rect
       id="bottomappbarContainer-7"
       class="bottomappbar-container"
       width="107.99523"
       height="15.091432"
       x="4.2242765"
       y="169.81091"
       style="stroke-width:1" />
    <path
       d="m 8.4056887,180.31035 q -0.239918,0 -0.411267,-0.17131 -0.171365,-0.17141 -0.171365,-0.41131 0,-0.22839 0.171365,-0.3997 0.171349,-0.1714 0.411267,-0.1714 H 15.79692 q 0.239912,0 0.405514,0.1714 0.165606,0.17131 0.165606,0.41119 0,0.23991 -0.165606,0.40558 -0.165602,0.16555 -0.405514,0.16555 z m 0,-2.47907 q -0.239918,0 -0.411267,-0.1714 -0.171365,-0.17131 -0.171365,-0.41122 0,-0.22838 0.171365,-0.3998 0.171349,-0.17132 0.411267,-0.17132 H 15.79692 q 0.239912,0 0.405514,0.17132 0.165606,0.17142 0.165606,0.41129 0,0.23991 -0.165606,0.40551 -0.165602,0.16562 -0.405514,0.16562 z m 0,-2.46759 q -0.239918,0 -0.411267,-0.17139 -0.171365,-0.17131 -0.171365,-0.41124 0,-0.23991 0.171365,-0.41125 0.171349,-0.17138 0.411267,-0.17138 H 15.79692 q 0.239912,0 0.405514,0.17712 0.165606,0.17714 0.165606,0.40551 0,0.23993 -0.165606,0.41124 -0.165602,0.17139 -0.405514,0.17139 z"
       id="topappbarNavigationIcon-9"
       class="bottomappbar-navigationicon"
       style="stroke-width:1" />
    <circle
       style="font-variation-settings:normal;stroke-width:1"
       cx="58.592888"
       cy="170.40564"
       id="fabCutout"
       class="fab-cutout-background"
       r="8.6514254" />
    <circle
       style="font-variation-settings:normal;stroke-width:1"
       cx="58.592888"
       cy="170.40562"
       id="fabContainer-4"
       class="fab-container"
       r="7.3733964" />
    <text
       style="font-style:normal;font-weight:normal;font-size:13.2287px;line-height:125%;font-family:Roboto;letter-spacing:0px;word-spacing:0px;stroke-width:1"
       id="fabIcon-9"
       class="fab-icon"
       x="54.823025"
       y="175.07497"
       xml:space="preserve"><tspan
         id="tspan8033-4-0"
         x="54.823025"
         y="175.07497"
         sodipodi:role="line"
         style="stroke-width:1">+</tspan></text>
    <rect
       id="textFieldActivationIndicator2-0"
       class="textfield-activationindicator-unfocused"
       width="66.02832"
       height="0.99988121"
       x="8.2845831"
       y="136.64551"
       ry="0"
       style="stroke-width:1" />
    <rect
       id="snackbarContainer-3"
       class="snackbar-container"
       width="103.46947"
       height="14.816748"
       x="6.9346013"
       y="142.79178"
       ry="2.5"
       style="stroke-width:1" />
    <text
       xml:space="preserve"
       style="font-style:normal;font-weight:normal;font-size:5.11763px;line-height:125%;font-family:Roboto;letter-spacing:0px;word-spacing:0px;stroke-width:1"
       x="10.802853"
       y="153.46402"
       id="snackbarLabel-3"
       class="snackbar-textlabel"
       transform="scale(1.0338838,0.96722668)"><tspan
         sodipodi:role="line"
         style="font-size:5.11763px;stroke-width:1"
         x="10.802853"
         y="153.46402"
         id="tspan46517-3">Coupon code has been </tspan><tspan
         sodipodi:role="line"
         style="font-size:5.11763px;stroke-width:1"
         x="10.802853"
         y="159.86105"
         id="tspan9636">rejected</tspan></text>
    <text
       xml:space="preserve"
       style="font-style:normal;font-variant:normal;font-weight:bold;font-stretch:normal;font-size:7.0546px;line-height:125%;font-family:Roboto-serif;-inkscape-font-specification:'sans-serif, Bold';font-variant-ligatures:normal;font-variant-caps:normal;font-variant-numeric:normal;font-variant-east-asian:normal;letter-spacing:0px;word-spacing:0px;stroke-width:1"
       x="88.540085"
       y="152.73488"
       id="snackbarAction-7"
       class="snackbar-action"><tspan
         sodipodi:role="line"
         id="tspan5081-7-7-9"
         style="font-style:normal;font-variant:normal;font-weight:500;font-stretch:normal;font-size:7.0546px;font-family:Roboto;-inkscape-font-specification:'Roboto Medium';font-variant-ligatures:normal;font-variant-caps:normal;font-variant-numeric:normal;font-variant-east-asian:normal;stroke-width:1"
         x="88.540085"
         y="152.73488">Retry</tspan></text>
    <rect
       id="rect1162"
       class="chip-container"
       width="23.826212"
       height="6.5364308"
       x="13.078028"
       y="46.948284"
       ry="1.8747776" />
    <text
       xml:space="preserve"
       style="font-style:normal;font-weight:normal;font-size:4.40919px;line-height:125%;font-family:Roboto;letter-spacing:0px;word-spacing:0px;stroke-width:1"
       x="21.023312"
       y="51.325249"
       id="text3636"
       class="chip-text"><tspan
         sodipodi:role="line"
         id="tspan3634"
         style="font-style:normal;font-variant:normal;font-weight:normal;font-stretch:normal;font-size:4.40919px;font-family:Roboto;-inkscape-font-specification:Roboto;stroke-width:1"
         x="21.023312"
         y="51.325249">Vegan</tspan></text>
    <path
       d="m 15.580962,51.956366 q -0.283193,-0.289628 -0.440878,-0.669364 -0.15769,-0.379736 -0.15769,-0.778782 0,-0.469844 0.164125,-0.859233 0.164122,-0.389392 0.49237,-0.717636 0.225268,-0.225267 0.559951,-0.379741 0.334683,-0.154465 0.788436,-0.241353 0.453755,-0.08681 1.026574,-0.109412 0.572821,-0.02259 1.274372,0.02258 0.05157,0.695109 0.03549,1.271149 -0.01613,0.576044 -0.102982,1.033014 -0.08681,0.456976 -0.244572,0.801309 -0.157694,0.344334 -0.389398,0.576041 -0.328244,0.328248 -0.707983,0.495591 -0.379733,0.167335 -0.810958,0.167335 -0.444103,0 -0.814184,-0.151248 -0.370077,-0.151249 -0.672581,-0.46019 z m 0.662932,0 q 0.160903,0.109413 0.3733,0.167344 0.212394,0.05799 0.450535,0.05799 0.341115,0 0.662929,-0.141597 0.321808,-0.141597 0.585694,-0.411917 0.173776,-0.173778 0.296066,-0.453755 0.12229,-0.279975 0.199525,-0.662927 0.07712,-0.382957 0.102977,-0.865671 0.0258,-0.482717 0,-1.061972 -0.605003,-0.01291 -1.084501,0.01613 -0.479498,0.02905 -0.846363,0.106211 -0.36686,0.07712 -0.630749,0.196302 -0.263882,0.119067 -0.431226,0.292847 -0.270319,0.276758 -0.411915,0.585702 -0.141599,0.308934 -0.141599,0.630739 0,0.30894 0.131945,0.646839 0.131941,0.337909 0.325028,0.543867 0.341119,-0.630749 0.817397,-1.132773 0.476282,-0.502027 1.010487,-0.791659 -0.559948,0.482722 -0.907503,1.045887 -0.347558,0.563168 -0.502027,1.232533 z m 0,0 z m 0,0 z"
       id="chipIcon2"
       class="chip-thumbnail"
       style="stroke-width:1" />
    <path
       d="m 48.567008,92.106644 q -0.795762,0 -1.348043,-0.552283 -0.552284,-0.552283 -0.552284,-1.34805 0,-0.688851 0.424603,-1.336158 0.424606,-0.647294 1.166924,-1.104557 0.100944,-0.06528 0.204879,-0.0029 0.103922,0.06229 0.103922,0.187063 v 0.427572 q 0,0.201908 0.139558,0.338494 0.139554,0.136584 0.341466,0.136584 0.106888,0 0.19894,-0.04462 0.09198,-0.04461 0.163313,-0.133603 0.04762,-0.0536 0.106882,-0.07411 0.05944,-0.0208 0.112847,0.01491 0.391946,0.267225 0.614638,0.688862 0.222697,0.421626 0.222697,0.902647 0,0.795757 -0.552287,1.348038 -0.552281,0.552286 -1.348043,0.552286 z m -1.544015,-1.900333 q 0,0.374132 0.169242,0.703716 0.169257,0.329595 0.472122,0.549319 -0.02381,-0.07111 -0.03573,-0.145493 -0.01185,-0.07411 -0.01185,-0.145497 0,-0.190038 0.07116,-0.356307 0.07112,-0.166277 0.207847,-0.30286 l 0.671051,-0.65918 0.671046,0.65918 q 0.136595,0.136583 0.207853,0.30286 0.07116,0.166269 0.07116,0.356307 0,0.07111 -0.01185,0.145497 -0.01185,0.07411 -0.03573,0.145493 0.302861,-0.219724 0.472113,-0.549319 0.169247,-0.329584 0.169247,-0.703716 0,-0.320668 -0.136583,-0.626509 -0.136583,-0.305823 -0.391944,-0.561178 -0.124708,0.08905 -0.261297,0.139556 -0.136586,0.0506 -0.273169,0.0506 -0.362251,0 -0.599793,-0.246449 -0.237507,-0.246463 -0.237507,-0.620576 v -0.118759 q -0.546327,0.391941 -0.867013,0.929375 -0.320679,0.537434 -0.320679,1.05408 z m 1.544015,0.142535 -0.42164,0.415685 q -0.08304,0.08301 -0.12768,0.184101 -0.04466,0.100994 -0.04466,0.219724 0,0.24347 0.172214,0.412727 0.172222,0.169256 0.421639,0.169256 0.249419,0 0.421637,-0.169256 0.172217,-0.169257 0.172217,-0.412727 0,-0.11874 -0.04466,-0.219724 -0.04466,-0.10099 -0.127683,-0.184101 z"
       id="chipIcon3"
       class="chip-thumbnail"
       style="stroke-width:1" />
    <path
       d="m 18.608289,88.168056 c 0.181519,0 0.354288,0.04823 0.500813,0.14434 0.249316,0.161831 0.402401,0.408954 0.437395,0.695452 0.02412,0.282131 -0.07424,0.55987 -0.273374,0.758885 -0.153084,0.150907 -0.347729,0.247132 -0.562048,0.268992 -0.417712,0.04385 -0.785123,0.209932 -1.058496,0.487686 -0.04603,0.04385 -0.09617,0.05048 -0.124653,0.05048 -0.02632,0 -0.07642,-0.0062 -0.122468,-0.05048 l -0.216514,-0.216495 c -0.03947,-0.03948 -0.04823,-0.08527 -0.04823,-0.11599 0,-0.05472 0.02413,-0.102867 0.06985,-0.148706 0.264625,-0.266817 0.42646,-0.621092 0.465823,-1.02787 0.0285,-0.290876 0.183711,-0.540184 0.437399,-0.704206 0.144337,-0.09392 0.314923,-0.14215 0.494254,-0.14215 m 0,-0.437389 c -0.255877,0 -0.511752,0.06986 -0.732638,0.212132 -0.384907,0.247128 -0.597041,0.632033 -0.63422,1.030052 -0.0285,0.288692 -0.137778,0.557693 -0.338982,0.758884 l -0.0064,0.0062 c -0.253693,0.253698 -0.253693,0.640779 -0.01534,0.876968 l 0.216508,0.216517 c 0.120291,0.120238 0.275565,0.179331 0.430834,0.179331 0.155277,0 0.312742,-0.05914 0.433023,-0.179331 0.212137,-0.212143 0.492069,-0.328041 0.796057,-0.36084 0.299615,-0.03284 0.592669,-0.164026 0.824485,-0.393662 0.605793,-0.60579 0.527066,-1.63365 -0.234001,-2.127908 -0.220866,-0.146537 -0.478932,-0.218709 -0.739178,-0.218709 m -2.066678,3.905909 c 0.05907,0.122488 0.03947,0.271196 -0.06337,0.371794 -0.126854,0.129024 -0.334609,0.129024 -0.463642,0 -0.05904,-0.0592 -0.08958,-0.135594 -0.09397,-0.214334 -0.07863,-0.0037 -0.155279,-0.0351 -0.214326,-0.09393 -0.129035,-0.129023 -0.129035,-0.336799 0,-0.463631 0.100604,-0.10063 0.2515,-0.122486 0.371784,-0.06346 l 0.542377,-0.53145 c 0.0307,0.04159 0.06556,0.08954 0.10498,0.129021 l 0.216513,0.216526 c 0.04605,0.04385 0.08958,0.08089 0.146523,0.113735 z"
       id="chipIcon4"
       class="chip-thumbnail"
       style="stroke-width:1" />
    <rect
       id="rect1166-9"
       class="chip-container"
       width="20.830793"
       height="6.5364308"
       x="42.731113"
       y="46.948284"
       ry="1.8747776" />
    <text
       xml:space="preserve"
       style="font-style:normal;font-weight:normal;font-size:4.40919px;line-height:125%;font-family:Roboto;letter-spacing:0px;word-spacing:0px;stroke-width:1"
       x="50.246277"
       y="51.33493"
       id="text1170-1"
       class="chip-text"><tspan
         sodipodi:role="line"
         id="tspan1168-2"
         style="font-style:normal;font-variant:normal;font-weight:normal;font-stretch:normal;font-size:4.40919px;font-family:Roboto;-inkscape-font-specification:Roboto;stroke-width:1"
         x="50.246277"
         y="51.33493">Spicy</tspan></text>
    <path
       d="m 46.982383,52.45006 q -0.795751,0 -1.348041,-0.552286 -0.552278,-0.552285 -0.552278,-1.348055 0,-0.688854 0.424598,-1.336165 0.424611,-0.647294 1.166925,-1.104564 0.100956,-0.06522 0.204876,-0.0029 0.10392,0.06226 0.10392,0.187065 v 0.427565 q 0,0.201914 0.139556,0.338497 0.139555,0.136585 0.341471,0.136585 0.106893,0 0.198942,-0.04462 0.09198,-0.04461 0.163312,-0.133611 0.04762,-0.05361 0.106888,-0.07411 0.05943,-0.0208 0.112842,0.0149 0.391944,0.267232 0.614636,0.688871 0.222701,0.421624 0.222701,0.902653 0,0.795759 -0.552293,1.348042 -0.552276,0.552285 -1.348046,0.552285 z m -1.544009,-1.900341 q 0,0.374132 0.169249,0.703719 0.169248,0.329599 0.472111,0.549322 -0.02381,-0.07112 -0.03573,-0.145494 -0.01185,-0.07411 -0.01185,-0.145498 0,-0.190035 0.07116,-0.356306 0.07112,-0.16628 0.207846,-0.302863 l 0.671047,-0.659183 0.67106,0.659183 q 0.136588,0.136583 0.207849,0.302863 0.07116,0.166271 0.07116,0.356306 0,0.07112 -0.01185,0.145498 -0.01185,0.07411 -0.03574,0.145494 0.302864,-0.219723 0.47211,-0.549322 0.169251,-0.329587 0.169251,-0.703719 0,-0.32067 -0.136592,-0.626511 -0.13658,-0.305827 -0.39194,-0.561182 -0.124706,0.08905 -0.261292,0.139558 -0.136589,0.05058 -0.273173,0.05058 -0.36225,0 -0.599791,-0.246444 -0.237526,-0.246453 -0.237526,-0.620572 v -0.118745 q -0.546345,0.391936 -0.867023,0.929377 -0.320682,0.537434 -0.320682,1.054083 z m 1.544009,0.142537 -0.421625,0.415687 q -0.08305,0.08301 -0.127684,0.184101 -0.04465,0.100994 -0.04465,0.219724 0,0.243472 0.172219,0.412728 0.172217,0.169256 0.421624,0.169256 0.249426,0 0.421642,-0.169256 0.172215,-0.169256 0.172215,-0.412728 0,-0.118738 -0.04466,-0.219724 -0.04467,-0.10099 -0.127681,-0.184101 z"
       id="chipIcon3-7"
       class="chip-thumbnail"
       style="stroke-width:1" />
    <rect
       style="mix-blend-mode:normal;stroke-width:1"
       id="rect87126-2-5-2-6-9-5-0"
       width="108.73714"
       height="12.498518"
       x="4.2243176"
       y="4.0217366"
       ry="0"
       class="device-statusbar" />
    <g
       id="g378"
       transform="matrix(1.2498516,0,0,1.2498516,-24.431154,-34.225785)"
       style="stroke-width:0.800106">
      <rect
         id="rect87126-7-4-9-2-2"
         width="87.114731"
         height="11.884301"
         x="22.218742"
         y="175.32332"
         ry="0"
         class="device-frame"
         style="stroke-width:0.800106" />
      <path
         d="m 42.83181,186.2616 -3.49435,-3.49436 3.49435,-3.49434 0.64743,0.65571 -2.83864,2.83863 2.83864,2.83864 z"
         id="path13490"
         class="device-button"
         style="stroke-width:0.800106" />
      <path
         d="m 85.76697,185.93375 v -6.33299 h 6.33299 v 6.33299 z m 0.75528,-0.75531 h 4.81407 v -4.81409 h -4.81407 z m 0,0 v -4.81409 z"
         id="path13492"
         class="device-button"
         style="stroke-width:0.800106" />
      <path
         d="m 65.32785,186.26575 q -0.72212,0 -1.3612,-0.26974 -0.63912,-0.26978 -1.11638,-0.74703 -0.47726,-0.47728 -0.74699,-1.11634 -0.26979,-0.63913 -0.26979,-1.36124 0,-0.72212 0.26979,-1.36121 0.26973,-0.63911 0.74699,-1.11638 0.47726,-0.47725 1.11638,-0.75114 0.63908,-0.27392 1.35291,-0.27392 0.7304,0 1.37369,0.27392 0.64323,0.27389 1.11632,0.75114 0.47312,0.47727 0.74705,1.11638 0.27387,0.63909 0.27387,1.3695 0,0.71382 -0.27387,1.35295 -0.27393,0.63906 -0.75119,1.11634 -0.47726,0.47725 -1.11634,0.74703 -0.63913,0.26974 -1.36124,0.26974 z m 0,-0.75532 q 1.13713,0 1.93807,-0.80097 0.80097,-0.80093 0.80097,-1.93806 0,-1.13714 -0.80097,-1.93807 -0.80094,-0.80094 -1.93807,-0.80094 -1.13713,0 -1.93807,0.80094 -0.80095,0.80093 -0.80095,1.93807 0,1.13713 0.80095,1.93806 0.80094,0.80097 1.93807,0.80097 z m 0,-2.73903 z"
         id="path13494"
         class="device-button"
         style="stroke-width:0.800106" />
      <g
         id="g3875"
         transform="translate(-223.65735)"
         style="stroke-width:0.800106">
        <path
           d="m 304.97658,35.44219 q 0.35444,-0.270278 0.75977,-0.42047 0.40549,-0.150199 0.8679,-0.150199 0.46241,0 0.87091,0.150199 0.40836,0.150192 0.76266,0.42047 l 0.66667,-0.660757 q -0.50449,-0.390342 -1.08106,-0.609589 -0.57658,-0.219239 -1.21918,-0.219239 -0.6426,0 -1.21917,0.219239 -0.57657,0.219247 -1.08107,0.609589 z m 1.62767,2.108094 q -0.0422,0 -0.0751,-0.01208 -0.033,-0.012 -0.063,-0.04192 l -2.60675,-2.606699 q -0.0599,-0.05992 -0.057,-0.141119 0.003,-0.081 0.0632,-0.135056 0.57052,-0.504509 1.26731,-0.78386 0.69665,-0.279199 1.47142,-0.279199 0.77478,0 1.47142,0.279199 0.6968,0.279351 1.26732,0.78386 0.0602,0.05408 0.063,0.135056 0.003,0.08116 -0.057,0.141119 l -2.60668,2.606699 q -0.0299,0.02992 -0.063,0.04192 -0.033,0.01208 -0.0751,0.01208 z"
           id="path3861"
           class="device-statusbar-labeltext"
           style="stroke-width:0.800106" />
        <path
           d="m 313.72916,37.194574 h 1.11485 v -3.041961 l -1.11485,1.114858 z m -2.35191,0.355742 q -0.11671,0 -0.16181,-0.108943 -0.0452,-0.108808 0.0344,-0.193663 l 3.64717,-3.641951 q 0.085,-0.08486 0.19379,-0.03984 0.10882,0.04504 0.10882,0.161944 v 3.647174 q 0,0.07424 -0.0505,0.124743 -0.0503,0.05048 -0.12996,0.05048 z"
           id="path3863"
           class="device-statusbar-labeltext"
           style="stroke-width:0.800106" />
        <path
           d="m 328.79464,37.550308 q -0.0701,0 -0.11761,-0.04752 -0.0474,-0.04752 -0.0474,-0.117479 v -3.319952 q 0,-0.07496 0.0474,-0.122519 0.0475,-0.04752 0.11761,-0.04752 h 0.43498 v -0.179991 q 0,-0.07 0.0474,-0.11748 0.0475,-0.04752 0.1176,-0.04752 h 0.46991 q 0.0701,0 0.11759,0.04752 0.0474,0.04752 0.0474,0.11748 v 0.179991 h 0.43499 q 0.0701,0 0.1176,0.04752 0.0474,0.04752 0.0474,0.122519 v 3.319952 q 0,0.07 -0.0474,0.117479 -0.0475,0.04752 -0.1176,0.04752 z m 0.16991,-1.61504 h 1.33005 v -1.704912 h -1.33005 z"
           id="path3865"
           class="device-statusbar-labeltext"
           style="stroke-width:0.800106" />
        <text
           xml:space="preserve"
           style="font-style:normal;font-variant:normal;font-weight:bold;font-stretch:normal;font-size:4.93889px;line-height:125%;font-family:Roboto;-inkscape-font-specification:'Sans, Bold';font-variant-ligatures:normal;font-variant-caps:normal;font-variant-numeric:normal;font-variant-east-asian:normal;letter-spacing:0px;word-spacing:0px;stroke-width:0.800106"
           x="318.27667"
           y="37.471352"
           id="text3869"
           class="device-statusbar-labeltext"><tspan
             sodipodi:role="line"
             id="tspan3867"
             style="font-style:normal;font-variant:normal;font-weight:500;font-stretch:normal;font-size:4.93889px;font-family:Roboto;-inkscape-font-specification:'Roboto Medium';font-variant-ligatures:normal;font-variant-caps:normal;font-variant-numeric:normal;font-variant-east-asian:normal;stroke-width:0.800106"
             x="318.27667"
             y="37.471352">72%</tspan></text>
        <text
           xml:space="preserve"
           style="font-style:normal;font-variant:normal;font-weight:bold;font-stretch:normal;font-size:4.93889px;line-height:125%;font-family:Roboto;-inkscape-font-specification:'Sans, Bold';font-variant-ligatures:normal;font-variant-caps:normal;font-variant-numeric:normal;font-variant-east-asian:normal;letter-spacing:0px;word-spacing:0px;stroke-width:0.800106"
           x="248.42583"
           y="37.471352"
           id="text3873"
           class="device-statusbar-labeltext"><tspan
             sodipodi:role="line"
             id="tspan3871"
             style="font-style:normal;font-variant:normal;font-weight:500;font-stretch:normal;font-size:4.93889px;font-family:Roboto;-inkscape-font-specification:'Roboto Medium';font-variant-ligatures:normal;font-variant-caps:normal;font-variant-numeric:normal;font-variant-east-asian:normal;stroke-width:0.800106"
             x="248.42583"
             y="37.471352">12:30</tspan></text>
      </g>
      <path
         style="color:#000000;fill:#000000;stroke-width:0.800106;stroke-linecap:square"
         d="m 24.7975,27.391671 c -2.84285,0 -5.22461,2.381761 -5.22461,5.224609 v 152.54881 c 0,2.84285 2.38176,5.22657 5.22461,5.22657 h 82.55078 c 2.84285,0 5.22461,-2.38372 5.22461,-5.22657 V 32.61628 c 0,-2.842848 -2.38176,-5.224609 -5.22461,-5.224609 z m 0.66081,3.354166 c 0,0 79.63141,0.01523 81.22916,0 1.59775,-0.01523 2.53125,1.059019 2.53125,2.602083 0,0 -0.007,149.4797 0,151.08749 0.007,1.60779 -0.98468,2.60208 -2.53125,2.60208 -1.54657,0 -79.63141,-0.0153 -81.22916,0 -1.59775,0.0152 -2.53125,-1.05901 -2.53125,-2.60208 V 33.34792 c 0,-1.754401 0.78627,-2.602083 2.53125,-2.602083 z"
         id="path3123-5-6"
         sodipodi:nodetypes="sssssssssszzzzzzss"
         class="device-frame" />
    </g>
  </g>
</svg>
