<?xml version="1.0" encoding="UTF-8" standalone="no"?>
<svg
   height="2159.7102"
   id="svg8"
   version="1.1"
   viewBox="0 0 116.23619 215.97102"
   width="1162.3619"
   inkscape:version="1.2.1 (9c6d41e410, 2022-07-14, custom)"
   sodipodi:docname="mockup4.svg"
   xmlns:inkscape="http://www.inkscape.org/namespaces/inkscape"
   xmlns:sodipodi="http://sodipodi.sourceforge.net/DTD/sodipodi-0.dtd"
   xmlns="http://www.w3.org/2000/svg"
   xmlns:svg="http://www.w3.org/2000/svg">
  <style
     id="style"><!-- needed for Inkscape only, must be removed by build process -->



     @import url(mockstyle_inkscape.css);
  </style>
  <defs
     id="defs2" />
  <sodipodi:namedview
     bordercolor="#666666"
     borderopacity="1.0"
     id="base"
     pagecolor="#ffffff"
     showgrid="false"
     inkscape:bbox-nodes="true"
     inkscape:bbox-paths="true"
     inkscape:current-layer="layer1"
     inkscape:cx="310.1472"
     inkscape:cy="960.74335"
     inkscape:document-rotation="0"
     inkscape:document-units="px"
     inkscape:pageopacity="0.0"
     inkscape:pageshadow="2"
     inkscape:snap-bbox="true"
     inkscape:snap-bbox-edge-midpoints="true"
     inkscape:snap-bbox-midpoints="true"
     inkscape:snap-global="false"
     inkscape:window-height="708"
     inkscape:window-maximized="1"
     inkscape:window-width="1366"
     inkscape:window-x="0"
     inkscape:window-y="0"
     inkscape:zoom="0.28051196"
     inkscape:showpageshadow="2"
     inkscape:pagecheckerboard="0"
     inkscape:deskcolor="#d1d1d1" />
  <g
     id="layer1"
     inkscape:groupmode="layer"
     inkscape:label="Ebene 1">
    <g
       id="g13459"
       transform="matrix(1.2498516,0,0,1.2498516,-443.03077,-34.445187)"
       class="device"
       style="stroke-width:0.800095">
      <path
         d="m 378.40939,186.2616 -3.49435,-3.49436 3.49435,-3.49434 0.64743,0.65571 -2.83864,2.83863 2.83864,2.83864 z"
         id="path13450"
         style="stroke-width:0.800095"
         class="device" />
      <path
         d="m 421.34455,185.93375 v -6.33299 h 6.33299 v 6.33299 z m 0.75528,-0.75531 h 4.81407 v -4.81409 h -4.81407 z m 0,0 v -4.81409 z"
         id="path13452"
         style="stroke-width:0.800095"
         class="device" />
      <path
         d="m 400.90543,186.26575 q -0.72212,0 -1.3612,-0.26974 -0.63912,-0.26978 -1.11638,-0.74703 -0.47726,-0.47728 -0.74699,-1.11634 -0.26979,-0.63913 -0.26979,-1.36124 0,-0.72212 0.26979,-1.36121 0.26973,-0.63911 0.74699,-1.11638 0.47726,-0.47725 1.11638,-0.75114 0.63908,-0.27392 1.35291,-0.27392 0.7304,0 1.37369,0.27392 0.64323,0.27389 1.11632,0.75114 0.47312,0.47727 0.74705,1.11638 0.27387,0.63909 0.27387,1.3695 0,0.71382 -0.27387,1.35295 -0.27393,0.63906 -0.75119,1.11634 -0.47726,0.47725 -1.11634,0.74703 -0.63913,0.26974 -1.36124,0.26974 z m 0,-0.75532 q 1.13713,0 1.93807,-0.80097 0.80097,-0.80093 0.80097,-1.93806 0,-1.13714 -0.80097,-1.93807 -0.80094,-0.80094 -1.93807,-0.80094 -1.13713,0 -1.93807,0.80094 -0.80095,0.80093 -0.80095,1.93807 0,1.13713 0.80095,1.93806 0.80094,0.80097 1.93807,0.80097 z m 0,-2.73903 z"
         id="path13454"
         style="stroke-width:0.800095"
         class="device" />
    </g>
    <rect
       id="deviceBackground-0-0-1-4-9"
       class="device-background"
       width="108.73709"
       height="196.2267"
       x="3.3948603"
       y="2.9754612"
       ry="2.7811289"
       style="stroke-width:1" />
    <rect
       id="listSurface"
       class="container-surface"
       width="108.49689"
       height="135.33002"
       x="4.4494863"
       y="34.449749"
       ry="6.9765935"
       style="stroke-width:1" />
    <rect
       id="deviceBackground-0-0-1-4-9-7"
       class="container-surface"
       width="108.73709"
       height="196.2267"
       x="3.3948603"
       y="3.2079651"
       ry="2.7811289"
       style="stroke-width:1" />
    <rect
       id="cardFilledContainer3"
       class="card-filled-container"
       width="62.48558"
       height="28.69902"
       x="7.8483205"
       y="131.6377"
       ry="2.3190038"
       style="stroke-width:0.999997" />
    <rect
       style="mix-blend-mode:normal;stroke-width:1"
       id="rect87126-2-5-2-6-90"
       width="108.7371"
       height="12.498516"
       x="4.2095265"
       y="3.7765574"
       ry="0"
       class="device-statusbar" />
    <rect
       id="cardFilledContainer4"
       class="card-filled-container"
       width="37.998993"
       height="28.620798"
       x="74.947411"
       y="131.32823"
       ry="2.3126831"
       style="stroke-width:1" />
    <text
       xml:space="preserve"
       style="font-style:normal;font-weight:normal;font-size:7.05471px;line-height:125%;font-family:Roboto;letter-spacing:0px;word-spacing:0px;fill:#201a1a;stroke-width:1"
       x="11.724023"
       y="144.34546"
       id="text11888"
       class="card-labeltext"><tspan
         sodipodi:role="line"
         style="font-style:normal;font-variant:normal;font-weight:normal;font-stretch:normal;font-size:7.05471px;font-family:Roboto;-inkscape-font-specification:Roboto;stroke-width:1"
         x="11.724023"
         y="144.34546"
         id="tspan5347">Four Seasons</tspan></text>
    <rect
       id="cardFilledContainer"
       class="card-filled-container"
       width="62.48558"
       height="45.199253"
       x="7.8483205"
       y="72.949944"
       ry="3.652293"
       style="stroke-width:1" />
    <text
       xml:space="preserve"
       style="font-style:normal;font-weight:normal;font-size:7.05471px;line-height:125%;font-family:Roboto;letter-spacing:0px;word-spacing:0px;fill:#201a1a;stroke-width:1"
       x="11.724023"
       y="80.841911"
       id="textView2-5-1"
       class="card-labeltext"><tspan
         sodipodi:role="line"
         id="tspan9212-1-9-8-9"
         style="font-style:normal;font-variant:normal;font-weight:normal;font-stretch:normal;font-size:7.05471px;font-family:Roboto;-inkscape-font-specification:Roboto;stroke-width:1"
         x="11.724023"
         y="80.841911">Lakeview </tspan><tspan
         sodipodi:role="line"
         style="font-style:normal;font-variant:normal;font-weight:normal;font-stretch:normal;font-size:7.05471px;font-family:Roboto;-inkscape-font-specification:Roboto;stroke-width:1"
         x="11.724023"
         y="89.660301"
         id="tspan9373">Resort</tspan></text>
    <text
       xml:space="preserve"
       style="font-style:normal;font-weight:normal;font-size:8.68131px;line-height:125%;font-family:Roboto;letter-spacing:0px;word-spacing:0px;fill:#000000;stroke-width:1"
       x="45.10284"
       y="215.89986"
       id="text9214-7-0-6-2"
       cass="mock-description"><tspan
         sodipodi:role="line"
         x="45.10284"
         y="215.89986"
         id="tspan173838"
         style="stroke-width:1">Travel</tspan></text>
    <path
       d="m 63.184178,81.746843 -0.43136,-0.400011 q -0.96474,-0.878442 -1.6824,-1.721597 -0.71767,-0.843146 -0.71767,-1.800024 0,-0.792165 0.52551,-1.325514 0.52549,-0.533345 1.30984,-0.533345 0.39215,0 0.77648,0.168642 0.38431,0.168618 0.71374,0.576465 0.36863,-0.407847 0.72942,-0.576465 0.3608,-0.168642 0.76079,-0.168642 0.79219,0 1.32553,0.533345 0.53334,0.533349 0.53334,1.325514 0,0.956878 -0.72942,1.800024 -0.72944,0.843155 -1.68631,1.729433 l -0.42354,0.392175 q -0.21961,0.196077 -0.50589,0.196077 -0.28628,0 -0.49806,-0.196077 z"
       id="iconButtonSelected1"
       class="iconbutton-text-icon-checked"
       style="stroke-width:1" />
    <text
       xml:space="preserve"
       style="font-style:normal;font-weight:normal;font-size:7.05471px;line-height:125%;font-family:Roboto;letter-spacing:0px;word-spacing:0px;fill:#201a1a;stroke-width:1"
       x="78.823112"
       y="144.03596"
       id="text11902"
       class="card-labeltext"><tspan
         sodipodi:role="line"
         id="tspan11900"
         style="font-style:normal;font-variant:normal;font-weight:normal;font-stretch:normal;font-size:7.05471px;font-family:Roboto;-inkscape-font-specification:Roboto;stroke-width:1"
         x="78.823112"
         y="144.03596">Westport</tspan><tspan
         sodipodi:role="line"
         style="font-style:normal;font-variant:normal;font-weight:normal;font-stretch:normal;font-size:7.05471px;font-family:Roboto;-inkscape-font-specification:Roboto;stroke-width:1"
         x="78.823112"
         y="152.85435"
         id="tspan5349">Plaza</tspan></text>
    <text
       xml:space="preserve"
       style="font-style:normal;font-weight:normal;font-size:5.29103px;line-height:125%;font-family:Roboto;letter-spacing:0px;word-spacing:0px;fill:#201a1a;stroke-width:1"
       x="20.279289"
       y="113.89719"
       id="text2086"
       class="card-labeltext"><tspan
         sodipodi:role="line"
         id="tspan2084"
         style="font-style:normal;font-variant:normal;font-weight:normal;font-stretch:normal;font-size:5.29103px;font-family:Roboto;-inkscape-font-specification:Roboto;stroke-width:1"
         x="20.279289"
         y="113.89719">4,7 (1.3k users)</tspan></text>
    <path
       d="m 15.457958,113.36219 -1.63345,0.98358 q -0.0702,0.0439 -0.14929,0.0395 -0.079,-0.005 -0.14051,-0.0484 -0.0615,-0.0439 -0.0922,-0.11412 -0.0308,-0.0702 -0.0131,-0.15808 l 0.43032,-1.86178 -1.44025,-1.25581 q -0.0702,-0.0615 -0.0835,-0.13613 -0.0131,-0.0746 0.005,-0.1449 0.0176,-0.0702 0.079,-0.11861 0.0615,-0.0484 0.14928,-0.0571 l 1.9057,-0.16686 0.73769,-1.75639 q 0.0351,-0.0791 0.10536,-0.11862 0.0702,-0.0395 0.14051,-0.0395 0.0702,0 0.14052,0.0395 0.0702,0.0395 0.10536,0.11862 l 0.73769,1.75639 1.90568,0.16686 q 0.0879,0.009 0.1493,0.0571 0.0615,0.0482 0.079,0.11861 0.0176,0.0703 0.005,0.1449 -0.0131,0.0746 -0.0835,0.13613 l -1.44023,1.25581 0.43031,1.86178 q 0.0176,0.0879 -0.0133,0.15808 -0.0307,0.0703 -0.0922,0.11412 -0.0615,0.0439 -0.14052,0.0484 -0.079,0.005 -0.14929,-0.0395 z"
       id="textIcon1"
       class="card-labeltext"
       style="stroke-width:1" />
    <rect
       id="cardFilledContainer2"
       class="card-filled-container"
       width="37.998993"
       height="45.199253"
       x="74.947411"
       y="72.624565"
       ry="3.652293"
       style="stroke-width:1" />
    <text
       xml:space="preserve"
       style="font-style:normal;font-weight:normal;font-size:7.05471px;line-height:125%;font-family:Roboto;letter-spacing:0px;word-spacing:0px;fill:#201a1a;stroke-width:1"
       x="78.823112"
       y="80.532425"
       id="text6133"
       class="card-labeltext"><tspan
         sodipodi:role="line"
         id="tspan6131"
         style="font-style:normal;font-variant:normal;font-weight:normal;font-stretch:normal;font-size:7.05471px;font-family:Roboto;-inkscape-font-specification:Roboto;stroke-width:1"
         x="78.823112"
         y="80.532425">Beach Hid</tspan></text>
    <text
       xml:space="preserve"
       style="font-style:normal;font-weight:normal;font-size:5.29103px;line-height:125%;font-family:Roboto;letter-spacing:0px;word-spacing:0px;fill:#201a1a;stroke-width:1"
       x="87.37838"
       y="113.58775"
       id="text6141"
       class="card-labeltext"><tspan
         sodipodi:role="line"
         id="tspan6139"
         style="font-style:normal;font-variant:normal;font-weight:normal;font-stretch:normal;font-size:5.29103px;font-family:Roboto;-inkscape-font-specification:Roboto;stroke-width:1"
         x="87.37838"
         y="113.58775">4,9 (3.7k u</tspan></text>
    <path
       d="m 82.557048,113.0527 -1.63344,0.98358 q -0.0702,0.0439 -0.1493,0.0395 -0.079,-0.005 -0.14051,-0.0484 -0.0615,-0.0439 -0.0922,-0.11411 -0.0308,-0.0702 -0.0131,-0.15809 l 0.43033,-1.86177 -1.44026,-1.25583 q -0.0702,-0.0615 -0.0835,-0.13612 -0.0131,-0.0746 0.005,-0.14489 0.0176,-0.0703 0.079,-0.11862 0.0615,-0.0484 0.14928,-0.0571 l 1.9057,-0.16687 0.73769,-1.75639 q 0.0351,-0.0791 0.10536,-0.11861 0.0702,-0.0395 0.14051,-0.0395 0.0702,0 0.14052,0.0395 0.0702,0.0395 0.10536,0.11861 l 0.73769,1.75639 1.90569,0.16687 q 0.0879,0.009 0.14929,0.0571 0.0615,0.0483 0.079,0.11862 0.0176,0.0702 0.005,0.14489 -0.0131,0.0746 -0.0835,0.13612 l -1.44023,1.25583 0.43032,1.86177 q 0.0176,0.0879 -0.0132,0.15809 -0.0308,0.0702 -0.0922,0.11411 -0.0615,0.0439 -0.14052,0.0484 -0.079,0.005 -0.1493,-0.0395 z"
       id="textIcon2"
       class="card-labeltext"
       style="stroke-width:1" />
    <text
       xml:space="preserve"
       style="font-style:normal;font-variant:normal;font-weight:normal;font-stretch:normal;font-size:7.05471px;line-height:125%;font-family:Roboto;-inkscape-font-specification:'Roboto, Normal';font-variant-ligatures:normal;font-variant-caps:normal;font-variant-numeric:normal;font-variant-east-asian:normal;letter-spacing:0px;word-spacing:0px;stroke-width:1"
       x="9.0301752"
       y="69.054085"
       id="text7753"
       class="label-secondary"><tspan
         sodipodi:role="line"
         id="tspan7751"
         style="font-style:normal;font-variant:normal;font-weight:500;font-stretch:normal;font-size:7.05471px;font-family:Roboto;-inkscape-font-specification:'Roboto Medium';font-variant-ligatures:normal;font-variant-caps:normal;font-variant-numeric:normal;font-variant-east-asian:normal;stroke-width:1"
         x="9.0301752"
         y="69.054085">Most Popular</tspan></text>
    <text
       xml:space="preserve"
       style="font-style:normal;font-variant:normal;font-weight:bold;font-stretch:normal;font-size:6.17288px;line-height:125%;font-family:Roboto-serif;-inkscape-font-specification:'sans-serif, Bold';font-variant-ligatures:normal;font-variant-caps:normal;font-variant-numeric:normal;font-variant-east-asian:normal;letter-spacing:0px;word-spacing:0px;stroke-width:1"
       x="91.517632"
       y="69.107162"
       id="text7757"
       class="button-text-labeltext"><tspan
         sodipodi:role="line"
         id="tspan7755"
         style="font-style:normal;font-variant:normal;font-weight:bold;font-stretch:normal;font-size:6.17288px;font-family:Roboto;-inkscape-font-specification:'Roboto Bold';font-variant-ligatures:normal;font-variant-caps:normal;font-variant-numeric:normal;font-variant-east-asian:normal;stroke-width:1"
         x="91.517632"
         y="69.107162">See all</tspan></text>
    <text
       xml:space="preserve"
       style="font-style:normal;font-variant:normal;font-weight:normal;font-stretch:normal;font-size:7.05471px;line-height:125%;font-family:Roboto;-inkscape-font-specification:'Roboto, Normal';font-variant-ligatures:normal;font-variant-caps:normal;font-variant-numeric:normal;font-variant-east-asian:normal;letter-spacing:0px;word-spacing:0px;stroke-width:1"
       x="9.0301752"
       y="128.54619"
       id="text11876"
       class="label-secondary"><tspan
         sodipodi:role="line"
         id="tspan11874"
         style="font-style:normal;font-variant:normal;font-weight:500;font-stretch:normal;font-size:7.05471px;font-family:Roboto;-inkscape-font-specification:'Roboto Medium';font-variant-ligatures:normal;font-variant-caps:normal;font-variant-numeric:normal;font-variant-east-asian:normal;stroke-width:1"
         x="9.0301752"
         y="128.54619">Recommended</tspan></text>
    <text
       xml:space="preserve"
       style="font-style:normal;font-variant:normal;font-weight:bold;font-stretch:normal;font-size:6.17288px;line-height:125%;font-family:Roboto-serif;-inkscape-font-specification:'sans-serif, Bold';font-variant-ligatures:normal;font-variant-caps:normal;font-variant-numeric:normal;font-variant-east-asian:normal;letter-spacing:0px;word-spacing:0px;stroke-width:1"
       x="91.517632"
       y="128.59929"
       id="text11880"
       class="button-text-labeltext"><tspan
         sodipodi:role="line"
         id="tspan11878"
         style="font-style:normal;font-variant:normal;font-weight:bold;font-stretch:normal;font-size:6.17288px;font-family:Roboto;-inkscape-font-specification:'Roboto Bold';font-variant-ligatures:normal;font-variant-caps:normal;font-variant-numeric:normal;font-variant-east-asian:normal;stroke-width:1"
         x="91.517632"
         y="128.59929">See all</tspan></text>
    <path
       d="m 62.448788,145.53144 -0.45106,-0.41826 q -1.00874,-0.91853 -1.75915,-1.80015 -0.7504,-0.88162 -0.7504,-1.88215 0,-0.82831 0.54948,-1.38598 0.54948,-0.55769 1.36959,-0.55769 0.41005,0 0.8119,0.17633 0.40186,0.17633 0.7463,0.60278 0.38546,-0.42645 0.76271,-0.60278 0.37724,-0.17633 0.79551,-0.17633 0.82831,0 1.38598,0.55769 0.55769,0.55767 0.55769,1.38598 0,1.00053 -0.76271,1.88215 -0.7627,0.88162 -1.76324,1.80835 l -0.44286,0.41006 q -0.22963,0.20503 -0.52897,0.20503 -0.29935,0 -0.52077,-0.20503 z m 0.26243,-4.3958 q -0.18863,-0.36906 -0.55767,-0.62329 -0.36906,-0.25423 -0.7463,-0.25423 -0.50848,0 -0.82833,0.32805 -0.31983,0.32803 -0.31983,0.84471 0,0.45926 0.30754,0.96774 0.30753,0.50846 0.73809,0.98823 0.43057,0.47977 0.89392,0.89392 0.46337,0.41415 0.76681,0.693 0.30345,-0.27885 0.76681,-0.6971 0.46337,-0.41825 0.89802,-0.89802 0.43466,-0.47977 0.75041,-0.98415 0.31574,-0.50436 0.31574,-0.96362 0,-0.51668 -0.33215,-0.84471 -0.33214,-0.32805 -0.84061,-0.32805 -0.38546,0 -0.7504,0.25013 -0.36494,0.25014 -0.56177,0.62739 -0.041,0.082 -0.11074,0.11886 -0.0697,0.0369 -0.14352,0.0369 -0.082,0 -0.14352,-0.0369 -0.0615,-0.0369 -0.10249,-0.11886 z m 0.26243,1.4762 z"
       id="iconButtonUnselected1"
       class="iconbutton-text-icon-unchecked"
       style="stroke-width:1" />
    <rect
       id="tabContainer-6-6"
       class="tab-container"
       width="108.73709"
       height="22.561077"
       x="4.0743194"
       y="35.630451"
       ry="0"
       style="fill:#fffbff;stroke-width:1" />
    <path
       d="m 90.000566,43.458289 q -0.797098,0 -1.304339,-0.50724 -0.507264,-0.50726 -0.507264,-1.30436 0,-0.7971 0.507264,-1.30433 0.507241,-0.50725 1.304339,-0.50725 0.797098,0 1.30435,0.50725 0.50724,0.50723 0.50724,1.30433 0,0.7971 -0.50724,1.30436 -0.507252,0.50724 -1.30435,0.50724 z m -3.1401,3.87682 q -0.30192,0 -0.513289,-0.21136 -0.211345,-0.21135 -0.211345,-0.51328 v -0.41063 q 0,-0.45893 0.229467,-0.78502 0.229468,-0.32609 0.591779,-0.49517 0.809171,-0.36232 1.551939,-0.54347 0.742744,-0.18117 1.491549,-0.18117 0.748793,0 1.485512,0.1872 0.736707,0.18719 1.545874,0.53744 0.374396,0.16908 0.603864,0.49517 0.229479,0.32609 0.229479,0.78502 v 0.41063 q 0,0.30193 -0.211357,0.51328 -0.211345,0.21136 -0.513277,0.21136 z"
       id="bottomnavigationIcon3-7"
       class="tab-inactive-icon"
       style="stroke-width:1" />
    <path
       d="m 55.223575,47.335109 q -0.236836,0 -0.414469,-0.17764 -0.177633,-0.17763 -0.177633,-0.41447 v -4.73684 q 0,-0.23683 0.177633,-0.41448 0.177633,-0.17762 0.414469,-0.17762 h 1.776331 v -0.98684 q 0,-0.23683 0.177621,-0.41447 0.177633,-0.17764 0.414469,-0.17764 h 1.973682 q 0.236848,0 0.414481,0.17764 0.177633,0.17764 0.177633,0.41447 v 0.98684 h 1.776318 q 0.236848,0 0.414457,0.17762 0.177645,0.17765 0.177645,0.41448 v 4.73684 q 0,0.23684 -0.177645,0.41447 -0.177609,0.17764 -0.414457,0.17764 z m 2.368421,-5.92105 h 1.973682 v -0.98684 h -1.973682 z"
       id="bottomnavigationIcon2-2"
       class="tab-inactive-icon"
       style="stroke-width:1" />
    <circle
       cx="63.813976"
       cy="40.187649"
       id="badgeContainer"
       class="badge-container"
       r="2.4997032"
       style="stroke-width:1" />
    <text
       xml:space="preserve"
       style="font-style:normal;font-weight:normal;font-size:4.4092px;line-height:125%;font-family:Roboto;letter-spacing:0px;word-spacing:0px;stroke-width:1"
       x="62.654491"
       y="41.760342"
       id="badgeLabel"
       class="badge-labeltext"><tspan
         sodipodi:role="line"
         id="tspan3001"
         style="font-style:normal;font-variant:normal;font-weight:500;font-stretch:normal;font-size:4.4092px;font-family:Roboto;-inkscape-font-specification:'Roboto Medium';stroke-width:1"
         x="62.654491"
         y="41.760342">1</tspan></text>
    <path
       d="m 20.74265,45.431979 2.25937,-1.10627 q 0.0468,-0.0187 0.0797,-0.0516 0.0329,-0.0329 0.0516,-0.0797 l 1.106271,-2.25937 q 0.0468,-0.0937 -0.0234,-0.16407 -0.0703,-0.0703 -0.16407,-0.0234 l -2.259381,1.10625 q -0.0468,0.0187 -0.0797,0.0516 -0.0329,0.0329 -0.0516,0.0797 l -1.10624,2.25938 q -0.0468,0.0937 0.0234,0.16406 0.0703,0.0703 0.16407,0.0234 z m 1.65937,-1.47188 q -0.15939,0 -0.2672,-0.10789 -0.10789,-0.10789 -0.10789,-0.26719 0,-0.15939 0.10789,-0.26718 0.1079,-0.1079 0.2672,-0.1079 0.15938,0 0.26718,0.1079 0.10789,0.10789 0.10789,0.26718 0,0.15938 -0.10789,0.26719 -0.10789,0.10789 -0.26718,0.10789 z m 0,3.37501 q -0.76875,0 -1.45313,-0.29532 -0.68437,-0.29531 -1.19532,-0.80626 -0.51092,-0.51092 -0.80624,-1.1953 -0.29531,-0.68437 -0.29531,-1.45312 0,-0.76875 0.29531,-1.45314 0.29532,-0.68436 0.80624,-1.19531 0.51095,-0.51093 1.19532,-0.80625 0.68438,-0.2953 1.45313,-0.2953 0.76874,0 1.453121,0.2953 0.68438,0.29532 1.19531,0.80625 0.510947,0.51095 0.806254,1.19531 0.295319,0.68439 0.295319,1.45314 0,0.76875 -0.295319,1.45312 -0.295307,0.68438 -0.806254,1.1953 -0.51093,0.51095 -1.19531,0.80626 -0.684381,0.29532 -1.453121,0.29532 z"
       id="bottomnavigationIcon1-0"
       class="tab-active-icon"
       style="stroke-width:1" />
    <rect
       id="tabActiveIndicator-1-5"
       class="tab-active-tabindicator"
       width="17.462608"
       height="1.4051198"
       x="13.440928"
       y="56.786411"
       ry="0"
       style="fill:#984061;stroke-width:0.999998" />
    <text
       xml:space="preserve"
       style="font-style:normal;font-variant:normal;font-weight:bold;font-stretch:normal;font-size:4.4092px;line-height:125%;font-family:Roboto;-inkscape-font-specification:'Roboto, Bold';font-variant-ligatures:normal;font-variant-caps:normal;font-variant-numeric:normal;font-variant-east-asian:normal;letter-spacing:0px;word-spacing:0px;fill:#984061;stroke-width:1"
       x="14.879091"
       y="53.336826"
       id="tabActiveLabel-1-2"
       class="tab-active-textlabel"><tspan
         sodipodi:role="line"
         id="tspan9212-1-9-1-8-6-5-6"
         style="font-style:normal;font-variant:normal;font-weight:bold;font-stretch:normal;font-size:4.4092px;font-family:Roboto;-inkscape-font-specification:'Roboto, Bold';font-variant-ligatures:normal;font-variant-caps:normal;font-variant-numeric:normal;font-variant-east-asian:normal;stroke-width:1"
         x="14.879091"
         y="53.336826">Hotels</tspan></text>
    <text
       xml:space="preserve"
       style="font-style:normal;font-variant:normal;font-weight:bold;font-stretch:normal;font-size:4.4092px;line-height:125%;font-family:Roboto;-inkscape-font-specification:'Roboto, Bold';font-variant-ligatures:normal;font-variant-caps:normal;font-variant-numeric:normal;font-variant-east-asian:normal;letter-spacing:0px;word-spacing:0px;fill:#514347;stroke-width:1"
       x="83.538902"
       y="53.36327"
       id="tabInactiveLabel2-1-5"
       class="tab-inactive-textlabel"><tspan
         sodipodi:role="line"
         id="tspan9212-1-9-1-8-5-4-4-8"
         style="font-style:normal;font-variant:normal;font-weight:bold;font-stretch:normal;font-size:4.4092px;font-family:Roboto;-inkscape-font-specification:'Roboto, Bold';font-variant-ligatures:normal;font-variant-caps:normal;font-variant-numeric:normal;font-variant-east-asian:normal;stroke-width:1"
         x="83.538902"
         y="53.36327">Profile</tspan></text>
    <text
       xml:space="preserve"
       style="font-style:normal;font-variant:normal;font-weight:bold;font-stretch:normal;font-size:4.4092px;line-height:125%;font-family:Roboto;-inkscape-font-specification:'Roboto, Bold';font-variant-ligatures:normal;font-variant-caps:normal;font-variant-numeric:normal;font-variant-east-asian:normal;letter-spacing:0px;word-spacing:0px;fill:#514347;stroke-width:1"
       x="49.893433"
       y="53.36327"
       id="tabInactiveLabel1-9-8"
       class="tab-inactive-textlabel"><tspan
         sodipodi:role="line"
         id="tspan9212-1-9-1-8-9-2-9-7"
         style="font-style:normal;font-variant:normal;font-weight:bold;font-stretch:normal;font-size:4.4092px;font-family:Roboto;-inkscape-font-specification:'Roboto, Bold';font-variant-ligatures:normal;font-variant-caps:normal;font-variant-numeric:normal;font-variant-east-asian:normal;stroke-width:1"
         x="49.893433"
         y="53.36327">Luggage</tspan></text>
    <rect
       id="rect369"
       class="tab-divider"
       width="108.73711"
       height="0.62492579"
       x="4.0743194"
       y="58.112064"
       style="fill:#f2dde1;stroke-width:1" />
    <rect
       id="rect1146"
       class="chip-container"
       width="18.747187"
       height="6.5364285"
       x="11.968713"
       y="149.96355"
       ry="1.8747774" />
    <text
       xml:space="preserve"
       style="font-style:normal;font-weight:normal;font-size:4.4092px;line-height:125%;font-family:Roboto;letter-spacing:0px;word-spacing:0px;stroke-width:1"
       x="19.649254"
       y="154.96082"
       id="chipContainerText-0-2"
       class="chip-text"><tspan
         sodipodi:role="line"
         id="tspan5081-5-2-9-8-6"
         style="font-style:normal;font-variant:normal;font-weight:normal;font-stretch:normal;font-size:4.4092px;font-family:Roboto;-inkscape-font-specification:Roboto;stroke-width:1"
         x="19.649254"
         y="154.96082">Pool</tspan></text>
    <path
       d="m 13.684848,155.43181 q -0.0851,0.0425 -0.15813,-0.0125 -0.073,-0.0548 -0.073,-0.15813 0,-0.0548 0.0395,-0.10637 0.0395,-0.0517 0.10636,-0.076 0.14596,-0.0486 0.26454,-0.12772 0.11861,-0.0791 0.3497,-0.0791 0.27975,0 0.45612,0.13076 0.17637,0.13075 0.40748,0.13075 0.23109,0 0.38009,-0.13075 0.14901,-0.13076 0.42876,-0.13076 0.27975,0 0.45612,0.13076 0.17637,0.13075 0.40747,0.13075 0.23109,0 0.38314,-0.13075 0.15204,-0.13076 0.4318,-0.13076 0.23109,0 0.34969,0.0791 0.11861,0.0791 0.25847,0.12772 0.0669,0.0244 0.10649,0.073 0.0395,0.0486 0.0395,0.10949 0,0.10336 -0.073,0.15813 -0.073,0.0547 -0.15812,0.0125 -0.12161,-0.0609 -0.24327,-0.12473 -0.12161,-0.0639 -0.27975,-0.0639 -0.2311,0 -0.3953,0.12772 -0.16421,0.12771 -0.41964,0.12771 -0.25542,0 -0.44395,-0.12771 -0.18854,-0.12772 -0.41964,-0.12772 -0.23109,0 -0.40442,0.12772 -0.17333,0.12771 -0.42877,0.12771 -0.25542,0 -0.43178,-0.12771 -0.17637,-0.12772 -0.40747,-0.12772 -0.15813,0 -0.27975,0.0639 -0.12161,0.0639 -0.24936,0.12473 z m -0.0182,-1.13728 q -0.0851,0.0365 -0.14901,-0.0153 -0.0639,-0.0517 -0.0639,-0.14899 0,-0.0548 0.0365,-0.10037 0.0365,-0.0456 0.0974,-0.0639 0.15203,-0.0486 0.27367,-0.1277 0.12161,-0.0791 0.35273,-0.0791 0.27976,0 0.44396,0.11561 0.16421,0.11549 0.3953,0.11549 0.2311,0 0.39227,-0.11549 0.16117,-0.11561 0.44092,-0.11561 0.27976,0 0.44396,0.11561 0.16421,0.11549 0.39531,0.11549 0.23109,0 0.3953,-0.11549 0.1642,-0.11561 0.44396,-0.11561 0.2311,0 0.35273,0.0791 0.12161,0.079 0.26759,0.1277 0.0609,0.0182 0.0972,0.0639 0.0365,0.0456 0.0365,0.10037 0,0.0974 -0.0639,0.14899 -0.0639,0.0517 -0.14899,0.0153 -0.12773,-0.0609 -0.25239,-0.12771 -0.12473,-0.0669 -0.28887,-0.0669 -0.23111,0 -0.39532,0.12771 -0.16419,0.12772 -0.41962,0.12772 -0.25544,0 -0.44396,-0.12772 -0.18853,-0.12771 -0.41964,-0.12771 -0.2311,0 -0.39226,0.12771 -0.16116,0.12772 -0.4166,0.12772 -0.25542,0 -0.44396,-0.12772 -0.18852,-0.12771 -0.41962,-0.12771 -0.16421,0 -0.29192,0.0669 -0.12771,0.0669 -0.25543,0.12771 z m 1.38659,-1.05211 q -0.10948,0 -0.19763,-0.0426 -0.0882,-0.0426 -0.13685,-0.10949 l 0.82103,-0.82103 -0.32841,-0.3284 q -0.16421,-0.1642 -0.33145,-0.24327 -0.16725,-0.0791 -0.39836,-0.0974 -0.0972,-0.0125 -0.1642,-0.0791 -0.0669,-0.0669 -0.0669,-0.16419 0,-0.10336 0.07,-0.17333 0.0699,-0.07 0.17332,-0.0577 0.32841,0.0304 0.5656,0.13988 0.23718,0.10949 0.4622,0.33449 l 1.53865,1.53864 q -0.0669,0.0547 -0.15507,0.0791 -0.0882,0.0244 -0.17942,0.0244 -0.2311,0 -0.39835,-0.12771 -0.16724,-0.12773 -0.44091,-0.12773 -0.27367,0 -0.43788,0.12773 -0.1642,0.12771 -0.39531,0.12771 z m 1.97653,-0.94873 q -0.24326,0 -0.4105,-0.16725 -0.16724,-0.16725 -0.16724,-0.41051 0,-0.24327 0.16724,-0.41051 0.16724,-0.16724 0.4105,-0.16724 0.24327,0 0.41052,0.16724 0.16724,0.16724 0.16724,0.41051 0,0.24326 -0.16724,0.41051 -0.16725,0.16725 -0.41052,0.16725 z"
       id="chipIcon7"
       class="chip-thumbnail"
       style="stroke-width:1" />
    <rect
       id="rect1150-7"
       class="chip-container"
       width="18.430166"
       height="6.5364285"
       x="45.174221"
       y="95.217949"
       ry="1.8747774" />
    <text
       xml:space="preserve"
       style="font-style:normal;font-weight:normal;font-size:4.4092px;line-height:125%;font-family:Roboto;letter-spacing:0px;word-spacing:0px;stroke-width:1"
       x="53.671719"
       y="100.21912"
       id="chipContainerText-0-2-2-5"
       class="chip-text"><tspan
         sodipodi:role="line"
         id="tspan5081-5-2-9-8-6-3-3"
         style="font-style:normal;font-variant:normal;font-weight:normal;font-stretch:normal;font-size:4.4092px;font-family:Roboto;-inkscape-font-specification:Roboto;stroke-width:1"
         x="53.671719"
         y="100.21912">WiFi</tspan></text>
    <path
       d="m 47.673768,98.89654 q -0.0845,-0.0845 -0.0877,-0.20475 -0.004,-0.12024 0.0877,-0.19825 0.4095,-0.3575 0.858,-0.536237 0.44849,-0.17875 0.9555,-0.17875 0.507,0 0.95549,0.17875 0.4485,0.178737 0.858,0.536237 0.091,0.078 0.091,0.195 0,0.11699 -0.091,0.208 -0.0845,0.0845 -0.2015,0.0845 -0.11698,0 -0.208,-0.078 -0.35099,-0.29249 -0.69875,-0.41599 -0.34775,-0.12348 -0.70524,-0.12348 -0.3575,0 -0.70525,0.12348 -0.34775,0.12349 -0.69875,0.41599 -0.091,0.078 -0.20799,0.078 -0.11698,0 -0.20151,-0.0845 z m -1.0985,-1.098487 q -0.0845,-0.0845 -0.0877,-0.20801 -0.004,-0.12348 0.0877,-0.20148 0.59151,-0.53302 1.33576,-0.8515 0.74425,-0.3185 1.57624,-0.3185 0.832,0 1.57623,0.3185 0.74425,0.31848 1.33576,0.8515 0.091,0.078 0.091,0.19825 0,0.12023 -0.091,0.21124 -0.0845,0.0845 -0.20475,0.0845 -0.12024,0 -0.21125,-0.078 -0.5395,-0.46149 -1.1635,-0.73123 -0.62399,-0.26976 -1.33249,-0.26976 -0.7085,0 -1.3325,0.26976 -0.624,0.26974 -1.1635,0.73123 -0.091,0.078 -0.21125,0.078 -0.12023,0 -0.20475,-0.0845 z m 2.912,2.794987 q -0.234,0 -0.40951,-0.1755 -0.17549,-0.17549 -0.17549,-0.40951 0,-0.23399 0.17549,-0.40949 0.17551,-0.1755 0.40951,-0.1755 0.23399,0 0.4095,0.1755 0.17549,0.1755 0.17549,0.40949 0,0.23402 -0.17549,0.40951 -0.17551,0.1755 -0.4095,0.1755 z"
       id="chipIcon9-5"
       class="chip-thumbnail"
       style="stroke-width:1" />
    <rect
       id="rect1150-9"
       class="chip-container"
       width="18.430166"
       height="6.5364285"
       x="79.258202"
       y="85.932129"
       ry="1.8747774" />
    <text
       xml:space="preserve"
       style="font-style:normal;font-weight:normal;font-size:4.4092px;line-height:125%;font-family:Roboto;letter-spacing:0px;word-spacing:0px;stroke-width:1"
       x="87.755669"
       y="90.933334"
       id="chipContainerText-0-2-2-1"
       class="chip-text"><tspan
         sodipodi:role="line"
         id="tspan5081-5-2-9-8-6-3-2"
         style="font-style:normal;font-variant:normal;font-weight:normal;font-stretch:normal;font-size:4.4092px;font-family:Roboto;-inkscape-font-specification:Roboto;stroke-width:1"
         x="87.755669"
         y="90.933334">WiFi</tspan></text>
    <path
       d="m 81.757758,89.610743 q -0.0845,-0.0845 -0.0877,-0.20475 -0.004,-0.12024 0.0877,-0.19825 0.4095,-0.3575 0.858,-0.53624 0.44849,-0.17875 0.9555,-0.17875 0.507,0 0.9555,0.17875 0.44849,0.17874 0.85799,0.53624 0.091,0.078 0.091,0.195 0,0.11698 -0.091,0.208 -0.0845,0.0845 -0.2015,0.0845 -0.11698,0 -0.208,-0.078 -0.35099,-0.29249 -0.69875,-0.41599 -0.34775,-0.12349 -0.70524,-0.12349 -0.3575,0 -0.70525,0.12349 -0.34775,0.12349 -0.69875,0.41599 -0.091,0.078 -0.20799,0.078 -0.11698,0 -0.20151,-0.0845 z m -1.0985,-1.0985 q -0.0845,-0.0845 -0.0877,-0.208 -0.004,-0.12348 0.0877,-0.20148 0.59151,-0.53302 1.33576,-0.8515 0.74425,-0.3185 1.57624,-0.3185 0.832,0 1.57623,0.3185 0.74425,0.31848 1.33576,0.8515 0.091,0.078 0.091,0.19825 0,0.12023 -0.091,0.21123 -0.0845,0.0845 -0.20475,0.0845 -0.12024,0 -0.21125,-0.078 -0.5395,-0.46149 -1.1635,-0.73123 -0.62399,-0.26976 -1.33249,-0.26976 -0.70849,0 -1.3325,0.26976 -0.624,0.26974 -1.16349,0.73123 -0.091,0.078 -0.21125,0.078 -0.12024,0 -0.20476,-0.0845 z m 2.912,2.795 q -0.234,0 -0.40951,-0.17551 -0.17549,-0.17549 -0.17549,-0.4095 0,-0.234 0.17549,-0.40949 0.17551,-0.1755 0.40951,-0.1755 0.23399,0 0.4095,0.1755 0.17549,0.17549 0.17549,0.40949 0,0.23401 -0.17549,0.4095 -0.17551,0.17551 -0.4095,0.17551 z"
       id="chipIcon9-7"
       class="chip-thumbnail"
       style="stroke-width:1" />
    <rect
       id="rect1154"
       class="chip-container"
       width="27.563665"
       height="6.4789629"
       x="13.012322"
       y="95.246689"
       ry="1.8747774" />
    <text
       xml:space="preserve"
       style="font-style:normal;font-weight:normal;font-size:4.4092px;line-height:125%;font-family:Roboto;letter-spacing:0px;word-spacing:0px;stroke-width:1"
       x="23.422417"
       y="100.20084"
       id="text10511"
       class="chip-text"><tspan
         sodipodi:role="line"
         id="tspan10509"
         style="font-style:normal;font-variant:normal;font-weight:normal;font-stretch:normal;font-size:4.4092px;font-family:Roboto;-inkscape-font-specification:Roboto;stroke-width:1"
         x="23.422417"
         y="100.20084">Parking</tspan></text>
    <path
       d="m 16.055798,99.92705 v 0.30758 q 0,0.11624 -0.0786,0.19138 -0.0786,0.0752 -0.1948,0.0752 -0.11624,0 -0.1948,-0.0786 -0.0786,-0.0786 -0.0786,-0.19479 v -2.14624 l 0.58098,-1.749787 q 0.0341,-0.0957 0.11274,-0.15038 0.0786,-0.0547 0.18113,-0.0547 h 3.1715 q 0.10248,0 0.18113,0.0547 0.0786,0.0547 0.11273,0.15038 l 0.581,1.749787 v 2.14624 q 0,0.11623 -0.0786,0.19479 -0.0786,0.0786 -0.1948,0.0786 -0.11624,0 -0.19822,-0.082 -0.082,-0.082 -0.082,-0.19821 v -0.29392 z m 0.0205,-2.255587 h 3.78666 l -0.37594,-1.13463 h -3.03479 z m 0.5673,1.503727 q 0.15721,0 0.26316,-0.10936 0.10599,-0.10936 0.10599,-0.25974 0,-0.15721 -0.10599,-0.26999 -0.10599,-0.11277 -0.26316,-0.11277 -0.1572,0 -0.26998,0.11277 -0.11273,0.11279 -0.11273,0.26999 0,0.15721 0.11273,0.26315 0.11274,0.10595 0.26998,0.10595 z m 2.65887,0 q 0.15721,0 0.26999,-0.10936 0.11273,-0.10936 0.11273,-0.25974 0,-0.15721 -0.11273,-0.26999 -0.11274,-0.11277 -0.26999,-0.11277 -0.1572,0 -0.26315,0.11277 -0.10599,0.11279 -0.10599,0.26999 0,0.15721 0.10936,0.26315 0.10936,0.10595 0.25973,0.10595 z"
       id="chipIcon5"
       class="chip-thumbnail"
       style="stroke-width:1" />
    <rect
       id="rect1148"
       class="chip-container"
       width="16.253754"
       height="6.5364285"
       x="35.68655"
       y="149.96355"
       ry="1.8747774" />
    <text
       xml:space="preserve"
       style="font-style:normal;font-weight:normal;font-size:4.4092px;line-height:125%;font-family:Roboto;letter-spacing:0px;word-spacing:0px;stroke-width:1"
       x="42.69833"
       y="154.94646"
       id="text8762"
       class="chip-text"><tspan
         sodipodi:role="line"
         id="tspan8760"
         style="font-style:normal;font-variant:normal;font-weight:normal;font-stretch:normal;font-size:4.4092px;font-family:Roboto;-inkscape-font-specification:Roboto;stroke-width:1"
         x="42.69833"
         y="154.94646">Spa</tspan></text>
    <path
       d="m 39.512598,155.20502 q -0.006,0.11949 -0.094,0.19072 -0.0882,0.0711 -0.20209,0.0427 -0.76853,-0.18217 -1.32357,-0.76282 -0.55504,-0.58067 -0.65752,-1.5712 -0.0113,-0.11386 0.0711,-0.19357 0.0825,-0.0797 0.1964,-0.0626 1.00762,0.13662 1.51712,0.79699 0.5095,0.66036 0.49242,1.55981 z m -0.18785,-4.03617 q 0.0626,-0.0967 0.17078,-0.0967 0.10811,0 0.17078,0.0967 0.26187,0.3928 0.44688,0.89661 0.18502,0.50381 0.1964,0.86246 -0.23909,0.0967 -0.46965,0.3501 -0.23056,0.25332 -0.35011,0.46965 -0.12524,-0.21633 -0.34441,-0.46965 -0.21918,-0.25333 -0.46396,-0.3501 0.0112,-0.36435 0.19925,-0.8653 0.18786,-0.50097 0.44404,-0.89377 z m 2.16324,1.67936 q 0.11386,-0.0171 0.1964,0.0626 0.0826,0.0797 0.0711,0.19356 -0.0967,0.97346 -0.6376,1.54273 -0.54081,0.56929 -1.27517,0.77422 0.0285,-0.32448 -0.0143,-0.68028 -0.0426,-0.35579 -0.14516,-0.62905 0.19924,-0.44403 0.65181,-0.80268 0.45258,-0.35864 1.15279,-0.46112 z"
       id="chipIcon6"
       class="chip-thumbnail"
       style="stroke-width:1" />
    <rect
       id="rect1148-3-3"
       class="chip-container"
       width="12.47146"
       height="6.5364285"
       x="102.39211"
       y="85.932129"
       ry="1.8747774" />
    <text
       xml:space="preserve"
       style="font-style:normal;font-weight:normal;font-size:4.4092px;line-height:125%;font-family:Roboto;letter-spacing:0px;word-spacing:0px;stroke-width:1"
       x="109.40389"
       y="90.915031"
       id="text8762-6-7"
       class="chip-text"><tspan
         sodipodi:role="line"
         id="tspan8760-0-5"
         style="font-style:normal;font-variant:normal;font-weight:normal;font-stretch:normal;font-size:4.4092px;font-family:Roboto;-inkscape-font-specification:Roboto;stroke-width:1"
         x="109.40389"
         y="90.915031">Sp</tspan></text>
    <path
       d="m 106.21817,91.173603 q -0.006,0.11948 -0.094,0.19071 -0.0882,0.0711 -0.20209,0.0427 -0.76853,-0.18217 -1.32357,-0.76283 -0.55504,-0.58066 -0.65752,-1.5712 -0.0112,-0.11386 0.0711,-0.19356 0.0825,-0.0797 0.1964,-0.0626 1.00762,0.13662 1.51712,0.79699 0.5095,0.66036 0.49241,1.55982 z m -0.18786,-4.03617 q 0.0626,-0.0967 0.17078,-0.0967 0.10812,0 0.17078,0.0967 0.26187,0.3928 0.44689,0.8966 0.18501,0.50382 0.1964,0.86246 -0.2391,0.0967 -0.46966,0.35011 -0.23056,0.25332 -0.35011,0.46964 -0.12523,-0.21632 -0.3444,-0.46964 -0.21918,-0.25333 -0.46396,-0.35011 0.0113,-0.36434 0.19925,-0.8653 0.18785,-0.50096 0.44403,-0.89376 z m 2.16325,1.67936 q 0.11386,-0.0171 0.1964,0.0626 0.0826,0.0797 0.0711,0.19356 -0.0967,0.97346 -0.6376,1.54273 -0.54081,0.56928 -1.27518,0.77422 0.0285,-0.32449 -0.0143,-0.68028 -0.0426,-0.3558 -0.14515,-0.62905 0.19924,-0.44404 0.65181,-0.80268 0.45258,-0.35865 1.15279,-0.46112 z"
       id="chipIcon6-6-9"
       class="chip-thumbnail"
       style="stroke-width:1" />
    <rect
       id="topappbarContainer-9-7"
       class="topappbar-container"
       width="108.73709"
       height="30.376324"
       x="3.8599906"
       y="4.4733729" />
    <rect
       style="mix-blend-mode:normal;fill:none;stroke-width:1"
       id="rect87126-2-5-2-6-8"
       width="108.73709"
       height="12.498516"
       x="3.8599601"
       y="4.4733729"
       class="device-statusbar" />
    <path
       d="m 106.39599,30.712759 q -0.50888,0 -0.87032,-0.36595 -0.36167,-0.366177 -0.36167,-0.87504 0,-0.06236 0.009,-0.151701 0.009,-0.08935 0.0357,-0.178472 l -2.26773,-1.321349 q -0.16948,0.178482 -0.39274,0.281107 -0.22326,0.10285 -0.4643,0.10285 -0.51766,0 -0.87932,-0.366169 -0.36146,-0.365957 -0.36146,-0.874822 0,-0.517869 0.36146,-0.879324 0.36166,-0.361675 0.87932,-0.361675 0.24104,0 0.4598,0.08935 0.21877,0.08935 0.39724,0.267827 l 2.26773,-1.312343 q -0.0267,-0.07134 -0.0357,-0.156195 -0.009,-0.08485 -0.009,-0.165201 0,-0.508863 0.36617,-0.870328 0.36596,-0.361665 0.87482,-0.361665 0.50886,0 0.87483,0.361665 0.36617,0.361465 0.36617,0.870328 0,0.51787 -0.36617,0.883828 -0.36597,0.365959 -0.88383,0.365959 -0.24105,0 -0.45958,-0.07588 -0.21876,-0.07588 -0.37947,-0.254327 l -2.27652,1.258782 q 0.0269,0.07134 0.0356,0.173978 0.009,0.102638 0.009,0.1652 0,0.07134 -0.009,0.147409 -0.009,0.07588 -0.0356,0.156194 l 2.27652,1.285564 q 0.16071,-0.169695 0.37047,-0.245541 0.20975,-0.07588 0.46858,-0.07588 0.51786,0 0.88383,0.361456 0.36617,0.361666 0.36617,0.879325 0,0.508864 -0.36617,0.875041 -0.36597,0.36595 -0.88383,0.36595 z m 0.009,-5.811811 q 0.18748,0 0.3169,-0.133909 0.12941,-0.133918 0.12941,-0.312398 0,-0.187478 -0.13391,-0.316885 -0.13392,-0.129632 -0.3124,-0.129632 -0.18748,0 -0.31689,0.129632 -0.12941,0.129407 -0.12941,0.316885 0,0.187485 0.12941,0.316892 0.12941,0.129415 0.31689,0.129415 z m -4.32099,2.508559 q 0.18748,0 0.3171,-0.129407 0.12943,-0.129414 0.12943,-0.316892 0,-0.187477 -0.13391,-0.316891 -0.13393,-0.129415 -0.31262,-0.129415 -0.18747,0 -0.31688,0.129415 -0.12943,0.129414 -0.12943,0.316891 0,0.187478 0.12943,0.316892 0.12941,0.129407 0.31688,0.129407 z m 4.32099,2.508779 q 0.18748,0 0.3169,-0.133909 0.12941,-0.133918 0.12941,-0.312608 0,-0.187478 -0.13391,-0.316893 -0.13392,-0.129414 -0.3124,-0.129414 -0.18748,0 -0.31689,0.129414 -0.12941,0.129415 -0.12941,0.316893 0,0.187476 0.12941,0.317102 0.12941,0.129415 0.31689,0.129415 z m 0,-5.463645 z m -4.32099,2.508567 z m 4.32099,2.508561 z"
       id="topappbarActionMenuItem-3-8"
       class="topappbar-actionmenuitem" />
    <path
       d="m 8.0406435,29.846094 q -0.23992,0 -0.41127,-0.171354 -0.17137,-0.171367 -0.17137,-0.411264 0,-0.228398 0.17137,-0.399752 0.17135,-0.171355 0.41127,-0.171355 h 7.3912395 q 0.23991,0 0.40551,0.171355 0.16561,0.171354 0.16561,0.411263 0,0.239909 -0.16561,0.405515 -0.1656,0.165592 -0.40551,0.165592 z m 0,-2.479105 q -0.23992,0 -0.41127,-0.171355 -0.17137,-0.171367 -0.17137,-0.411264 0,-0.228385 0.17137,-0.399752 0.17135,-0.171355 0.41127,-0.171355 h 7.3912395 q 0.23991,0 0.40551,0.171355 0.16561,0.171367 0.16561,0.411276 0,0.239897 -0.16561,0.405502 -0.1656,0.165593 -0.40551,0.165593 z m 0,-2.467582 q -0.23992,0 -0.41127,-0.171355 -0.17137,-0.171367 -0.17137,-0.411276 0,-0.239897 0.17137,-0.411251 0.17135,-0.171367 0.41127,-0.171367 h 7.3912395 q 0.23991,0 0.40551,0.177129 0.16561,0.177116 0.16561,0.405489 0,0.239909 -0.16561,0.411276 -0.1656,0.171355 -0.40551,0.171355 z"
       id="topappbarNavigationIcon-9-9"
       class="topappbar-navigationicon" />
    <text
       xml:space="preserve"
       style="font-style:normal;font-variant:normal;font-weight:normal;font-stretch:normal;font-size:6.17288px;line-height:125%;font-family:Roboto;-inkscape-font-specification:'Roboto, Normal';font-variant-ligatures:normal;font-variant-caps:normal;font-variant-numeric:normal;font-variant-east-asian:normal;letter-spacing:0px;word-spacing:0px"
       x="21.311346"
       y="28.475554"
       id="topappbarTitle-6-6"
       class="topappbar-title"><tspan
         sodipodi:role="line"
         id="tspan9212-1-9-1-7-7-0-0-0"
         style="font-style:normal;font-variant:normal;font-weight:normal;font-stretch:normal;font-size:6.17288px;font-family:Roboto;-inkscape-font-specification:'Roboto, Normal';font-variant-ligatures:normal;font-variant-caps:normal;font-variant-numeric:normal;font-variant-east-asian:normal;stroke-width:1"
         x="21.311346"
         y="28.475554">Hotel booking</tspan></text>
    <rect
       id="bottomsheetContainer-8"
       class="bottomsheet-container"
       width="107.76381"
       height="27.061197"
       x="4.3061743"
       y="158.35315" />
    <rect
       id="tabActiveIndicator-1-5-9"
       class="bottomsheet-draghandle"
       width="17.462608"
       height="1.4051198"
       x="49.456779"
       y="160.48158" />
    <text
       xml:space="preserve"
       style="font-style:normal;font-weight:normal;font-size:5.29103px;line-height:125%;font-family:Roboto;letter-spacing:0px;word-spacing:0px;stroke-width:1"
       x="18.143639"
       y="169.97253"
       id="backdropText-4-5-93"
       class="label-onsurface"><tspan
         sodipodi:role="line"
         id="tspan9212-1-9-1-56-0-7-1"
         x="18.143639"
         y="169.97253"
         style="stroke-width:1">Location</tspan></text>
    <text
       xml:space="preserve"
       x="18.143639"
       y="177.24771"
       id="text1057"
       class="label-onsurface"
       style="font-size:14.9982px;stroke-width:1"><tspan
         sodipodi:role="line"
         id="tspan1055"
         style="font-size:6.17288px;stroke-width:1"
         x="18.143639"
         y="177.24771">Germany</tspan></text>
    <text
       xml:space="preserve"
       x="71.05468"
       y="169.97253"
       id="text1945"
       class="label-onsurface"
       style="font-size:14.9982px;stroke-width:1"><tspan
         sodipodi:role="line"
         id="tspan1943"
         style="font-size:5.29103px;stroke-width:1"
         x="71.05468"
         y="169.97253">Duration</tspan></text>
    <g
       id="g412"
       transform="matrix(1.2498516,0,0,1.2498516,-400.70244,-34.445187)"
       style="stroke-width:0.800095">
      <rect
         id="rect87126-7-4-9-68"
         width="87"
         height="11.86814"
         x="323.31622"
         y="175.54401"
         ry="0"
         class="device-frame"
         style="stroke-width:0.800095" />
      <path
         d="m 344.5815,186.2616 -3.49435,-3.49436 3.49435,-3.49434 0.64743,0.65571 -2.83864,2.83863 2.83864,2.83864 z"
         id="path86606-8-2-2-6"
         class="device-button"
         style="stroke-width:0.800095" />
      <path
         d="m 387.51666,185.93375 v -6.33299 h 6.33299 v 6.33299 z m 0.75528,-0.75531 h 4.81407 v -4.81409 h -4.81407 z m 0,0 v -4.81409 z"
         id="path84114-7-2-5-87"
         class="device-button"
         style="stroke-width:0.800095" />
      <path
         d="m 367.07754,186.26575 q -0.72212,0 -1.3612,-0.26974 -0.63912,-0.26978 -1.11638,-0.74703 -0.47726,-0.47728 -0.74699,-1.11634 -0.26979,-0.63913 -0.26979,-1.36124 0,-0.72212 0.26979,-1.36121 0.26973,-0.63911 0.74699,-1.11638 0.47726,-0.47725 1.11638,-0.75114 0.63908,-0.27392 1.35291,-0.27392 0.7304,0 1.37369,0.27392 0.64323,0.27389 1.11632,0.75114 0.47312,0.47727 0.74705,1.11638 0.27387,0.63909 0.27387,1.3695 0,0.71382 -0.27387,1.35295 -0.27393,0.63906 -0.75119,1.11634 -0.47726,0.47725 -1.11634,0.74703 -0.63913,0.26974 -1.36124,0.26974 z m 0,-0.75532 q 1.13713,0 1.93807,-0.80097 0.80097,-0.80093 0.80097,-1.93806 0,-1.13714 -0.80097,-1.93807 -0.80094,-0.80094 -1.93807,-0.80094 -1.13713,0 -1.93807,0.80094 -0.80095,0.80093 -0.80095,1.93807 0,1.13713 0.80095,1.93806 0.80094,0.80097 1.93807,0.80097 z m 0,-2.73903 z"
         id="path85723-0-0-4-9"
         class="device-button"
         style="stroke-width:0.800095" />
      <g
         id="g3843"
         transform="translate(77.384079)"
         style="stroke-width:0.800095">
        <path
           d="m 304.97658,35.44219 q 0.35444,-0.270278 0.75977,-0.42047 0.40549,-0.150199 0.8679,-0.150199 0.46241,0 0.87091,0.150199 0.40836,0.150192 0.76266,0.42047 l 0.66667,-0.660757 q -0.50449,-0.390342 -1.08106,-0.609589 -0.57658,-0.219239 -1.21918,-0.219239 -0.6426,0 -1.21917,0.219239 -0.57657,0.219247 -1.08107,0.609589 z m 1.62767,2.108094 q -0.0422,0 -0.0751,-0.01208 -0.033,-0.012 -0.063,-0.04192 l -2.60675,-2.606699 q -0.0599,-0.05992 -0.057,-0.141119 0.003,-0.081 0.0632,-0.135056 0.57052,-0.504509 1.26731,-0.78386 0.69665,-0.279199 1.47142,-0.279199 0.77478,0 1.47142,0.279199 0.6968,0.279351 1.26732,0.78386 0.0602,0.05408 0.063,0.135056 0.003,0.08116 -0.057,0.141119 l -2.60668,2.606699 q -0.0299,0.02992 -0.063,0.04192 -0.033,0.01208 -0.0751,0.01208 z"
           id="path3829"
           class="device-statusbar-labeltext"
           style="stroke-width:0.800095" />
        <path
           d="m 313.72916,37.194574 h 1.11485 v -3.041961 l -1.11485,1.114858 z m -2.35191,0.355742 q -0.11671,0 -0.16181,-0.108943 -0.0452,-0.108808 0.0344,-0.193663 l 3.64717,-3.641951 q 0.085,-0.08486 0.19379,-0.03984 0.10882,0.04504 0.10882,0.161944 v 3.647174 q 0,0.07424 -0.0505,0.124743 -0.0503,0.05048 -0.12996,0.05048 z"
           id="path3831"
           class="device-statusbar-labeltext"
           style="stroke-width:0.800095" />
        <path
           d="m 328.79464,37.550308 q -0.0701,0 -0.11761,-0.04752 -0.0474,-0.04752 -0.0474,-0.117479 v -3.319952 q 0,-0.07496 0.0474,-0.122519 0.0475,-0.04752 0.11761,-0.04752 h 0.43498 v -0.179991 q 0,-0.07 0.0474,-0.11748 0.0475,-0.04752 0.1176,-0.04752 h 0.46991 q 0.0701,0 0.11759,0.04752 0.0474,0.04752 0.0474,0.11748 v 0.179991 h 0.43499 q 0.0701,0 0.1176,0.04752 0.0474,0.04752 0.0474,0.122519 v 3.319952 q 0,0.07 -0.0474,0.117479 -0.0475,0.04752 -0.1176,0.04752 z m 0.16991,-1.61504 h 1.33005 v -1.704912 h -1.33005 z"
           id="path3833"
           class="device-statusbar-labeltext"
           style="stroke-width:0.800095" />
        <text
           xml:space="preserve"
           style="font-style:normal;font-variant:normal;font-weight:bold;font-stretch:normal;font-size:4.93889px;line-height:125%;font-family:Roboto;-inkscape-font-specification:'Sans, Bold';font-variant-ligatures:normal;font-variant-caps:normal;font-variant-numeric:normal;font-variant-east-asian:normal;letter-spacing:0px;word-spacing:0px;stroke-width:0.800095"
           x="318.27667"
           y="37.471352"
           id="text3837"
           class="device-statusbar-labeltext"><tspan
             sodipodi:role="line"
             id="tspan3835"
             style="font-style:normal;font-variant:normal;font-weight:500;font-stretch:normal;font-size:4.93889px;font-family:Roboto;-inkscape-font-specification:'Roboto Medium';font-variant-ligatures:normal;font-variant-caps:normal;font-variant-numeric:normal;font-variant-east-asian:normal;stroke-width:0.800095"
             x="318.27667"
             y="37.471352">72%</tspan></text>
        <text
           xml:space="preserve"
           style="font-style:normal;font-variant:normal;font-weight:bold;font-stretch:normal;font-size:4.93889px;line-height:125%;font-family:Roboto;-inkscape-font-specification:'Sans, Bold';font-variant-ligatures:normal;font-variant-caps:normal;font-variant-numeric:normal;font-variant-east-asian:normal;letter-spacing:0px;word-spacing:0px;stroke-width:0.800095"
           x="248.42583"
           y="37.471352"
           id="text3841"
           class="device-statusbar-labeltext"><tspan
             sodipodi:role="line"
             id="tspan3839"
             style="font-style:normal;font-variant:normal;font-weight:500;font-stretch:normal;font-size:4.93889px;font-family:Roboto;-inkscape-font-specification:'Roboto Medium';font-variant-ligatures:normal;font-variant-caps:normal;font-variant-numeric:normal;font-variant-east-asian:normal;stroke-width:0.800095"
             x="248.42583"
             y="37.471352">12:30</tspan></text>
      </g>
      <path
         style="color:#000000;fill:#000000;stroke-width:0.800095;stroke-linecap:square;-inkscape-stroke:none"
         d="m 325.8388,27.570325 c -2.84285,0 -5.22461,2.381761 -5.22461,5.224609 V 185.34375 c 0,2.84285 2.38176,5.22657 5.22461,5.22657 h 82.55078 c 2.84285,0 5.22461,-2.38372 5.22461,-5.22657 V 32.794934 c 0,-2.842848 -2.38176,-5.224609 -5.22461,-5.224609 z m 0.66081,3.354166 c 0,0 79.63141,0.01523 81.22916,0 1.59775,-0.01523 2.53125,1.059019 2.53125,2.602083 0,0 -0.007,149.479706 0,151.087496 0.007,1.60779 -0.98468,2.60208 -2.53125,2.60208 -1.54657,0 -79.63141,-0.0153 -81.22916,0 -1.59775,0.0152 -2.53125,-1.05901 -2.53125,-2.60208 V 33.526574 c 0,-1.754401 0.78627,-2.602083 2.53125,-2.602083 z"
         id="path3123-6"
         sodipodi:nodetypes="sssssssssszzzzzzss"
         class="device-frame" />
    </g>
    <text
       xml:space="preserve"
       x="71.05468"
       y="177.24771"
       id="text1949"
       class="label-onsurface"
       style="font-size:14.9982px;stroke-width:1"><tspan
         sodipodi:role="line"
         id="tspan1947"
         style="font-size:6.17288px;stroke-width:1"
         x="71.05468"
         y="177.24771">6 Nights</tspan></text>
  </g>
</svg>
