<?xml version="1.0" encoding="UTF-8" standalone="no"?>
<svg
   height="1747.5326"
   id="svg8"
   version="1.1"
   viewBox="0 0 92.999999 174.75326"
   width="930"
   inkscape:version="1.2.1 (9c6d41e410, 2022-07-14, custom)"
   sodipodi:docname="mockup3.svg"
   xmlns:inkscape="http://www.inkscape.org/namespaces/inkscape"
   xmlns:sodipodi="http://sodipodi.sourceforge.net/DTD/sodipodi-0.dtd"
   xmlns="http://www.w3.org/2000/svg"
   xmlns:svg="http://www.w3.org/2000/svg"
   xmlns:rdf="http://www.w3.org/1999/02/22-rdf-syntax-ns#"
   xmlns:cc="http://creativecommons.org/ns#"
   xmlns:dc="http://purl.org/dc/elements/1.1/">
  <style
     id="style"><!-- needed for Inkscape only, must be removed by build process -->

     @import url(mockstyle_inkscape.css);
  </style>
  <defs
     id="defs2" />
  <sodipodi:namedview
     bordercolor="#666666"
     borderopacity="1.0"
     id="base"
     pagecolor="#ffffff"
     showgrid="false"
     inkscape:bbox-nodes="true"
     inkscape:bbox-paths="true"
     inkscape:current-layer="layer1"
     inkscape:cx="191.60639"
     inkscape:cy="842.01342"
     inkscape:document-rotation="0"
     inkscape:document-units="mm"
     inkscape:pageopacity="0.0"
     inkscape:pageshadow="2"
     inkscape:snap-bbox="true"
     inkscape:snap-bbox-edge-midpoints="true"
     inkscape:snap-bbox-midpoints="true"
     inkscape:snap-global="false"
     inkscape:window-height="708"
     inkscape:window-maximized="1"
     inkscape:window-width="1366"
     inkscape:window-x="0"
     inkscape:window-y="0"
     inkscape:zoom="0.28443727"
     inkscape:showpageshadow="2"
     inkscape:pagecheckerboard="0"
     inkscape:deskcolor="#d1d1d1" />
  <metadata
     id="metadata5">
    <rdf:RDF>
      <cc:Work
         rdf:about="">
        <dc:format>image/svg+xml</dc:format>
        <dc:type
           rdf:resource="http://purl.org/dc/dcmitype/StillImage" />
      </cc:Work>
    </rdf:RDF>
  </metadata>
  <g
     id="layer1"
     transform="translate(-220.10688,-27.02866)"
     inkscape:groupmode="layer"
     inkscape:label="Ebene 1">
    <rect
       id="deviceBackground-0-0-1-4-9-2"
       class="device-background"
       width="86.249977"
       height="157"
       x="223.52888"
       y="30.510599"
       ry="2.2251673" />
    <text
       xml:space="preserve"
       style="font-style:normal;font-weight:normal;font-size:6.94587px;line-height:125%;font-family:Roboto;letter-spacing:0px;word-spacing:0px;fill:#000000"
       x="240.5675"
       y="200.29982"
       id="text9214-7-0-6"
       class="mock-description"><tspan
         sodipodi:role="line"
         x="240.5675"
         y="200.29982"
         id="tspan173836">Music Player</tspan></text>
    <rect
       id="listContainer1"
       class="container-surface"
       width="87"
       height="89.795425"
       x="223.20505"
       y="72.621574"
       ry="0" />
    <circle
       cx="233.19005"
       cy="160.15544"
       id="iconButtonContainer-1-27"
       class="iconbutton-tonal-container"
       r="5.8994169" />
    <path
       d="m 232.46505,163.1554 q -0.525,0 -0.8875,-0.3625 -0.3625,-0.3625 -0.3625,-0.8875 0,-0.525 0.3625,-0.8875 0.3625,-0.3625 0.8875,-0.3625 0.23333,0 0.42083,0.0667 0.1875,0.0667 0.32917,0.18334 v -3.25 q 0,-0.20833 0.14583,-0.35417 0.14584,-0.14583 0.35417,-0.14583 h 0.89167 q 0.23333,0 0.39583,0.1625 0.1625,0.1625 0.1625,0.39583 0,0.23334 -0.1625,0.4 -0.1625,0.16667 -0.39583,0.16667 h -0.89167 v 3.625 q 0,0.525 -0.3625,0.8875 -0.3625,0.3625 -0.8875,0.3625 z"
       id="iconButtonIcon-1-0"
       class="iconbutton-tonal-icon" />
    <text
       xml:space="preserve"
       style="font-style:normal;font-weight:normal;font-size:4.23333px;line-height:125%;font-family:Roboto;letter-spacing:0px;word-spacing:0px"
       x="244.07512"
       y="86.434837"
       id="backdropText-4-5"
       class="label-onsurface"><tspan
         sodipodi:role="line"
         id="tspan9212-1-9-1-56-0-7"
         style="font-size:4.23333px"
         x="244.07512"
         y="86.434837">Queen</tspan></text>
    <text
       xml:space="preserve"
       style="font-style:normal;font-weight:normal;font-size:4.23333px;line-height:125%;font-family:Roboto;letter-spacing:0px;word-spacing:0px"
       x="244.07512"
       y="106.1212"
       id="backdropText-4-5-4"
       class="label-onsurface"><tspan
         sodipodi:role="line"
         id="tspan9212-1-9-1-56-0-7-9"
         style="font-size:4.23333px"
         x="244.07512"
         y="106.1212">Stairway to Heaven</tspan></text>
    <text
       xml:space="preserve"
       style="font-style:normal;font-weight:normal;font-size:4.23333px;line-height:125%;font-family:Roboto;letter-spacing:0px;word-spacing:0px"
       x="244.07512"
       y="125.80758"
       id="backdropText-4-5-9"
       class="label-onsurface"><tspan
         sodipodi:role="line"
         id="tspan9212-1-9-1-56-0-7-4"
         style="font-size:4.23333px"
         x="244.07512"
         y="125.80758">I Can't Get No Satisfaction</tspan></text>
    <text
       xml:space="preserve"
       style="font-style:normal;font-weight:normal;font-size:4.23333px;line-height:125%;font-family:Roboto;letter-spacing:0px;word-spacing:0px"
       x="244.07512"
       y="144.96474"
       id="backdropText-4-5-5"
       class="label-onsurface"><tspan
         sodipodi:role="line"
         id="tspan9212-1-9-1-56-0-7-93"
         style="font-size:4.23333px"
         x="244.07512"
         y="144.96474">I Wanna Hold Your Hand</tspan></text>
    <text
       xml:space="preserve"
       style="font-style:normal;font-variant:normal;font-weight:normal;font-stretch:normal;font-size:4.93889px;line-height:125%;font-family:Roboto;-inkscape-font-specification:'Roboto, Normal';font-variant-ligatures:normal;font-variant-caps:normal;font-variant-numeric:normal;font-variant-east-asian:normal;letter-spacing:0px;word-spacing:0px"
       x="244.06551"
       y="80.206848"
       id="backdropText-4-3"
       class="label-onsurface"><tspan
         sodipodi:role="line"
         id="tspan9212-1-9-1-56-0-0"
         style="font-style:normal;font-variant:normal;font-weight:normal;font-stretch:normal;font-size:4.93889px;font-family:Roboto;-inkscape-font-specification:'Roboto, Normal';font-variant-ligatures:normal;font-variant-caps:normal;font-variant-numeric:normal;font-variant-east-asian:normal"
         x="244.06551"
         y="80.206848">1. Bohemian Rhapsody</tspan></text>
    <text
       xml:space="preserve"
       style="font-style:normal;font-variant:normal;font-weight:normal;font-stretch:normal;font-size:4.93889px;line-height:125%;font-family:Roboto;-inkscape-font-specification:'Roboto, Normal';font-variant-ligatures:normal;font-variant-caps:normal;font-variant-numeric:normal;font-variant-east-asian:normal;letter-spacing:0px;word-spacing:0px"
       x="244.16676"
       y="99.949585"
       id="backdropText-4-3-1"
       class="label-onsurface"><tspan
         sodipodi:role="line"
         id="tspan9212-1-9-1-56-0-0-7"
         style="font-style:normal;font-variant:normal;font-weight:normal;font-stretch:normal;font-size:4.93889px;font-family:Roboto;-inkscape-font-specification:'Roboto, Normal';font-variant-ligatures:normal;font-variant-caps:normal;font-variant-numeric:normal;font-variant-east-asian:normal"
         x="244.16676"
         y="99.949585">2. Led Zeppelin</tspan></text>
    <text
       xml:space="preserve"
       style="font-style:normal;font-variant:normal;font-weight:normal;font-stretch:normal;font-size:4.93889px;line-height:125%;font-family:Roboto;-inkscape-font-specification:'Roboto, Normal';font-variant-ligatures:normal;font-variant-caps:normal;font-variant-numeric:normal;font-variant-east-asian:normal;letter-spacing:0px;word-spacing:0px"
       x="244.17415"
       y="119.69228"
       id="backdropText-4-3-8"
       class="label-onsurface"><tspan
         sodipodi:role="line"
         id="tspan9212-1-9-1-56-0-0-9"
         style="font-style:normal;font-variant:normal;font-weight:normal;font-stretch:normal;font-size:4.93889px;font-family:Roboto;-inkscape-font-specification:'Roboto, Normal';font-variant-ligatures:normal;font-variant-caps:normal;font-variant-numeric:normal;font-variant-east-asian:normal"
         x="244.17415"
         y="119.69228">3. The Rolling Stones</tspan></text>
    <text
       xml:space="preserve"
       style="font-style:normal;font-variant:normal;font-weight:normal;font-stretch:normal;font-size:4.93889px;line-height:125%;font-family:Roboto;-inkscape-font-specification:'Roboto, Normal';font-variant-ligatures:normal;font-variant-caps:normal;font-variant-numeric:normal;font-variant-east-asian:normal;letter-spacing:0px;word-spacing:0px"
       x="244.23341"
       y="138.90587"
       id="backdropText-4-3-15"
       class="label-onsurface"><tspan
         sodipodi:role="line"
         id="tspan9212-1-9-1-56-0-0-4"
         style="font-style:normal;font-variant:normal;font-weight:normal;font-stretch:normal;font-size:4.93889px;font-family:Roboto;-inkscape-font-specification:'Roboto, Normal';font-variant-ligatures:normal;font-variant-caps:normal;font-variant-numeric:normal;font-variant-east-asian:normal"
         x="244.23341"
         y="138.90587">4. The Beatles</tspan></text>
    <text
       xml:space="preserve"
       style="font-style:normal;font-variant:normal;font-weight:normal;font-stretch:normal;font-size:4.93889px;line-height:125%;font-family:Roboto;-inkscape-font-specification:'Roboto, Normal';font-variant-ligatures:normal;font-variant-caps:normal;font-variant-numeric:normal;font-variant-east-asian:normal;letter-spacing:0px;word-spacing:0px"
       x="244.12971"
       y="158.64859"
       id="backdropText-4-3-9"
       class="label-onsurface"><tspan
         sodipodi:role="line"
         id="tspan9212-1-9-1-56-0-0-2"
         style="font-style:normal;font-variant:normal;font-weight:normal;font-stretch:normal;font-size:4.93889px;font-family:Roboto;-inkscape-font-specification:'Roboto, Normal';font-variant-ligatures:normal;font-variant-caps:normal;font-variant-numeric:normal;font-variant-east-asian:normal"
         x="244.12971"
         y="158.64859">5. Nirvana</tspan></text>
    <rect
       id="tabContainer-6-6"
       class="tab-container"
       width="87"
       height="18.051004"
       x="223.20505"
       y="54.570572"
       ry="0" />
    <rect
       id="tabActiveIndicator-1-5"
       class="tab-active-tabindicator"
       width="28"
       height="1.1242293"
       x="223.20505"
       y="71.497345"
       ry="0" />
    <text
       xml:space="preserve"
       style="font-style:normal;font-variant:normal;font-weight:bold;font-stretch:normal;font-size:3.52778px;line-height:125%;font-family:Roboto;-inkscape-font-specification:'Roboto, Bold';font-variant-ligatures:normal;font-variant-caps:normal;font-variant-numeric:normal;font-variant-east-asian:normal;letter-spacing:0px;word-spacing:0px"
       x="231.84988"
       y="68.73735"
       id="tabActiveLabel-1-2"
       class="tab-active-textlabel"><tspan
         sodipodi:role="line"
         id="tspan9212-1-9-1-8-6-5-6"
         style="font-style:normal;font-variant:normal;font-weight:bold;font-stretch:normal;font-size:3.52778px;font-family:Roboto;-inkscape-font-specification:'Roboto, Bold';font-variant-ligatures:normal;font-variant-caps:normal;font-variant-numeric:normal;font-variant-east-asian:normal"
         x="231.84988"
         y="68.73735">SONGS</tspan></text>
    <text
       xml:space="preserve"
       style="font-style:normal;font-variant:normal;font-weight:bold;font-stretch:normal;font-size:3.52778px;line-height:125%;font-family:Roboto;-inkscape-font-specification:'Roboto, Bold';font-variant-ligatures:normal;font-variant-caps:normal;font-variant-numeric:normal;font-variant-east-asian:normal;letter-spacing:0px;word-spacing:0px"
       x="285.18405"
       y="68.758514"
       id="tabInactiveLabel2-1-5"
       class="tab-inactive-textlabel"><tspan
         sodipodi:role="line"
         id="tspan9212-1-9-1-8-5-4-4-8"
         style="font-style:normal;font-variant:normal;font-weight:bold;font-stretch:normal;font-size:3.52778px;font-family:Roboto;-inkscape-font-specification:'Roboto, Bold';font-variant-ligatures:normal;font-variant-caps:normal;font-variant-numeric:normal;font-variant-east-asian:normal"
         x="285.18405"
         y="68.758514">EQUALIZER</tspan></text>
    <rect
       id="topappbarContainer-9-7"
       class="topappbar-container"
       width="87"
       height="24.303944"
       x="223.20505"
       y="30.266626" />
    <rect
       style="mix-blend-mode:normal;fill:#000000;fill-opacity:0.598419"
       id="rect87126-2-5-2-6-8"
       width="87"
       height="10"
       x="223.20502"
       y="30.266626"
       class="device-statusbar" />
    <path
       d="m 305.24359,51.260629 q -0.40715,0 -0.69634,-0.292795 -0.28937,-0.292976 -0.28937,-0.700115 0,-0.04989 0.007,-0.121375 0.007,-0.07149 0.0286,-0.142795 l -1.8144,-1.057204 q -0.1356,0.142802 -0.31423,0.224912 -0.17863,0.08229 -0.37149,0.08229 -0.41417,0 -0.70354,-0.29297 -0.2892,-0.292801 -0.2892,-0.699941 0,-0.414344 0.2892,-0.703543 0.28937,-0.289374 0.70354,-0.289374 0.19286,0 0.36789,0.07149 0.17503,0.07149 0.31783,0.214287 l 1.8144,-1.049999 q -0.0214,-0.05708 -0.0286,-0.124971 -0.007,-0.06789 -0.007,-0.132176 0,-0.407139 0.29297,-0.696345 0.2928,-0.289367 0.69994,-0.289367 0.40714,0 0.69995,0.289367 0.29297,0.289206 0.29297,0.696345 0,0.414345 -0.29297,0.707146 -0.29281,0.292802 -0.70715,0.292802 -0.19286,0 -0.36771,-0.06071 -0.17503,-0.06071 -0.30361,-0.203486 l -1.82143,1.007145 q 0.0215,0.05708 0.0285,0.139199 0.007,0.08212 0.007,0.132176 0,0.05708 -0.007,0.117941 -0.007,0.06071 -0.0285,0.12497 l 1.82143,1.028573 q 0.12858,-0.135772 0.29641,-0.196456 0.16782,-0.06071 0.37491,-0.06071 0.41434,0 0.70715,0.289199 0.29297,0.289367 0.29297,0.703543 0,0.40714 -0.29297,0.700116 -0.29281,0.292795 -0.70715,0.292795 z m 0.007,-4.650001 q 0.15,0 0.25355,-0.10714 0.10354,-0.107147 0.10354,-0.249948 0,-0.15 -0.10714,-0.253538 -0.10715,-0.103718 -0.24995,-0.103718 -0.15,0 -0.25354,0.103718 -0.10354,0.103538 -0.10354,0.253538 0,0.150006 0.10354,0.253544 0.10354,0.103544 0.25354,0.103544 z m -3.4572,2.007086 q 0.15,0 0.25371,-0.103538 0.10355,-0.103544 0.10355,-0.253544 0,-0.149999 -0.10714,-0.253543 -0.10715,-0.103544 -0.25012,-0.103544 -0.15,0 -0.25354,0.103544 -0.10355,0.103544 -0.10355,0.253543 0,0.15 0.10355,0.253544 0.10354,0.103538 0.25354,0.103538 z m 3.4572,2.007261 q 0.15,0 0.25355,-0.10714 0.10354,-0.107147 0.10354,-0.250116 0,-0.15 -0.10714,-0.253544 -0.10715,-0.103544 -0.24995,-0.103544 -0.15,0 -0.25354,0.103544 -0.10354,0.103544 -0.10354,0.253544 0,0.149999 0.10354,0.253712 0.10354,0.103544 0.25354,0.103544 z m 0,-4.371435 z m -3.4572,2.007092 z m 3.4572,2.007087 z"
       id="topappbarActionMenuItem-3-8"
       class="topappbar-actionmenuitem" />
    <path
       d="m 226.54997,50.567215 q -0.19196,0 -0.32906,-0.1371 -0.13711,-0.13711 -0.13711,-0.32905 0,-0.18274 0.13711,-0.31984 0.1371,-0.1371 0.32906,-0.1371 h 5.91369 q 0.19195,0 0.32445,0.1371 0.1325,0.1371 0.1325,0.32905 0,0.19195 -0.1325,0.32445 -0.1325,0.13249 -0.32445,0.13249 z m 0,-1.98352 q -0.19196,0 -0.32906,-0.1371 -0.13711,-0.13711 -0.13711,-0.32905 0,-0.18273 0.13711,-0.31984 0.1371,-0.1371 0.32906,-0.1371 h 5.91369 q 0.19195,0 0.32445,0.1371 0.1325,0.13711 0.1325,0.32906 0,0.19194 -0.1325,0.32444 -0.1325,0.13249 -0.32445,0.13249 z m 0,-1.9743 q -0.19196,0 -0.32906,-0.1371 -0.13711,-0.13711 -0.13711,-0.32906 0,-0.19194 0.13711,-0.32904 0.1371,-0.13711 0.32906,-0.13711 h 5.91369 q 0.19195,0 0.32445,0.14172 0.1325,0.14171 0.1325,0.32443 0,0.19195 -0.1325,0.32906 -0.1325,0.1371 -0.32445,0.1371 z"
       id="topappbarNavigationIcon-9-9"
       class="topappbar-navigationicon" />
    <path
       d="m 304.42429,84.529149 q -0.2385,0 -0.4111,-0.140387 -0.17261,-0.140387 -0.17261,-0.338966 0,-0.19184 0.16866,-0.339132 0.16846,-0.14729 0.40676,-0.14729 0.23829,0 0.40676,0.14729 0.16866,0.147292 0.16866,0.339132 0,0.198579 -0.16452,0.338966 -0.16432,0.140387 -0.40261,0.140387 z m 0,-2.020483 q -0.2385,0 -0.4111,-0.140552 -0.17261,-0.140385 -0.17261,-0.338965 0,-0.19858 0.16866,-0.338966 0.16846,-0.140552 0.40676,-0.140552 0.23829,0 0.40676,0.137099 0.16866,0.136934 0.16866,0.335514 0,0.198745 -0.16452,0.342584 -0.16432,0.143838 -0.40261,0.143838 z m 0,-2.013743 q -0.2385,0 -0.4111,-0.143839 -0.17261,-0.143838 -0.17261,-0.342582 0,-0.205484 0.16866,-0.342418 0.16846,-0.136935 0.40676,-0.136935 0.23829,0 0.40676,0.140386 0.16866,0.140387 0.16866,0.338967 0,0.198744 -0.16452,0.342582 -0.16432,0.143839 -0.40261,0.143839 z"
       id="topappbarActionMenuItem-2-4-9"
       class="button-text-labeltext" />
    <path
       d="m 304.42429,103.8712 q -0.2385,0 -0.4111,-0.14039 -0.17261,-0.14039 -0.17261,-0.33896 0,-0.19184 0.16866,-0.33914 0.16846,-0.14729 0.40676,-0.14729 0.23829,0 0.40676,0.14729 0.16866,0.1473 0.16866,0.33914 0,0.19857 -0.16452,0.33896 -0.16432,0.14039 -0.40261,0.14039 z m 0,-2.02048 q -0.2385,0 -0.4111,-0.14056 -0.17261,-0.14038 -0.17261,-0.33896 0,-0.19858 0.16866,-0.33897 0.16846,-0.14055 0.40676,-0.14055 0.23829,0 0.40676,0.1371 0.16866,0.13693 0.16866,0.33551 0,0.19875 -0.16452,0.34259 -0.16432,0.14384 -0.40261,0.14384 z m 0,-2.013747 q -0.2385,0 -0.4111,-0.14384 -0.17261,-0.14383 -0.17261,-0.342577 0,-0.20549 0.16866,-0.34242 0.16846,-0.136937 0.40676,-0.136937 0.23829,0 0.40676,0.140387 0.16866,0.14039 0.16866,0.33897 0,0.198747 -0.16452,0.342577 -0.16432,0.14384 -0.40261,0.14384 z"
       id="topappbarActionMenuItem-2-4-9-3"
       class="button-text-labeltext" />
    <path
       d="m 304.42429,123.21325 q -0.2385,0 -0.4111,-0.14039 -0.17261,-0.14039 -0.17261,-0.33897 0,-0.19184 0.16866,-0.33913 0.16846,-0.14729 0.40676,-0.14729 0.23829,0 0.40676,0.14729 0.16866,0.14729 0.16866,0.33913 0,0.19858 -0.16452,0.33897 -0.16432,0.14039 -0.40261,0.14039 z m 0,-2.02049 q -0.2385,0 -0.4111,-0.14055 -0.17261,-0.14038 -0.17261,-0.33896 0,-0.19858 0.16866,-0.33897 0.16846,-0.14055 0.40676,-0.14055 0.23829,0 0.40676,0.1371 0.16866,0.13693 0.16866,0.33551 0,0.19875 -0.16452,0.34259 -0.16432,0.14383 -0.40261,0.14383 z m 0,-2.01374 q -0.2385,0 -0.4111,-0.14384 -0.17261,-0.14384 -0.17261,-0.34258 0,-0.20548 0.16866,-0.34242 0.16846,-0.13693 0.40676,-0.13693 0.23829,0 0.40676,0.14038 0.16866,0.14039 0.16866,0.33897 0,0.19874 -0.16452,0.34258 -0.16432,0.14384 -0.40261,0.14384 z"
       id="topappbarActionMenuItem-2-4-9-9"
       class="button-text-labeltext" />
    <path
       d="m 304.42429,142.55531 q -0.2385,0 -0.4111,-0.14039 -0.17261,-0.14038 -0.17261,-0.33896 0,-0.19184 0.16866,-0.33913 0.16846,-0.14729 0.40676,-0.14729 0.23829,0 0.40676,0.14729 0.16866,0.14729 0.16866,0.33913 0,0.19858 -0.16452,0.33896 -0.16432,0.14039 -0.40261,0.14039 z m 0,-2.02048 q -0.2385,0 -0.4111,-0.14055 -0.17261,-0.14039 -0.17261,-0.33897 0,-0.19858 0.16866,-0.33896 0.16846,-0.14056 0.40676,-0.14056 0.23829,0 0.40676,0.1371 0.16866,0.13694 0.16866,0.33552 0,0.19874 -0.16452,0.34258 -0.16432,0.14384 -0.40261,0.14384 z m 0,-2.01374 q -0.2385,0 -0.4111,-0.14384 -0.17261,-0.14384 -0.17261,-0.34259 0,-0.20548 0.16866,-0.34241 0.16846,-0.13694 0.40676,-0.13694 0.23829,0 0.40676,0.14039 0.16866,0.14039 0.16866,0.33897 0,0.19874 -0.16452,0.34258 -0.16432,0.14384 -0.40261,0.14384 z"
       id="topappbarActionMenuItem-2-4-9-2"
       class="button-text-labeltext" />
    <path
       d="m 304.42429,161.89736 q -0.2385,0 -0.4111,-0.14039 -0.17261,-0.14039 -0.17261,-0.33896 0,-0.19184 0.16866,-0.33914 0.16846,-0.14729 0.40676,-0.14729 0.23829,0 0.40676,0.14729 0.16866,0.1473 0.16866,0.33914 0,0.19857 -0.16452,0.33896 -0.16432,0.14039 -0.40261,0.14039 z m 0,-2.02048 q -0.2385,0 -0.4111,-0.14056 -0.17261,-0.14038 -0.17261,-0.33896 0,-0.19858 0.16866,-0.33897 0.16846,-0.14055 0.40676,-0.14055 0.23829,0 0.40676,0.1371 0.16866,0.13693 0.16866,0.33551 0,0.19875 -0.16452,0.34259 -0.16432,0.14384 -0.40261,0.14384 z m 0,-2.01375 q -0.2385,0 -0.4111,-0.14384 -0.17261,-0.14383 -0.17261,-0.34258 0,-0.20548 0.16866,-0.34242 0.16846,-0.13693 0.40676,-0.13693 0.23829,0 0.40676,0.14038 0.16866,0.14039 0.16866,0.33897 0,0.19875 -0.16452,0.34258 -0.16432,0.14384 -0.40261,0.14384 z"
       id="topappbarActionMenuItem-2-4-9-8"
       class="button-text-labeltext" />
    <text
       xml:space="preserve"
       style="font-style:normal;font-variant:normal;font-weight:bold;font-stretch:normal;font-size:3.52778px;line-height:125%;font-family:Roboto;-inkscape-font-specification:'Roboto, Bold';font-variant-ligatures:normal;font-variant-caps:normal;font-variant-numeric:normal;font-variant-east-asian:normal;letter-spacing:0px;word-spacing:0px"
       x="258.74457"
       y="68.758514"
       id="tabInactiveLabel1-9-8"
       class="tab-inactive-textlabel"><tspan
         sodipodi:role="line"
         id="tspan9212-1-9-1-8-9-2-9-7"
         style="font-style:normal;font-variant:normal;font-weight:bold;font-stretch:normal;font-size:3.52778px;font-family:Roboto;-inkscape-font-specification:'Roboto, Bold';font-variant-ligatures:normal;font-variant-caps:normal;font-variant-numeric:normal;font-variant-east-asian:normal"
         x="258.74457"
         y="68.758514">PLAYLIST</tspan></text>
    <path
       d="m 236.17399,62.832105 h 0.8779 v -2.05367 h 2.12615 v 2.05367 h 0.8779 v -2.91534 l -1.94097,-1.45776 -1.94098,1.45776 z m 0,0.81354 q -0.33825,0 -0.5758,-0.23755 -0.23755,-0.23774 -0.23755,-0.57599 v -2.91534 q 0,-0.2014 0.0847,-0.37053 0.0845,-0.16912 0.24547,-0.28181 l 1.93286,-1.44965 q 0.11288,-0.0806 0.23774,-0.12486 0.12467,-0.0443 0.2536,-0.0443 0.12891,0 0.25359,0.0443 0.12486,0.0443 0.23774,0.12486 l 1.93286,1.44965 q 0.16101,0.11269 0.24953,0.28587 0.0887,0.17318 0.0887,0.36647 v 2.91534 q 0,0.33825 -0.2416,0.57599 -0.24161,0.23755 -0.57986,0.23755 h -1.59461 v -2.15031 h -0.69274 v 2.15031 z m 1.94098,-3.00405 z"
       id="tabActiveIcon-3"
       class="tab-active-icon" />
    <path
       d="m 291.83651,63.014945 q -0.14987,0 -0.24827,-0.10635 -0.0986,-0.10653 -0.0986,-0.24845 0,-0.14192 0.0986,-0.24448 0.0984,-0.10238 0.24827,-0.10238 h 1.41124 q 0.14192,0 0.24846,0.10238 0.10634,0.10256 0.10634,0.24448 0,0.14192 -0.10634,0.24845 -0.10654,0.10635 -0.24846,0.10635 z m 0,-4.03678 q -0.14987,0 -0.24827,-0.0986 -0.0986,-0.0986 -0.0986,-0.24845 0,-0.14968 0.0986,-0.25224 0.0984,-0.10256 0.24827,-0.10256 h 2.68852 q 0.14192,0 0.24845,0.10653 0.10635,0.10635 0.10635,0.24827 0,0.14987 -0.10635,0.24845 -0.10653,0.0986 -0.24845,0.0986 z m 2.51519,4.66747 q -0.14987,0 -0.25243,-0.10237 -0.10237,-0.10256 -0.10237,-0.25243 v -1.26933 q 0,-0.14987 0.10237,-0.24827 0.10256,-0.0986 0.25243,-0.0986 0.14192,0 0.24429,0.0986 0.10256,0.0984 0.10256,0.24827 v 0.29178 h 2.34168 q 0.14986,0 0.24826,0.10238 0.0986,0.10256 0.0986,0.24448 0,0.14192 -0.0986,0.24845 -0.0984,0.10635 -0.24826,0.10635 h -2.34168 v 0.27589 q 0,0.14987 -0.10256,0.25243 -0.10237,0.10237 -0.24429,0.10237 z m -1.10395,-2.01829 q -0.14192,0 -0.24429,-0.0986 -0.10256,-0.0986 -0.10256,-0.24845 v -0.28384 h -1.06439 q -0.14987,0 -0.24827,-0.10237 -0.0986,-0.10257 -0.0986,-0.24448 0,-0.14987 0.0986,-0.24827 0.0984,-0.0986 0.24827,-0.0986 h 1.06439 v -0.30749 q 0,-0.14192 0.0986,-0.24051 0.0986,-0.0986 0.24827,-0.0986 0.14192,0 0.24846,0.0986 0.10634,0.0986 0.10634,0.24051 v 1.28504 q 0,0.14986 -0.10634,0.24845 -0.10654,0.0986 -0.24846,0.0986 z m 1.10395,-0.63088 q -0.14987,0 -0.25243,-0.10237 -0.10237,-0.10257 -0.10237,-0.24448 0,-0.14987 0.10237,-0.24827 0.10256,-0.0986 0.25243,-0.0986 h 2.68853 q 0.14986,0 0.24826,0.0986 0.0986,0.0984 0.0986,0.24031 0,0.14987 -0.0986,0.25244 -0.0984,0.10237 -0.24826,0.10237 z m 1.27727,-1.37966 q -0.14192,0 -0.24845,-0.0986 -0.10635,-0.0986 -0.10635,-0.24845 v -1.26933 q 0,-0.14987 0.10635,-0.25224 0.10653,-0.10256 0.24845,-0.10256 0.14192,0 0.24429,0.10256 0.10257,0.10237 0.10257,0.25224 v 0.27589 h 1.0644 q 0.14986,0 0.24826,0.10653 0.0986,0.10635 0.0986,0.24827 0,0.14987 -0.0986,0.24845 -0.0984,0.0986 -0.24826,0.0986 h -1.0644 v 0.2916 q 0,0.14987 -0.10257,0.24845 -0.10237,0.0986 -0.24429,0.0986 z"
       id="tabInactiveIcon1-2"
       class="tab-inactive-icon" />
    <path
       d="m 267.91091,63.64563 q -0.53218,0 -0.91749,-0.38069 -0.38531,-0.38068 -0.38531,-0.9036 0,-0.54121 0.37628,-0.90826 0.37608,-0.36704 0.90825,-0.36704 0.0916,0 0.19266,0.0185 0.10079,0.0182 0.19265,0.0457 v -3.11005 q 0,-0.16513 0.11916,-0.27984 0.1194,-0.11472 0.28447,-0.11472 h 1.25679 q 0.21116,0 0.3578,0.14687 0.14687,0.14685 0.14687,0.35777 0,0.21094 -0.14687,0.3578 -0.14664,0.14687 -0.3578,0.14687 h -0.7246 v 3.71553 q 0,0.52293 -0.3763,0.899 -0.37606,0.37606 -0.92651,0.37606 z m -4.47692,-5.07316 q -0.19266,0 -0.33027,-0.13762 -0.13762,-0.13761 -0.13762,-0.32124 0,-0.19264 0.13762,-0.33027 0.13761,-0.13761 0.33027,-0.13761 h 3.53191 q 0.18363,0 0.32123,0.13761 0.13762,0.13762 0.13762,0.33027 0,0.19266 -0.13762,0.32586 -0.1376,0.13301 -0.32123,0.13301 z m 0,1.71542 q -0.19266,0 -0.33027,-0.13762 -0.13762,-0.13761 -0.13762,-0.32102 0,-0.19266 0.13762,-0.33026 0.13761,-0.13763 0.33027,-0.13763 h 3.53191 q 0.18363,0 0.32123,0.13763 0.13762,0.1376 0.13762,0.33026 0,0.19266 -0.13762,0.32564 -0.1376,0.133 -0.32123,0.133 z m 0,1.73391 q -0.19266,0 -0.33027,-0.1376 -0.13762,-0.13763 -0.13762,-0.33931 0,-0.19266 0.13762,-0.32564 0.13761,-0.13321 0.33027,-0.13321 h 2.09171 q 0.18341,0 0.32103,0.13761 0.1376,0.13762 0.1376,0.32124 0,0.20168 -0.1376,0.33931 -0.13762,0.1376 -0.32103,0.1376 z"
       id="tabInactiveIcon1-9"
       class="tab-inactive-icon" />
    <rect
       id="divider"
       class="divider-container"
       width="87.000015"
       height="0.5"
       x="223.20505"
       y="91.474678" />
    <rect
       id="divider2"
       class="divider-container"
       width="87.000015"
       height="0.5"
       x="223.20505"
       y="110.86576" />
    <rect
       id="divider3"
       class="divider-container"
       width="87.000015"
       height="0.5"
       x="223.20505"
       y="130.25677" />
    <rect
       id="divider4"
       class="divider-container"
       width="87.000015"
       height="0.5"
       x="223.20505"
       y="149.64781" />
    <rect
       id="bottomsheetContainer-8"
       class="bottomsheet-container"
       width="86.221283"
       height="12.577001"
       x="223.52888"
       y="162.41701" />
    <text
       xml:space="preserve"
       style="font-style:normal;font-variant:normal;font-weight:bold;font-stretch:normal;font-size:4.23333px;line-height:125%;font-family:Roboto-serif;-inkscape-font-specification:'sans-serif, Bold';font-variant-ligatures:normal;font-variant-caps:normal;font-variant-numeric:normal;font-variant-east-asian:normal;letter-spacing:0px;word-spacing:0px"
       x="239.5351"
       y="172.80049"
       id="backdropText-4-3-97"
       class="label-onsurface"><tspan
         sodipodi:role="line"
         id="tspan9212-1-9-1-56-0-0-8"
         style="font-style:normal;font-variant:normal;font-weight:normal;font-stretch:normal;font-size:4.23333px;font-family:Roboto;-inkscape-font-specification:Roboto;font-variant-ligatures:normal;font-variant-caps:normal;font-variant-numeric:normal;font-variant-east-asian:normal"
         x="239.5351"
         y="172.80049">Jailhouse Rock</tspan></text>
    <text
       xml:space="preserve"
       style="font-style:normal;font-variant:normal;font-weight:bold;font-stretch:normal;font-size:4.23333px;line-height:125%;font-family:Roboto;-inkscape-font-specification:'Roboto Bold';font-variant-ligatures:normal;font-variant-caps:normal;font-variant-numeric:normal;font-variant-east-asian:normal;letter-spacing:0px;word-spacing:0px"
       x="239.37593"
       y="167.55035"
       id="backdropText-4-3-97-8"
       class="label-onsurface"><tspan
         sodipodi:role="line"
         id="tspan9212-1-9-1-56-0-0-8-7"
         style="font-style:normal;font-variant:normal;font-weight:bold;font-stretch:normal;font-size:4.23333px;font-family:Roboto;-inkscape-font-specification:'Roboto Bold';font-variant-ligatures:normal;font-variant-caps:normal;font-variant-numeric:normal;font-variant-east-asian:normal"
         x="239.37593"
         y="167.55035">Elivs Presley</tspan></text>
    <path
       d="m 227.82715,167.04279 q -0.15332,-0.15331 -0.15823,-0.36281 -0.006,-0.20949 0.14817,-0.37311 l 1.96243,-1.95212 q 0.0714,-0.0717 0.16338,-0.11235 0.092,-0.041 0.19428,-0.041 0.10229,0 0.19428,0.041 0.092,0.0407 0.16337,0.11235 l 1.97273,1.95212 q 0.14301,0.15332 0.14301,0.36796 0,0.21465 -0.15331,0.35791 -0.15332,0.15331 -0.36796,0.15331 -0.21464,0 -0.36795,-0.15331 l -1.58417,-1.57413 -1.58418,1.59449 q -0.14326,0.15331 -0.3579,0.14815 -0.21464,-0.006 -0.36795,-0.15846 z"
       id="bottomappbarNavigationIcon-2"
       class="bottomsheet-content" />
    <path
       d="m 293.69311,172.37715 q -0.1756,0.11707 -0.35705,0.0117 -0.18146,-0.10536 -0.18146,-0.31608 v -5.268 q 0,-0.21072 0.18146,-0.31608 0.18145,-0.10536 0.35705,0.0117 l 4.14416,2.64571 q 0.1639,0.10536 0.1639,0.29266 0,0.18731 -0.1639,0.29267 z"
       id="bottomappbarNavigationIcon-5"
       class="iconbutton-tonal-icon" />
    <path
       d="m 301.74383,171.95019 q -0.14364,0.10535 -0.29685,0.0239 -0.15321,-0.0814 -0.15321,-0.25377 v -3.50478 q 0,-0.17236 0.15321,-0.25376 0.15321,-0.0814 0.29685,0.0239 l 2.51847,1.74282 q 0.13407,0.0862 0.13407,0.2394 0,0.15322 -0.13407,0.2394 z m 3.89741,0 q -0.14364,0.10535 -0.29686,0.0239 -0.15322,-0.0814 -0.15322,-0.25377 v -3.50478 q 0,-0.17236 0.15322,-0.25376 0.15322,-0.0814 0.29686,0.0239 l 2.51847,1.74282 q 0.13406,0.0862 0.13406,0.2394 0,0.15322 -0.13406,0.2394 z"
       id="bottomappbarNavigationIcon-3"
       class="iconbutton-tonal-icon" />
    <path
       d="m 288.59263,171.43463 -2.53581,-1.75483 q -0.13498,-0.0868 -0.13498,-0.24104 0,-0.15427 0.13498,-0.24105 l 2.53581,-1.75482 q 0.14463,-0.10606 0.2989,-0.0241 0.15427,0.082 0.15427,0.25551 v 3.52893 q 0,0.17355 -0.15427,0.25551 -0.15427,0.082 -0.2989,-0.0241 z m -3.87603,0 -2.53581,-1.75483 q -0.13499,-0.0868 -0.13499,-0.24104 0,-0.15427 0.13499,-0.24105 l 2.53581,-1.75482 q 0.14463,-0.10606 0.2989,-0.0241 0.15427,0.082 0.15427,0.25551 v 3.52893 q 0,0.17355 -0.15427,0.25551 -0.15427,0.082 -0.2989,-0.0241 z"
       id="bottomappbarNavigationIcon-4"
       class="iconbutton-tonal-icon" />
    <text
       xml:space="preserve"
       style="font-style:normal;font-variant:normal;font-weight:normal;font-stretch:normal;font-size:4.93889px;line-height:125%;font-family:Roboto;-inkscape-font-specification:'Roboto, Normal';font-variant-ligatures:normal;font-variant-caps:normal;font-variant-numeric:normal;font-variant-east-asian:normal;letter-spacing:0px;word-spacing:0px"
       x="237.16779"
       y="49.470654"
       id="topappbarTitle-6-6"
       class="topappbar-title"><tspan
         sodipodi:role="line"
         id="tspan9212-1-9-1-7-7-0-0-0"
         style="font-style:normal;font-variant:normal;font-weight:normal;font-stretch:normal;font-size:4.93889px;font-family:Roboto;-inkscape-font-specification:'Roboto, Normal';font-variant-ligatures:normal;font-variant-caps:normal;font-variant-numeric:normal;font-variant-east-asian:normal"
         x="237.16779"
         y="49.470654">Music Player</tspan></text>
    <circle
       cx="233.19005"
       cy="120.93114"
       id="iconButtonContainer-1"
       class="iconbutton-tonal-container"
       r="5.8994169" />
    <path
       d="m 232.46505,123.93111 q -0.525,0 -0.8875,-0.3625 -0.3625,-0.3625 -0.3625,-0.8875 0,-0.525 0.3625,-0.8875 0.3625,-0.3625 0.8875,-0.3625 0.23333,0 0.42083,0.0667 0.1875,0.0667 0.32917,0.18334 v -3.25 q 0,-0.20833 0.14583,-0.35417 0.14584,-0.14583 0.35417,-0.14583 h 0.89167 q 0.23333,0 0.39583,0.1625 0.1625,0.1625 0.1625,0.39583 0,0.23334 -0.1625,0.4 -0.1625,0.16667 -0.39583,0.16667 h -0.89167 v 3.625 q 0,0.525 -0.3625,0.8875 -0.3625,0.3625 -0.8875,0.3625 z"
       id="iconButtonIcon-1"
       class="iconbutton-tonal-icon" />
    <circle
       cx="233.19005"
       cy="140.54329"
       id="iconButtonContainer-1-6"
       class="iconbutton-tonal-container"
       r="5.8994169" />
    <path
       d="m 232.46505,143.54326 q -0.525,0 -0.8875,-0.36251 -0.3625,-0.36249 -0.3625,-0.88749 0,-0.52501 0.3625,-0.88751 0.3625,-0.36249 0.8875,-0.36249 0.23333,0 0.42083,0.0667 0.1875,0.0667 0.32917,0.18333 v -3.25 q 0,-0.20833 0.14583,-0.35416 0.14584,-0.14584 0.35417,-0.14584 h 0.89167 q 0.23333,0 0.39583,0.1625 0.1625,0.1625 0.1625,0.39584 0,0.23333 -0.1625,0.4 -0.1625,0.16666 -0.39583,0.16666 h -0.89167 v 3.625 q 0,0.525 -0.3625,0.88751 -0.3625,0.36249 -0.8875,0.36249 z"
       id="iconButtonIcon-1-7"
       class="iconbutton-tonal-icon" />
    <circle
       cx="233.19005"
       cy="101.319"
       id="iconButtonContainer-1-3"
       class="iconbutton-tonal-container"
       r="5.8994169" />
    <path
       d="m 232.46505,104.31896 q -0.525,0 -0.8875,-0.3625 -0.3625,-0.3625 -0.3625,-0.8875 0,-0.525 0.3625,-0.8875 0.3625,-0.3625 0.8875,-0.3625 0.23333,0 0.42083,0.0667 0.1875,0.0667 0.32917,0.18334 v -3.25 q 0,-0.20833 0.14583,-0.35417 0.14584,-0.14583 0.35417,-0.14583 h 0.89167 q 0.23333,0 0.39583,0.1625 0.1625,0.1625 0.1625,0.39583 0,0.23334 -0.1625,0.4 -0.1625,0.16667 -0.39583,0.16667 h -0.89167 v 3.625 q 0,0.525 -0.3625,0.8875 -0.3625,0.3625 -0.8875,0.3625 z"
       id="iconButtonIcon-1-5"
       class="iconbutton-tonal-icon" />
    <circle
       cx="233.19005"
       cy="81.706848"
       id="iconButtonContainer-1-2"
       class="iconbutton-tonal-container"
       r="5.8994169" />
    <path
       d="m 232.46505,84.706812 q -0.525,0 -0.8875,-0.3625 -0.3625,-0.3625 -0.3625,-0.8875 0,-0.525 0.3625,-0.8875 0.3625,-0.3625 0.8875,-0.3625 0.23333,0 0.42083,0.0667 0.1875,0.0667 0.32917,0.18334 v -3.25 q 0,-0.20833 0.14583,-0.35417 0.14584,-0.14583 0.35417,-0.14583 h 0.89167 q 0.23333,0 0.39583,0.1625 0.1625,0.1625 0.1625,0.39583 0,0.23334 -0.1625,0.4 -0.1625,0.16667 -0.39583,0.16667 h -0.89167 v 3.625 q 0,0.525 -0.3625,0.8875 -0.3625,0.3625 -0.8875,0.3625 z"
       id="iconButtonIcon-1-9"
       class="iconbutton-tonal-icon" />
    <g
       id="g382">
      <rect
         id="rect87126-7-4-9-2"
         width="86.573845"
         height="12.516596"
         x="223.20502"
         y="174.99402"
         ry="0"
         class="device-frame" />
      <path
         d="m 286.75281,185.93375 v -6.33299 h 6.33299 v 6.33299 z m 0.75528,-0.75531 h 4.81407 v -4.81409 h -4.81407 z m 0,0 v -4.81409 z"
         id="path13463"
         class="device-button" />
      <path
         d="m 266.31369,186.26575 q -0.72212,0 -1.3612,-0.26974 -0.63912,-0.26978 -1.11638,-0.74703 -0.47726,-0.47728 -0.74699,-1.11634 -0.26979,-0.63913 -0.26979,-1.36124 0,-0.72212 0.26979,-1.36121 0.26973,-0.63911 0.74699,-1.11638 0.47726,-0.47725 1.11638,-0.75114 0.63908,-0.27392 1.35291,-0.27392 0.7304,0 1.37369,0.27392 0.64323,0.27389 1.11632,0.75114 0.47312,0.47727 0.74705,1.11638 0.27387,0.63909 0.27387,1.3695 0,0.71382 -0.27387,1.35295 -0.27393,0.63906 -0.75119,1.11634 -0.47726,0.47725 -1.11634,0.74703 -0.63913,0.26974 -1.36124,0.26974 z m 0,-0.75532 q 1.13713,0 1.93807,-0.80097 0.80097,-0.80093 0.80097,-1.93806 0,-1.13714 -0.80097,-1.93807 -0.80094,-0.80094 -1.93807,-0.80094 -1.13713,0 -1.93807,0.80094 -0.80095,0.80093 -0.80095,1.93807 0,1.13713 0.80095,1.93806 0.80094,0.80097 1.93807,0.80097 z m 0,-2.73903 z"
         id="path13465"
         class="device-button" />
      <path
         d="m 243.81765,186.2616 -3.49435,-3.49436 3.49435,-3.49434 0.64743,0.65571 -2.83864,2.83863 2.83864,2.83864 z"
         id="path13474"
         class="device-button" />
      <path
         style="color:#000000;fill:#000000;stroke-linecap:square;-inkscape-stroke:none"
         d="m 225.33149,27.02866 c -2.84285,0 -5.22461,2.381761 -5.22461,5.224609 V 184.80208 c 0,2.84285 2.38176,5.22657 5.22461,5.22657 h 82.55078 c 2.84285,0 5.22461,-2.38372 5.22461,-5.22657 V 32.253269 c 0,-2.842848 -2.38176,-5.224609 -5.22461,-5.224609 z m 0.66081,3.354166 c 0,0 79.63141,0.01523 81.22916,0 1.59775,-0.01523 2.53125,1.059019 2.53125,2.602083 0,0 -0.007,149.479701 0,151.087491 0.007,1.60779 -0.98468,2.60208 -2.53125,2.60208 -1.54657,0 -79.63141,-0.0153 -81.22916,0 -1.59775,0.0152 -2.53125,-1.05901 -2.53125,-2.60208 V 32.984909 c 0,-1.754401 0.78627,-2.602083 2.53125,-2.602083 z"
         id="path3123"
         sodipodi:nodetypes="sssssssssszzzzzzss"
         class="device-frame" />
      <g
         id="g3827"
         transform="translate(-23.123362)">
        <path
           d="m 304.97658,35.44219 q 0.35444,-0.270278 0.75977,-0.42047 0.40549,-0.150199 0.8679,-0.150199 0.46241,0 0.87091,0.150199 0.40836,0.150192 0.76266,0.42047 l 0.66667,-0.660757 q -0.50449,-0.390342 -1.08106,-0.609589 -0.57658,-0.219239 -1.21918,-0.219239 -0.6426,0 -1.21917,0.219239 -0.57657,0.219247 -1.08107,0.609589 z m 1.62767,2.108094 q -0.0422,0 -0.0751,-0.01208 -0.033,-0.012 -0.063,-0.04192 l -2.60675,-2.606699 q -0.0599,-0.05992 -0.057,-0.141119 0.003,-0.081 0.0632,-0.135056 0.57052,-0.504509 1.26731,-0.78386 0.69665,-0.279199 1.47142,-0.279199 0.77478,0 1.47142,0.279199 0.6968,0.279351 1.26732,0.78386 0.0602,0.05408 0.063,0.135056 0.003,0.08116 -0.057,0.141119 l -2.60668,2.606699 q -0.0299,0.02992 -0.063,0.04192 -0.033,0.01208 -0.0751,0.01208 z"
           id="path91309-4-5-4-8"
           class="device-statusbar-labeltext" />
        <path
           d="m 313.72916,37.194574 h 1.11485 v -3.041961 l -1.11485,1.114858 z m -2.35191,0.355742 q -0.11671,0 -0.16181,-0.108943 -0.0452,-0.108808 0.0344,-0.193663 l 3.64717,-3.641951 q 0.085,-0.08486 0.19379,-0.03984 0.10882,0.04504 0.10882,0.161944 v 3.647174 q 0,0.07424 -0.0505,0.124743 -0.0503,0.05048 -0.12996,0.05048 z"
           id="path91986-8-5-9-3"
           class="device-statusbar-labeltext" />
        <path
           d="m 328.79464,37.550308 q -0.0701,0 -0.11761,-0.04752 -0.0474,-0.04752 -0.0474,-0.117479 v -3.319952 q 0,-0.07496 0.0474,-0.122519 0.0475,-0.04752 0.11761,-0.04752 h 0.43498 v -0.179991 q 0,-0.07 0.0474,-0.11748 0.0475,-0.04752 0.1176,-0.04752 h 0.46991 q 0.0701,0 0.11759,0.04752 0.0474,0.04752 0.0474,0.11748 v 0.179991 h 0.43499 q 0.0701,0 0.1176,0.04752 0.0474,0.04752 0.0474,0.122519 v 3.319952 q 0,0.07 -0.0474,0.117479 -0.0475,0.04752 -0.1176,0.04752 z m 0.16991,-1.61504 h 1.33005 v -1.704912 h -1.33005 z"
           id="path92143-0-2-9-8"
           class="device-statusbar-labeltext" />
        <text
           xml:space="preserve"
           style="font-style:normal;font-variant:normal;font-weight:bold;font-stretch:normal;font-size:4.93889px;line-height:125%;font-family:Roboto;-inkscape-font-specification:'Sans, Bold';font-variant-ligatures:normal;font-variant-caps:normal;font-variant-numeric:normal;font-variant-east-asian:normal;letter-spacing:0px;word-spacing:0px"
           x="318.27667"
           y="37.471352"
           id="text92824-4-9-3-3"
           class="device-statusbar-labeltext"><tspan
             sodipodi:role="line"
             id="tspan92822-29-0-6-33"
             style="font-style:normal;font-variant:normal;font-weight:500;font-stretch:normal;font-size:4.93889px;font-family:Roboto;-inkscape-font-specification:'Roboto Medium';font-variant-ligatures:normal;font-variant-caps:normal;font-variant-numeric:normal;font-variant-east-asian:normal;fill:#ffffff"
             x="318.27667"
             y="37.471352">72%</tspan></text>
        <text
           xml:space="preserve"
           style="font-style:normal;font-variant:normal;font-weight:bold;font-stretch:normal;font-size:4.93889px;line-height:125%;font-family:Roboto;-inkscape-font-specification:'Sans, Bold';font-variant-ligatures:normal;font-variant-caps:normal;font-variant-numeric:normal;font-variant-east-asian:normal;letter-spacing:0px;word-spacing:0px"
           x="248.42583"
           y="37.471352"
           id="text3716"
           class="device-statusbar-labeltext"><tspan
             sodipodi:role="line"
             id="tspan3714"
             style="font-style:normal;font-variant:normal;font-weight:500;font-stretch:normal;font-size:4.93889px;font-family:Roboto;-inkscape-font-specification:'Roboto Medium';font-variant-ligatures:normal;font-variant-caps:normal;font-variant-numeric:normal;font-variant-east-asian:normal;fill:#ffffff"
             x="248.42583"
             y="37.471352">12:30</tspan></text>
      </g>
    </g>
  </g>
</svg>
