<?xml version="1.0" encoding="UTF-8" standalone="no"?>
<svg
   height="1727.9733"
   id="svg8"
   version="1.1"
   viewBox="0 0 92.999999 172.79733"
   width="930"
   inkscape:version="1.2.1 (9c6d41e410, 2022-07-14, custom)"
   sodipodi:docname="mockup4.svg"
   xmlns:inkscape="http://www.inkscape.org/namespaces/inkscape"
   xmlns:sodipodi="http://sodipodi.sourceforge.net/DTD/sodipodi-0.dtd"
   xmlns="http://www.w3.org/2000/svg"
   xmlns:svg="http://www.w3.org/2000/svg"
   xmlns:rdf="http://www.w3.org/1999/02/22-rdf-syntax-ns#"
   xmlns:cc="http://creativecommons.org/ns#"
   xmlns:dc="http://purl.org/dc/elements/1.1/">
  <style
     id="style"><!-- needed for Inkscape only, must be removed by build process -->



     @import url(mockstyle_inkscape.css);
  </style>
  <defs
     id="defs2" />
  <sodipodi:namedview
     bordercolor="#666666"
     borderopacity="1.0"
     id="base"
     pagecolor="#ffffff"
     showgrid="false"
     inkscape:bbox-nodes="true"
     inkscape:bbox-paths="true"
     inkscape:current-layer="layer1"
     inkscape:cx="490.5"
     inkscape:cy="1463.5"
     inkscape:document-rotation="0"
     inkscape:document-units="mm"
     inkscape:pageopacity="0.0"
     inkscape:pageshadow="2"
     inkscape:snap-bbox="true"
     inkscape:snap-bbox-edge-midpoints="true"
     inkscape:snap-bbox-midpoints="true"
     inkscape:snap-global="false"
     inkscape:window-height="708"
     inkscape:window-maximized="1"
     inkscape:window-width="1366"
     inkscape:window-x="0"
     inkscape:window-y="0"
     inkscape:zoom="1"
     inkscape:showpageshadow="2"
     inkscape:pagecheckerboard="0"
     inkscape:deskcolor="#d1d1d1" />
  <metadata
     id="metadata5">
    <rdf:RDF>
      <cc:Work
         rdf:about="">
        <dc:format>image/svg+xml</dc:format>
        <dc:type
           rdf:resource="http://purl.org/dc/dcmitype/StillImage" />
      </cc:Work>
    </rdf:RDF>
  </metadata>
  <g
     id="layer1"
     transform="translate(-320.61419,-27.570325)"
     inkscape:groupmode="layer"
     inkscape:label="Ebene 1">
    <g
       id="g13459"
       transform="translate(-33.866682)"
       class="device">
      <path
         d="m 378.40939,186.2616 -3.49435,-3.49436 3.49435,-3.49434 0.64743,0.65571 -2.83864,2.83863 2.83864,2.83864 z"
         id="path13450"
         style="fill:#ffffff"
         class="device" />
      <path
         d="m 421.34455,185.93375 v -6.33299 h 6.33299 v 6.33299 z m 0.75528,-0.75531 h 4.81407 v -4.81409 h -4.81407 z m 0,0 v -4.81409 z"
         id="path13452"
         style="fill:#ffffff"
         class="device" />
      <path
         d="m 400.90543,186.26575 q -0.72212,0 -1.3612,-0.26974 -0.63912,-0.26978 -1.11638,-0.74703 -0.47726,-0.47728 -0.74699,-1.11634 -0.26979,-0.63913 -0.26979,-1.36124 0,-0.72212 0.26979,-1.36121 0.26973,-0.63911 0.74699,-1.11638 0.47726,-0.47725 1.11638,-0.75114 0.63908,-0.27392 1.35291,-0.27392 0.7304,0 1.37369,0.27392 0.64323,0.27389 1.11632,0.75114 0.47312,0.47727 0.74705,1.11638 0.27387,0.63909 0.27387,1.3695 0,0.71382 -0.27387,1.35295 -0.27393,0.63906 -0.75119,1.11634 -0.47726,0.47725 -1.11634,0.74703 -0.63913,0.26974 -1.36124,0.26974 z m 0,-0.75532 q 1.13713,0 1.93807,-0.80097 0.80097,-0.80093 0.80097,-1.93806 0,-1.13714 -0.80097,-1.93807 -0.80094,-0.80094 -1.93807,-0.80094 -1.13713,0 -1.93807,0.80094 -0.80095,0.80093 -0.80095,1.93807 0,1.13713 0.80095,1.93806 0.80094,0.80097 1.93807,0.80097 z m 0,-2.73903 z"
         id="path13454"
         style="fill:#ffffff"
         class="device" />
    </g>
    <rect
       id="deviceBackground-0-0-1-4-9"
       class="device-background"
       width="87"
       height="157"
       x="323.31622"
       y="29.940073"
       ry="2.2251673" />
    <rect
       id="listSurface"
       class="container-surface"
       width="86.807823"
       height="108.27687"
       x="324.16003"
       y="55.122494"
       ry="5.5819373" />
    <rect
       id="deviceBackground-0-0-1-4-9-7"
       class="backdrop-front-container"
       width="87"
       height="157"
       x="323.31622"
       y="30.126099"
       ry="2.2251673" />
    <rect
       id="cardFilledContainer3"
       class="card-filled-container"
       width="49.9944"
       height="34.397297"
       x="326.87943"
       y="129.20171"
       ry="2.779449" />
    <rect
       id="backdropBacklayer-3"
       class="backdrop-back-container"
       width="87.000008"
       height="57.26717"
       x="323.96805"
       y="30.21615"
       ry="0" />
    <rect
       style="mix-blend-mode:normal;fill:#000000;fill-opacity:0.598419"
       id="rect87126-2-5-2-6-90"
       width="87.000008"
       height="10"
       x="323.96805"
       y="30.581026"
       ry="0"
       class="device-statusbar" />
    <text
       xml:space="preserve"
       style="font-style:normal;font-weight:normal;font-size:4.23333px;line-height:125%;font-family:Roboto;letter-spacing:0px;word-spacing:0px"
       x="339.85339"
       y="48.70433"
       id="backdropText-4-5-93"
       class="label-onprimary"><tspan
         sodipodi:role="line"
         id="tspan9212-1-9-1-56-0-7-1"
         x="339.85339"
         y="48.70433">Location</tspan></text>
    <rect
       id="cardFilledContainer4"
       class="card-filled-container"
       width="30.402803"
       height="34.397297"
       x="380.56506"
       y="128.95412"
       ry="2.779449" />
    <rect
       id="bottomnavigationContainer-2"
       class="bottomnavigation-container"
       width="86.9375"
       height="14.901073"
       x="323.9679"
       y="160.64293"
       ry="0" />
    <rect
       id="bottomnavigationActiveindicator-2"
       class="bottomnavigation-activeindicator"
       width="14.355744"
       height="7"
       x="334.07751"
       y="162.17406"
       ry="2.9460537" />
    <text
       xml:space="preserve"
       style="font-style:normal;font-weight:normal;font-size:4.23333px;line-height:125%;font-family:Roboto;letter-spacing:0px;word-spacing:0px;fill:#201a1a"
       x="335.10809"
       y="173.60661"
       id="bottomnavigiationLabel1-1"
       class="bottomnavigation-labeltext-active"><tspan
         sodipodi:role="line"
         id="tspan9212-1-9-1-8-7"
         style="font-size:4.23333px"
         x="335.10809"
         y="173.60661">Hotels</tspan></text>
    <text
       xml:space="preserve"
       style="font-style:normal;font-weight:normal;font-size:4.23333px;line-height:125%;font-family:Roboto;letter-spacing:0px;word-spacing:0px"
       x="359.02924"
       y="173.42387"
       id="bottomnavigiationLabel2-5"
       class="bottomnavigation-labeltext-inactive"><tspan
         sodipodi:role="line"
         id="tspan9212-1-9-1-8-9-1"
         style="font-size:4.23333px"
         x="359.02924"
         y="173.42387">Luggage</tspan></text>
    <text
       xml:space="preserve"
       style="font-style:normal;font-weight:normal;font-size:4.23333px;line-height:125%;font-family:Roboto;letter-spacing:0px;word-spacing:0px"
       x="388.85809"
       y="173.46196"
       id="bottomnavigiationLabel3-7"
       class="bottomnavigation-labeltext-inactive"><tspan
         sodipodi:role="line"
         id="tspan9212-1-9-1-8-5-41"
         style="font-size:4.23333px"
         x="388.85809"
         y="173.46196">Profile</tspan></text>
    <text
       xml:space="preserve"
       style="font-style:normal;font-weight:normal;font-size:5.64444px;line-height:125%;font-family:Roboto;letter-spacing:0px;word-spacing:0px;fill:#201a1a"
       x="329.98035"
       y="135.84875"
       id="text11888"
       class="card-labeltext"><tspan
         sodipodi:role="line"
         style="font-style:normal;font-variant:normal;font-weight:normal;font-stretch:normal;font-size:5.64444px;font-family:Roboto;-inkscape-font-specification:Roboto"
         x="329.98035"
         y="135.84875"
         id="tspan5347">Four Seasons</tspan></text>
    <rect
       id="backdropFrontlayer-0"
       class="backdrop-front-container"
       width="86.977562"
       height="39.7495"
       x="323.99048"
       y="61.736168"
       ry="4.9420156" />
    <path
       d="m 327.49791,50.296825 q -0.19195,0 -0.32905,-0.1371 -0.13711,-0.13711 -0.13711,-0.32905 0,-0.18274 0.13711,-0.31984 0.1371,-0.1371 0.32905,-0.1371 h 5.91369 q 0.19195,0 0.32445,0.1371 0.1325,0.1371 0.1325,0.32905 0,0.19195 -0.1325,0.32445 -0.1325,0.13249 -0.32445,0.13249 z m 0,-1.98352 q -0.19195,0 -0.32905,-0.1371 -0.13711,-0.13711 -0.13711,-0.32905 0,-0.18273 0.13711,-0.31984 0.1371,-0.1371 0.32905,-0.1371 h 5.91369 q 0.19195,0 0.32445,0.1371 0.1325,0.13711 0.1325,0.32906 0,0.19194 -0.1325,0.32444 -0.1325,0.13249 -0.32445,0.13249 z m 0,-1.9743 q -0.19195,0 -0.32905,-0.1371 -0.13711,-0.13711 -0.13711,-0.32906 0,-0.19194 0.13711,-0.32904 0.1371,-0.13711 0.32905,-0.13711 h 5.91369 q 0.19195,0 0.32445,0.14172 0.1325,0.14171 0.1325,0.32443 0,0.19195 -0.1325,0.32906 -0.1325,0.1371 -0.32445,0.1371 z"
       id="backdropIcon-8"
       class="backdrop-back-icon" />
    <rect
       id="cardFilledContainer"
       class="card-filled-container"
       width="49.9944"
       height="36.163696"
       x="326.87943"
       y="76.485291"
       ry="2.9221814" />
    <text
       xml:space="preserve"
       style="font-style:normal;font-weight:normal;font-size:5.64444px;line-height:125%;font-family:Roboto;letter-spacing:0px;word-spacing:0px;fill:#201a1a"
       x="329.98035"
       y="83.119682"
       id="textView2-5-1"
       class="card-labeltext"><tspan
         sodipodi:role="line"
         id="tspan9212-1-9-8-9"
         style="font-style:normal;font-variant:normal;font-weight:normal;font-stretch:normal;font-size:5.64444px;font-family:Roboto;-inkscape-font-specification:Roboto"
         x="329.98035"
         y="83.119682">Lakeview </tspan><tspan
         sodipodi:role="line"
         style="font-style:normal;font-variant:normal;font-weight:normal;font-stretch:normal;font-size:5.64444px;font-family:Roboto;-inkscape-font-specification:Roboto"
         x="329.98035"
         y="90.175232"
         id="tspan9373">Resort</tspan></text>
    <text
       xml:space="preserve"
       style="font-style:normal;font-weight:normal;font-size:6.94587px;line-height:125%;font-family:Roboto;letter-spacing:0px;word-spacing:0px;fill:#000000"
       x="356.68658"
       y="200.29982"
       id="text9214-7-0-6-2"
       cass="mock-description"><tspan
         sodipodi:role="line"
         x="356.68658"
         y="200.29982"
         id="tspan173838">Travel</tspan></text>
    <text
       xml:space="preserve"
       x="339.85339"
       y="54.525169"
       id="text1057"
       class="label-onprimary"><tspan
         sodipodi:role="line"
         id="tspan1055"
         style="font-size:4.93889px"
         x="339.85339"
         y="54.525169">Germany</tspan></text>
    <text
       xml:space="preserve"
       x="382.18738"
       y="48.70433"
       id="text1945"
       class="label-onprimary"><tspan
         sodipodi:role="line"
         id="tspan1943"
         style="font-size:4.23333px"
         x="382.18738"
         y="48.70433">Duration</tspan></text>
    <text
       xml:space="preserve"
       x="382.18738"
       y="54.525169"
       id="text1949"
       class="label-onprimary"><tspan
         sodipodi:role="line"
         id="tspan1947"
         style="font-size:4.93889px"
         x="382.18738"
         y="54.525169">6 Nights</tspan></text>
    <path
       d="m 371.15336,83.843578 -0.34513,-0.320047 q -0.77188,-0.702837 -1.34608,-1.377441 -0.5742,-0.674597 -0.5742,-1.44019 0,-0.633807 0.42046,-1.060537 0.42044,-0.426727 1.04799,-0.426727 0.31376,0 0.62126,0.13493 0.30749,0.13491 0.57106,0.461227 0.29494,-0.326317 0.58361,-0.461227 0.28867,-0.13493 0.6087,-0.13493 0.63383,0 1.06055,0.426727 0.42672,0.42673 0.42672,1.060537 0,0.765593 -0.5836,1.44019 -0.58362,0.674604 -1.34921,1.383711 l -0.33887,0.313777 q -0.17571,0.15688 -0.40476,0.15688 -0.22905,0 -0.3985,-0.15688 z"
       id="iconButtonSelected1"
       class="iconbutton-text-icon-checked" />
    <path
       d="m 364.91922,168.1741 q -0.15789,0 -0.27631,-0.11842 -0.11842,-0.11842 -0.11842,-0.27631 v -3.1579 q 0,-0.15789 0.11842,-0.27632 0.11842,-0.11841 0.27631,-0.11841 h 1.18422 v -0.6579 q 0,-0.15789 0.11842,-0.27631 0.11842,-0.11843 0.27631,-0.11843 h 1.31579 q 0.1579,0 0.27632,0.11843 0.11842,0.11842 0.11842,0.27631 v 0.6579 h 1.18421 q 0.1579,0 0.27631,0.11841 0.11843,0.11843 0.11843,0.27632 v 3.1579 q 0,0.15789 -0.11843,0.27631 -0.11841,0.11842 -0.27631,0.11842 z m 1.57895,-3.94736 h 1.31579 v -0.6579 h -1.31579 z"
       id="bottomnavigationIcon2-2"
       class="bottomnavigation-icon-inactive" />
    <path
       d="m 340.14945,166.90535 1.50625,-0.73751 q 0.0312,-0.0125 0.0531,-0.0344 0.0219,-0.0219 0.0344,-0.0531 l 0.73751,-1.50625 q 0.0312,-0.0625 -0.0156,-0.10938 -0.0469,-0.0469 -0.10938,-0.0156 l -1.50625,0.7375 q -0.0312,0.0125 -0.0531,0.0344 -0.0219,0.0219 -0.0344,0.0531 l -0.7375,1.50625 q -0.0312,0.0625 0.0156,0.10937 0.0469,0.0469 0.10938,0.0156 z m 1.10625,-0.98125 q -0.10626,0 -0.17813,-0.0719 -0.0719,-0.0719 -0.0719,-0.17812 0,-0.10626 0.0719,-0.17813 0.0719,-0.0719 0.17813,-0.0719 0.10625,0 0.17812,0.0719 0.0719,0.0719 0.0719,0.17813 0,0.10625 -0.0719,0.17812 -0.0719,0.0719 -0.17812,0.0719 z m 0,2.25 q -0.5125,0 -0.96875,-0.19688 -0.45625,-0.19687 -0.79688,-0.5375 -0.34062,-0.34062 -0.5375,-0.79687 -0.19687,-0.45625 -0.19687,-0.96875 0,-0.5125 0.19687,-0.96875 0.19688,-0.45625 0.5375,-0.79688 0.34063,-0.34062 0.79688,-0.5375 0.45625,-0.19687 0.96875,-0.19687 0.51249,0 0.96875,0.19687 0.45625,0.19688 0.79687,0.5375 0.34063,0.34063 0.5375,0.79688 0.19688,0.45625 0.19688,0.96875 0,0.5125 -0.19688,0.96875 -0.19687,0.45625 -0.5375,0.79687 -0.34062,0.34063 -0.79687,0.5375 -0.45626,0.19688 -0.96875,0.19688 z"
       id="bottomnavigationIcon1-0"
       class="bottomnavigation-icon-active" />
    <text
       xml:space="preserve"
       style="font-style:normal;font-weight:normal;font-size:5.64444px;line-height:125%;font-family:Roboto;letter-spacing:0px;word-spacing:0px;fill:#201a1a"
       x="383.66599"
       y="135.60114"
       id="text11902"
       class="card-labeltext"><tspan
         sodipodi:role="line"
         id="tspan11900"
         style="font-style:normal;font-variant:normal;font-weight:normal;font-stretch:normal;font-size:5.64444px;font-family:Roboto;-inkscape-font-specification:Roboto"
         x="383.66599"
         y="135.60114">Westport</tspan><tspan
         sodipodi:role="line"
         style="font-style:normal;font-variant:normal;font-weight:normal;font-stretch:normal;font-size:5.64444px;font-family:Roboto;-inkscape-font-specification:Roboto"
         x="383.66599"
         y="142.65669"
         id="tspan5349">Plaza</tspan></text>
    <text
       xml:space="preserve"
       style="font-style:normal;font-weight:normal;font-size:4.23333px;line-height:125%;font-family:Roboto;letter-spacing:0px;word-spacing:0px;fill:#201a1a"
       x="336.82538"
       y="109.56715"
       id="text2086"
       class="card-labeltext"><tspan
         sodipodi:role="line"
         id="tspan2084"
         style="font-style:normal;font-variant:normal;font-weight:normal;font-stretch:normal;font-size:4.23333px;font-family:Roboto;-inkscape-font-specification:Roboto"
         x="336.82538"
         y="109.56715">4,7 (1.3k users)</tspan></text>
    <path
       d="m 332.96785,109.13885 -1.30691,0.78696 q -0.0562,0.0351 -0.11945,0.0316 -0.0632,-0.004 -0.11242,-0.0387 -0.0492,-0.0351 -0.0738,-0.0913 -0.0246,-0.0562 -0.0105,-0.12648 l 0.3443,-1.4896 -1.15234,-1.00477 q -0.0562,-0.0492 -0.0668,-0.10891 -0.0105,-0.0597 0.004,-0.11593 0.0141,-0.0562 0.0632,-0.0949 0.0492,-0.0387 0.11944,-0.0457 l 1.52474,-0.13351 0.59022,-1.40528 q 0.0281,-0.0633 0.0843,-0.0949 0.0562,-0.0316 0.11242,-0.0316 0.0562,0 0.11243,0.0316 0.0562,0.0316 0.0843,0.0949 l 0.59022,1.40528 1.52473,0.13351 q 0.0703,0.007 0.11945,0.0457 0.0492,0.0386 0.0632,0.0949 0.0141,0.0562 0.004,0.11593 -0.0105,0.0597 -0.0668,0.10891 l -1.15232,1.00477 0.34429,1.4896 q 0.0141,0.0703 -0.0106,0.12648 -0.0246,0.0562 -0.0738,0.0913 -0.0492,0.0351 -0.11243,0.0387 -0.0632,0.004 -0.11945,-0.0316 z"
       id="textIcon1"
       class="card-labeltext" />
    <rect
       id="cardFilledContainer2"
       class="card-filled-container"
       width="30.402803"
       height="36.163696"
       x="380.56506"
       y="76.224953"
       ry="2.9221814" />
    <text
       xml:space="preserve"
       style="font-style:normal;font-weight:normal;font-size:5.64444px;line-height:125%;font-family:Roboto;letter-spacing:0px;word-spacing:0px;fill:#201a1a"
       x="383.66599"
       y="82.872063"
       id="text6133"
       class="card-labeltext"><tspan
         sodipodi:role="line"
         id="tspan6131"
         style="font-style:normal;font-variant:normal;font-weight:normal;font-stretch:normal;font-size:5.64444px;font-family:Roboto;-inkscape-font-specification:Roboto"
         x="383.66599"
         y="82.872063">Beach Hid</tspan></text>
    <text
       xml:space="preserve"
       style="font-style:normal;font-weight:normal;font-size:4.23333px;line-height:125%;font-family:Roboto;letter-spacing:0px;word-spacing:0px;fill:#201a1a"
       x="390.51102"
       y="109.31956"
       id="text6141"
       class="card-labeltext"><tspan
         sodipodi:role="line"
         id="tspan6139"
         style="font-style:normal;font-variant:normal;font-weight:normal;font-stretch:normal;font-size:4.23333px;font-family:Roboto;-inkscape-font-specification:Roboto"
         x="390.51102"
         y="109.31956">4,9 (3.7k u</tspan></text>
    <path
       d="m 386.6535,108.89123 -1.30691,0.78696 q -0.0562,0.0351 -0.11945,0.0316 -0.0632,-0.004 -0.11242,-0.0387 -0.0492,-0.0351 -0.0738,-0.0913 -0.0246,-0.0562 -0.0105,-0.12648 l 0.3443,-1.4896 -1.15234,-1.00477 q -0.0562,-0.0492 -0.0668,-0.10891 -0.0105,-0.0597 0.004,-0.11593 0.0141,-0.0562 0.0632,-0.0949 0.0492,-0.0387 0.11944,-0.0457 l 1.52474,-0.13351 0.59022,-1.40528 q 0.0281,-0.0633 0.0843,-0.0949 0.0562,-0.0316 0.11242,-0.0316 0.0562,0 0.11243,0.0316 0.0562,0.0316 0.0843,0.0949 l 0.59022,1.40528 1.52473,0.13351 q 0.0703,0.007 0.11945,0.0457 0.0492,0.0386 0.0632,0.0949 0.0141,0.0562 0.004,0.11593 -0.0105,0.0597 -0.0668,0.10891 l -1.15232,1.00477 0.34429,1.4896 q 0.0141,0.0703 -0.0106,0.12648 -0.0246,0.0562 -0.0738,0.0913 -0.0492,0.0351 -0.11243,0.0387 -0.0632,0.004 -0.11945,-0.0316 z"
       id="textIcon2"
       class="card-labeltext" />
    <text
       xml:space="preserve"
       style="font-style:normal;font-variant:normal;font-weight:normal;font-stretch:normal;font-size:5.64444px;line-height:125%;font-family:Roboto;-inkscape-font-specification:'Roboto, Normal';font-variant-ligatures:normal;font-variant-caps:normal;font-variant-numeric:normal;font-variant-east-asian:normal;letter-spacing:0px;word-spacing:0px"
       x="327.82501"
       y="71.447937"
       id="text7753"
       class="card-labeltext"><tspan
         sodipodi:role="line"
         id="tspan7751"
         style="font-style:normal;font-variant:normal;font-weight:500;font-stretch:normal;font-size:5.64444px;font-family:Roboto;-inkscape-font-specification:'Roboto Medium';font-variant-ligatures:normal;font-variant-caps:normal;font-variant-numeric:normal;font-variant-east-asian:normal"
         x="327.82501"
         y="71.447937">Most Popular</tspan></text>
    <text
       xml:space="preserve"
       style="font-style:normal;font-variant:normal;font-weight:bold;font-stretch:normal;font-size:4.93889px;line-height:125%;font-family:Roboto-serif;-inkscape-font-specification:'sans-serif, Bold';font-variant-ligatures:normal;font-variant-caps:normal;font-variant-numeric:normal;font-variant-east-asian:normal;letter-spacing:0px;word-spacing:0px"
       x="393.82281"
       y="71.490402"
       id="text7757"
       class="button-text-labeltext"><tspan
         sodipodi:role="line"
         id="tspan7755"
         style="font-style:normal;font-variant:normal;font-weight:bold;font-stretch:normal;font-size:4.93889px;font-family:Roboto;-inkscape-font-specification:'Roboto Bold';font-variant-ligatures:normal;font-variant-caps:normal;font-variant-numeric:normal;font-variant-east-asian:normal"
         x="393.82281"
         y="71.490402">See all</tspan></text>
    <text
       xml:space="preserve"
       style="font-style:normal;font-variant:normal;font-weight:normal;font-stretch:normal;font-size:5.64444px;line-height:125%;font-family:Roboto;-inkscape-font-specification:'Roboto, Normal';font-variant-ligatures:normal;font-variant-caps:normal;font-variant-numeric:normal;font-variant-east-asian:normal;letter-spacing:0px;word-spacing:0px"
       x="327.82501"
       y="123.84795"
       id="text11876"
       class="card-labeltext"><tspan
         sodipodi:role="line"
         id="tspan11874"
         style="font-style:normal;font-variant:normal;font-weight:500;font-stretch:normal;font-size:5.64444px;font-family:Roboto;-inkscape-font-specification:'Roboto Medium';font-variant-ligatures:normal;font-variant-caps:normal;font-variant-numeric:normal;font-variant-east-asian:normal"
         x="327.82501"
         y="123.84795">Recommended</tspan></text>
    <text
       xml:space="preserve"
       style="font-style:normal;font-variant:normal;font-weight:bold;font-stretch:normal;font-size:4.93889px;line-height:125%;font-family:Roboto-serif;-inkscape-font-specification:'sans-serif, Bold';font-variant-ligatures:normal;font-variant-caps:normal;font-variant-numeric:normal;font-variant-east-asian:normal;letter-spacing:0px;word-spacing:0px"
       x="393.82281"
       y="123.89043"
       id="text11880"
       class="button-text-labeltext"><tspan
         sodipodi:role="line"
         id="tspan11878"
         style="font-style:normal;font-variant:normal;font-weight:bold;font-stretch:normal;font-size:4.93889px;font-family:Roboto;-inkscape-font-specification:'Roboto Bold';font-variant-ligatures:normal;font-variant-caps:normal;font-variant-numeric:normal;font-variant-east-asian:normal"
         x="393.82281"
         y="123.89043">See all</tspan></text>
    <path
       d="m 394.85471,165.58956 q -0.5314,0 -0.86956,-0.33816 -0.33817,-0.33817 -0.33817,-0.86957 0,-0.5314 0.33817,-0.86956 0.33816,-0.33817 0.86956,-0.33817 0.5314,0 0.86957,0.33817 0.33816,0.33816 0.33816,0.86956 0,0.5314 -0.33816,0.86957 -0.33817,0.33816 -0.86957,0.33816 z m -2.0934,2.58454 q -0.20128,0 -0.34219,-0.1409 -0.1409,-0.1409 -0.1409,-0.34219 v -0.27375 q 0,-0.30596 0.15298,-0.52335 0.15298,-0.21739 0.39452,-0.33011 0.53945,-0.24155 1.03463,-0.36232 0.49516,-0.12078 0.99436,-0.12078 0.4992,0 0.99034,0.1248 0.49114,0.1248 1.03059,0.3583 0.2496,0.11272 0.40258,0.33011 0.15298,0.21739 0.15298,0.52335 v 0.27375 q 0,0.20129 -0.1409,0.34219 -0.1409,0.1409 -0.34219,0.1409 z"
       id="bottomnavigationIcon3-7"
       class="bottomnavigation-icon-inactive" />
    <path
       d="m 370.56498,136.79754 -0.36089,-0.33465 q -0.80709,-0.73491 -1.40749,-1.44029 -0.60039,-0.70538 -0.60039,-1.5059 0,-0.66273 0.43964,-1.10892 0.43963,-0.4462 1.0958,-0.4462 0.32808,0 0.6496,0.14108 0.32152,0.14108 0.59711,0.48228 0.3084,-0.3412 0.61024,-0.48228 0.30183,-0.14108 0.63648,-0.14108 0.66273,0 1.10892,0.4462 0.4462,0.44619 0.4462,1.10892 0,0.80052 -0.61024,1.5059 -0.61023,0.70538 -1.41076,1.44685 l -0.35433,0.32809 q -0.18372,0.16404 -0.42322,0.16404 -0.23951,0 -0.41667,-0.16404 z m 0.20997,-3.51706 q -0.15092,-0.29528 -0.44619,-0.49869 -0.29528,-0.20341 -0.59711,-0.20341 -0.40683,0 -0.66274,0.26247 -0.2559,0.26246 -0.2559,0.67585 0,0.36745 0.24606,0.77428 0.24606,0.40682 0.59055,0.79068 0.34449,0.38386 0.71522,0.71522 0.37074,0.33136 0.61352,0.55447 0.24279,-0.22311 0.61352,-0.55775 0.37074,-0.33464 0.7185,-0.7185 0.34777,-0.38386 0.6004,-0.78741 0.25262,-0.40354 0.25262,-0.77099 0,-0.41339 -0.26575,-0.67585 -0.26574,-0.26247 -0.67257,-0.26247 -0.3084,0 -0.60039,0.20013 -0.29199,0.20013 -0.44947,0.50197 -0.0328,0.0656 -0.0886,0.0951 -0.0558,0.0295 -0.11483,0.0295 -0.0656,0 -0.11483,-0.0295 -0.0492,-0.0295 -0.082,-0.0951 z m 0.20997,1.1811 z"
       id="iconButtonUnselected1"
       class="iconbutton-text-icon-unchecked" />
    <circle
       cx="370.8284"
       cy="163.64526"
       id="badgeContainer"
       class="badge-container"
       r="2" />
    <text
       xml:space="preserve"
       style="font-style:normal;font-weight:normal;font-size:3.52778px;line-height:125%;font-family:Roboto;letter-spacing:0px;word-spacing:0px"
       x="369.9007"
       y="164.90358"
       id="badgeLabel"
       class="badge-labeltext"><tspan
         sodipodi:role="line"
         id="tspan3001"
         style="font-style:normal;font-variant:normal;font-weight:500;font-stretch:normal;font-size:3.52778px;font-family:Roboto;-inkscape-font-specification:'Roboto Medium'"
         x="369.9007"
         y="164.90358">1</tspan></text>
    <rect
       id="rect1146"
       class="chip-container"
       width="14.999531"
       height="5.2297635"
       x="330.17612"
       y="140.34377"
       ry="1.5" />
    <text
       xml:space="preserve"
       style="font-style:normal;font-weight:normal;font-size:3.52778px;line-height:125%;font-family:Roboto;letter-spacing:0px;word-spacing:0px"
       x="336.32129"
       y="144.34206"
       id="chipContainerText-0-2"
       class="chip-text"><tspan
         sodipodi:role="line"
         id="tspan5081-5-2-9-8-6"
         style="font-style:normal;font-variant:normal;font-weight:normal;font-stretch:normal;font-size:3.52778px;font-family:Roboto;-inkscape-font-specification:Roboto"
         x="336.32129"
         y="144.34206">Pool</tspan></text>
    <path
       d="m 331.5492,144.71877 q -0.0681,0.034 -0.12652,-0.01 -0.0584,-0.0438 -0.0584,-0.12652 0,-0.0438 0.0316,-0.0851 0.0316,-0.0414 0.0851,-0.0608 0.11678,-0.0389 0.21166,-0.10219 0.0949,-0.0633 0.27979,-0.0633 0.22383,0 0.36494,0.10462 0.14111,0.10461 0.32602,0.10461 0.1849,0 0.30411,-0.10461 0.11922,-0.10462 0.34305,-0.10462 0.22383,0 0.36494,0.10462 0.14111,0.10461 0.32601,0.10461 0.1849,0 0.30655,-0.10461 0.12165,-0.10462 0.34548,-0.10462 0.1849,0 0.27979,0.0633 0.0949,0.0633 0.2068,0.10219 0.0535,0.0195 0.0852,0.0584 0.0316,0.0389 0.0316,0.0876 0,0.0827 -0.0584,0.12652 -0.0584,0.0438 -0.12651,0.01 -0.0973,-0.0487 -0.19464,-0.0998 -0.0973,-0.0511 -0.22383,-0.0511 -0.1849,0 -0.31628,0.10219 -0.13138,0.10218 -0.33575,0.10218 -0.20436,0 -0.3552,-0.10218 -0.15085,-0.10219 -0.33575,-0.10219 -0.1849,0 -0.32358,0.10219 -0.13868,0.10218 -0.34305,0.10218 -0.20436,0 -0.34547,-0.10218 -0.14111,-0.10219 -0.32601,-0.10219 -0.12652,0 -0.22383,0.0511 -0.0973,0.0511 -0.19951,0.0998 z m -0.0146,-0.90993 q -0.0681,0.0292 -0.11922,-0.0122 -0.0511,-0.0414 -0.0511,-0.11921 0,-0.0438 0.0292,-0.0803 0.0292,-0.0365 0.0779,-0.0511 0.12164,-0.0389 0.21896,-0.10218 0.0973,-0.0633 0.28222,-0.0633 0.22383,0 0.35521,0.0925 0.13138,0.0924 0.31628,0.0924 0.1849,0 0.31385,-0.0924 0.12895,-0.0925 0.35278,-0.0925 0.22383,0 0.35521,0.0925 0.13138,0.0924 0.31628,0.0924 0.1849,0 0.31628,-0.0924 0.13138,-0.0925 0.35521,-0.0925 0.1849,0 0.28222,0.0633 0.0973,0.0632 0.2141,0.10218 0.0487,0.0146 0.0778,0.0511 0.0292,0.0365 0.0292,0.0803 0,0.0779 -0.0511,0.11921 -0.0511,0.0414 -0.11921,0.0122 -0.10219,-0.0487 -0.20193,-0.10218 -0.0998,-0.0535 -0.23113,-0.0535 -0.18491,0 -0.31629,0.10218 -0.13137,0.10219 -0.33574,0.10219 -0.20437,0 -0.35521,-0.10219 -0.15084,-0.10218 -0.33575,-0.10218 -0.1849,0 -0.31384,0.10218 -0.12895,0.10219 -0.33332,0.10219 -0.20436,0 -0.35521,-0.10219 -0.15084,-0.10218 -0.33574,-0.10218 -0.13138,0 -0.23356,0.0535 -0.10218,0.0535 -0.20437,0.10218 z m 1.10941,-0.84179 q -0.0876,0 -0.15813,-0.0341 -0.0706,-0.0341 -0.10949,-0.0876 l 0.6569,-0.6569 -0.26276,-0.26275 q -0.13138,-0.13138 -0.26519,-0.19464 -0.13381,-0.0633 -0.31872,-0.0779 -0.0778,-0.01 -0.13138,-0.0633 -0.0535,-0.0535 -0.0535,-0.13137 0,-0.0827 0.056,-0.13868 0.0559,-0.056 0.13867,-0.0462 0.26276,0.0243 0.45253,0.11192 0.18977,0.0876 0.36981,0.26762 l 1.23106,1.23106 q -0.0535,0.0438 -0.12407,0.0633 -0.0706,0.0195 -0.14355,0.0195 -0.1849,0 -0.31872,-0.10218 -0.13381,-0.10219 -0.35277,-0.10219 -0.21896,0 -0.35034,0.10219 -0.13138,0.10218 -0.31629,0.10218 z m 1.58141,-0.75907 q -0.19463,0 -0.32844,-0.13382 -0.13381,-0.13381 -0.13381,-0.32844 0,-0.19464 0.13381,-0.32845 0.13381,-0.13381 0.32844,-0.13381 0.19464,0 0.32845,0.13381 0.13381,0.13381 0.13381,0.32845 0,0.19463 -0.13381,0.32844 -0.13381,0.13382 -0.32845,0.13382 z"
       id="chipIcon7"
       class="chip-thumbnail" />
    <rect
       id="rect1150"
       class="chip-container"
       width="14.745883"
       height="5.2297635"
       x="330.30984"
       y="147.64088"
       ry="1.5" />
    <text
       xml:space="preserve"
       style="font-style:normal;font-weight:normal;font-size:3.52778px;line-height:125%;font-family:Roboto;letter-spacing:0px;word-spacing:0px"
       x="337.10864"
       y="151.64232"
       id="chipContainerText-0-2-2"
       class="chip-text"><tspan
         sodipodi:role="line"
         id="tspan5081-5-2-9-8-6-3"
         style="font-style:normal;font-variant:normal;font-weight:normal;font-stretch:normal;font-size:3.52778px;font-family:Roboto;-inkscape-font-specification:Roboto"
         x="337.10864"
         y="151.64232">WiFi</tspan></text>
    <path
       d="m 332.30973,150.58401 q -0.0676,-0.0676 -0.0702,-0.16382 -0.003,-0.0962 0.0702,-0.15862 0.32764,-0.28603 0.68648,-0.42904 0.35884,-0.14302 0.76449,-0.14302 0.40565,0 0.76449,0.14302 0.35884,0.14301 0.68648,0.42904 0.0728,0.0624 0.0728,0.15602 0,0.0936 -0.0728,0.16642 -0.0676,0.0676 -0.16122,0.0676 -0.0936,0 -0.16642,-0.0624 -0.28083,-0.23402 -0.55907,-0.33283 -0.27823,-0.0988 -0.56426,-0.0988 -0.28603,0 -0.56426,0.0988 -0.27824,0.0988 -0.55907,0.33283 -0.0728,0.0624 -0.16641,0.0624 -0.0936,0 -0.16123,-0.0676 z m -0.8789,-0.8789 q -0.0676,-0.0676 -0.0702,-0.16642 -0.003,-0.0988 0.0702,-0.16121 0.47326,-0.42646 1.06873,-0.68128 0.59547,-0.25483 1.26114,-0.25483 0.66568,0 1.26114,0.25483 0.59547,0.25482 1.06873,0.68128 0.0728,0.0624 0.0728,0.15862 0,0.0962 -0.0728,0.16901 -0.0676,0.0676 -0.16382,0.0676 -0.0962,0 -0.16902,-0.0624 -0.43165,-0.36924 -0.93091,-0.58506 -0.49925,-0.21583 -1.06612,-0.21583 -0.56686,0 -1.06612,0.21583 -0.49926,0.21582 -0.93091,0.58506 -0.0728,0.0624 -0.16902,0.0624 -0.0962,0 -0.16382,-0.0676 z m 2.32987,2.23626 q -0.18722,0 -0.32764,-0.14042 -0.14041,-0.14041 -0.14041,-0.32764 0,-0.18722 0.14041,-0.32763 0.14042,-0.14042 0.32764,-0.14042 0.18722,0 0.32764,0.14042 0.14041,0.14041 0.14041,0.32763 0,0.18723 -0.14041,0.32764 -0.14042,0.14042 -0.32764,0.14042 z"
       id="chipIcon9"
       class="chip-thumbnail" />
    <rect
       id="rect1150-7"
       class="chip-container"
       width="14.745883"
       height="5.2297635"
       x="356.74368"
       y="94.621872"
       ry="1.5" />
    <text
       xml:space="preserve"
       style="font-style:normal;font-weight:normal;font-size:3.52778px;line-height:125%;font-family:Roboto;letter-spacing:0px;word-spacing:0px"
       x="363.54248"
       y="98.623299"
       id="chipContainerText-0-2-2-5"
       class="chip-text"><tspan
         sodipodi:role="line"
         id="tspan5081-5-2-9-8-6-3-3"
         style="font-style:normal;font-variant:normal;font-weight:normal;font-stretch:normal;font-size:3.52778px;font-family:Roboto;-inkscape-font-specification:Roboto"
         x="363.54248"
         y="98.623299">WiFi</tspan></text>
    <path
       d="m 358.74356,97.564967 q -0.0676,-0.0676 -0.0702,-0.16382 -0.003,-0.0962 0.0702,-0.15862 0.32764,-0.28603 0.68648,-0.42904 0.35884,-0.14302 0.76449,-0.14302 0.40565,0 0.76449,0.14302 0.35884,0.14301 0.68648,0.42904 0.0728,0.0624 0.0728,0.15602 0,0.0936 -0.0728,0.16642 -0.0676,0.0676 -0.16122,0.0676 -0.0936,0 -0.16642,-0.0624 -0.28083,-0.23402 -0.55907,-0.33283 -0.27823,-0.0988 -0.56426,-0.0988 -0.28603,0 -0.56426,0.0988 -0.27824,0.0988 -0.55907,0.33283 -0.0728,0.0624 -0.16641,0.0624 -0.0936,0 -0.16123,-0.0676 z m -0.8789,-0.8789 q -0.0676,-0.0676 -0.0702,-0.16642 -0.003,-0.0988 0.0702,-0.16121 0.47326,-0.42646 1.06873,-0.68128 0.59547,-0.25483 1.26114,-0.25483 0.66568,0 1.26114,0.25483 0.59547,0.25482 1.06873,0.68128 0.0728,0.0624 0.0728,0.15862 0,0.0962 -0.0728,0.16901 -0.0676,0.0676 -0.16382,0.0676 -0.0962,0 -0.16902,-0.0624 -0.43165,-0.36924 -0.93091,-0.58506 -0.49925,-0.21583 -1.06612,-0.21583 -0.56686,0 -1.06612,0.21583 -0.49926,0.21582 -0.93091,0.58506 -0.0728,0.0624 -0.16902,0.0624 -0.0962,0 -0.16382,-0.0676 z m 2.32987,2.236263 q -0.18722,0 -0.32764,-0.14042 -0.14041,-0.14041 -0.14041,-0.327643 0,-0.18722 0.14041,-0.32763 0.14042,-0.14042 0.32764,-0.14042 0.18722,0 0.32764,0.14042 0.14041,0.14041 0.14041,0.32763 0,0.187233 -0.14041,0.327643 -0.14042,0.14042 -0.32764,0.14042 z"
       id="chipIcon9-5"
       class="chip-thumbnail" />
    <rect
       id="rect1150-9"
       class="chip-container"
       width="14.745883"
       height="5.2297635"
       x="384.0141"
       y="87.192345"
       ry="1.5" />
    <text
       xml:space="preserve"
       style="font-style:normal;font-weight:normal;font-size:3.52778px;line-height:125%;font-family:Roboto;letter-spacing:0px;word-spacing:0px"
       x="390.8129"
       y="91.193779"
       id="chipContainerText-0-2-2-1"
       class="chip-text"><tspan
         sodipodi:role="line"
         id="tspan5081-5-2-9-8-6-3-2"
         style="font-style:normal;font-variant:normal;font-weight:normal;font-stretch:normal;font-size:3.52778px;font-family:Roboto;-inkscape-font-specification:Roboto"
         x="390.8129"
         y="91.193779">WiFi</tspan></text>
    <path
       d="m 386.01399,90.135444 q -0.0676,-0.0676 -0.0702,-0.16382 -0.003,-0.0962 0.0702,-0.15862 0.32764,-0.28603 0.68648,-0.42904 0.35884,-0.14302 0.76449,-0.14302 0.40565,0 0.76449,0.14302 0.35884,0.14301 0.68648,0.42904 0.0728,0.0624 0.0728,0.15602 0,0.0936 -0.0728,0.16642 -0.0676,0.0676 -0.16122,0.0676 -0.0936,0 -0.16642,-0.0624 -0.28083,-0.23402 -0.55907,-0.33283 -0.27823,-0.0988 -0.56426,-0.0988 -0.28603,0 -0.56426,0.0988 -0.27824,0.0988 -0.55907,0.33283 -0.0728,0.0624 -0.16641,0.0624 -0.0936,0 -0.16123,-0.0676 z m -0.8789,-0.8789 q -0.0676,-0.0676 -0.0702,-0.16642 -0.003,-0.0988 0.0702,-0.16121 0.47326,-0.42646 1.06873,-0.68128 0.59547,-0.25483 1.26114,-0.25483 0.66568,0 1.26114,0.25483 0.59547,0.25482 1.06873,0.68128 0.0728,0.0624 0.0728,0.15862 0,0.0962 -0.0728,0.16901 -0.0676,0.0676 -0.16382,0.0676 -0.0962,0 -0.16902,-0.0624 -0.43165,-0.36924 -0.93091,-0.58506 -0.49925,-0.21583 -1.06612,-0.21583 -0.56686,0 -1.06612,0.21583 -0.49926,0.21582 -0.93091,0.58506 -0.0728,0.0624 -0.16902,0.0624 -0.0962,0 -0.16382,-0.0676 z m 2.32987,2.23626 q -0.18722,0 -0.32764,-0.14042 -0.14041,-0.14041 -0.14041,-0.32764 0,-0.18722 0.14041,-0.32763 0.14042,-0.14042 0.32764,-0.14042 0.18722,0 0.32764,0.14042 0.14041,0.14041 0.14041,0.32763 0,0.18723 -0.14041,0.32764 -0.14042,0.14042 -0.32764,0.14042 z"
       id="chipIcon9-7"
       class="chip-thumbnail" />
    <rect
       id="rect1154"
       class="chip-container"
       width="22.053551"
       height="5.1837859"
       x="331.01111"
       y="94.644867"
       ry="1.5" />
    <text
       xml:space="preserve"
       style="font-style:normal;font-weight:normal;font-size:3.52778px;line-height:125%;font-family:Roboto;letter-spacing:0px;word-spacing:0px"
       x="339.34018"
       y="98.608658"
       id="text10511"
       class="chip-text"><tspan
         sodipodi:role="line"
         id="tspan10509"
         style="font-style:normal;font-variant:normal;font-weight:normal;font-stretch:normal;font-size:3.52778px;font-family:Roboto;-inkscape-font-specification:Roboto"
         x="339.34018"
         y="98.608658">Parking</tspan></text>
    <path
       d="m 333.44618,98.389475 v 0.246095 q 0,0.093 -0.0629,0.15312 -0.0629,0.0602 -0.15586,0.0602 -0.093,0 -0.15586,-0.0629 -0.0629,-0.0629 -0.0629,-0.15585 v -1.717194 l 0.46484,-1.400001 q 0.0273,-0.07656 0.0902,-0.120312 0.0629,-0.04375 0.14492,-0.04375 h 2.5375 q 0.082,0 0.14492,0.04375 0.0629,0.04375 0.0902,0.120312 l 0.46485,1.400001 v 1.717194 q 0,0.093 -0.0629,0.15585 -0.0629,0.0629 -0.15586,0.0629 -0.093,0 -0.15859,-0.0656 -0.0656,-0.0656 -0.0656,-0.15859 v -0.235165 z m 0.0164,-1.804687 h 3.02969 l -0.30079,-0.907813 h -2.42812 z m 0.4539,1.203125 q 0.12578,0 0.21055,-0.0875 0.0848,-0.0875 0.0848,-0.207813 0,-0.125781 -0.0848,-0.216016 -0.0848,-0.09023 -0.21055,-0.09023 -0.12578,0 -0.21601,0.09023 -0.0902,0.09024 -0.0902,0.216016 0,0.125781 0.0902,0.210547 0.0902,0.08477 0.21601,0.08477 z m 2.12735,0 q 0.12578,0 0.21601,-0.0875 0.0902,-0.0875 0.0902,-0.207813 0,-0.125781 -0.0902,-0.216016 -0.0902,-0.09023 -0.21601,-0.09023 -0.12578,0 -0.21055,0.09023 -0.0848,0.09024 -0.0848,0.216016 0,0.125781 0.0875,0.210547 0.0875,0.08477 0.20781,0.08477 z"
       id="chipIcon5"
       class="chip-thumbnail" />
    <rect
       id="rect1148"
       class="chip-container"
       width="13.004546"
       height="5.2297635"
       x="349.15265"
       y="140.34377"
       ry="1.5" />
    <text
       xml:space="preserve"
       style="font-style:normal;font-weight:normal;font-size:3.52778px;line-height:125%;font-family:Roboto;letter-spacing:0px;word-spacing:0px"
       x="354.76273"
       y="144.33057"
       id="text8762"
       class="chip-text"><tspan
         sodipodi:role="line"
         id="tspan8760"
         style="font-style:normal;font-variant:normal;font-weight:normal;font-stretch:normal;font-size:3.52778px;font-family:Roboto;-inkscape-font-specification:Roboto"
         x="354.76273"
         y="144.33057">Spa</tspan></text>
    <path
       d="m 352.21385,144.53732 q -0.005,0.0956 -0.0752,0.15259 -0.0706,0.0569 -0.16169,0.0342 -0.6149,-0.14575 -1.05898,-0.61033 -0.44409,-0.46459 -0.52608,-1.25711 -0.009,-0.0911 0.0569,-0.15487 0.066,-0.0638 0.15714,-0.0501 0.80619,0.10931 1.21384,0.63767 0.40765,0.52835 0.39398,1.248 z m -0.1503,-3.22932 q 0.0501,-0.0774 0.13664,-0.0774 0.0865,0 0.13664,0.0774 0.20952,0.31428 0.35755,0.71737 0.14803,0.4031 0.15714,0.69005 -0.1913,0.0774 -0.37577,0.28012 -0.18447,0.20268 -0.28012,0.37576 -0.1002,-0.17308 -0.27556,-0.37576 -0.17536,-0.20269 -0.37121,-0.28012 0.009,-0.29151 0.15942,-0.69232 0.1503,-0.40082 0.35527,-0.7151 z m 1.7308,1.34365 q 0.0911,-0.0137 0.15714,0.0501 0.0661,0.0638 0.0569,0.15487 -0.0774,0.77886 -0.51014,1.23433 -0.4327,0.45548 -1.02026,0.61945 0.0228,-0.25962 -0.0114,-0.54429 -0.0341,-0.28467 -0.11614,-0.5033 0.15941,-0.35527 0.52151,-0.64222 0.36211,-0.28695 0.92234,-0.36894 z"
       id="chipIcon6"
       class="chip-thumbnail" />
    <rect
       id="rect1148-3"
       class="chip-container"
       width="13.004546"
       height="5.2297635"
       x="383.87451"
       y="146.85164"
       ry="1.5" />
    <text
       xml:space="preserve"
       style="font-style:normal;font-weight:normal;font-size:3.52778px;line-height:125%;font-family:Roboto;letter-spacing:0px;word-spacing:0px"
       x="389.48459"
       y="150.83844"
       id="text8762-6"
       class="chip-text"><tspan
         sodipodi:role="line"
         id="tspan8760-0"
         style="font-style:normal;font-variant:normal;font-weight:normal;font-stretch:normal;font-size:3.52778px;font-family:Roboto;-inkscape-font-specification:Roboto"
         x="389.48459"
         y="150.83844">Spa</tspan></text>
    <path
       d="m 386.93571,151.04519 q -0.005,0.0956 -0.0752,0.15259 -0.0706,0.0569 -0.16169,0.0342 -0.6149,-0.14575 -1.05898,-0.61033 -0.44409,-0.46459 -0.52608,-1.25711 -0.009,-0.0911 0.0569,-0.15487 0.066,-0.0638 0.15714,-0.0501 0.80619,0.10931 1.21384,0.63767 0.40765,0.52835 0.39398,1.248 z m -0.1503,-3.22932 q 0.0501,-0.0774 0.13664,-0.0774 0.0865,0 0.13664,0.0774 0.20952,0.31428 0.35755,0.71737 0.14803,0.4031 0.15714,0.69005 -0.1913,0.0774 -0.37577,0.28012 -0.18447,0.20268 -0.28012,0.37576 -0.1002,-0.17308 -0.27556,-0.37576 -0.17536,-0.20269 -0.37121,-0.28012 0.009,-0.29151 0.15942,-0.69232 0.1503,-0.40082 0.35527,-0.7151 z m 1.7308,1.34365 q 0.0911,-0.0137 0.15714,0.0501 0.0661,0.0638 0.0569,0.15487 -0.0774,0.77886 -0.51014,1.23433 -0.4327,0.45548 -1.02026,0.61945 0.0228,-0.25962 -0.0114,-0.54429 -0.0341,-0.28467 -0.11614,-0.5033 0.15941,-0.35527 0.52151,-0.64222 0.36211,-0.28695 0.92234,-0.36894 z"
       id="chipIcon6-6"
       class="chip-thumbnail" />
    <rect
       id="rect1148-3-3"
       class="chip-container"
       width="9.9783525"
       height="5.2297635"
       x="402.52344"
       y="87.192345"
       ry="1.5" />
    <text
       xml:space="preserve"
       style="font-style:normal;font-weight:normal;font-size:3.52778px;line-height:125%;font-family:Roboto;letter-spacing:0px;word-spacing:0px"
       x="408.13351"
       y="91.179146"
       id="text8762-6-7"
       class="chip-text"><tspan
         sodipodi:role="line"
         id="tspan8760-0-5"
         style="font-style:normal;font-variant:normal;font-weight:normal;font-stretch:normal;font-size:3.52778px;font-family:Roboto;-inkscape-font-specification:Roboto"
         x="408.13351"
         y="91.179146">Sp</tspan></text>
    <path
       d="m 405.58464,91.385879 q -0.005,0.0956 -0.0752,0.15259 -0.0706,0.0569 -0.16169,0.0342 -0.6149,-0.14575 -1.05898,-0.61033 -0.44409,-0.46459 -0.52608,-1.25711 -0.009,-0.0911 0.0569,-0.15487 0.066,-0.0638 0.15714,-0.0501 0.80619,0.10931 1.21384,0.63767 0.40765,0.52835 0.39398,1.248 z m -0.1503,-3.22932 q 0.0501,-0.0774 0.13664,-0.0774 0.0865,0 0.13664,0.0774 0.20952,0.31428 0.35755,0.71737 0.14803,0.4031 0.15714,0.69005 -0.1913,0.0774 -0.37577,0.28012 -0.18447,0.20268 -0.28012,0.37576 -0.1002,-0.17308 -0.27556,-0.37576 -0.17536,-0.20269 -0.37121,-0.28012 0.009,-0.29151 0.15942,-0.69232 0.1503,-0.40082 0.35527,-0.7151 z m 1.7308,1.34365 q 0.0911,-0.0137 0.15714,0.0501 0.0661,0.0638 0.0569,0.15487 -0.0774,0.77886 -0.51014,1.23433 -0.4327,0.45548 -1.02026,0.61945 0.0228,-0.25962 -0.0114,-0.54429 -0.0341,-0.28467 -0.11614,-0.5033 0.15941,-0.35527 0.52151,-0.64222 0.36211,-0.28695 0.92234,-0.36894 z"
       id="chipIcon6-6-9"
       class="chip-thumbnail" />
    <g
       id="g412">
      <rect
         id="rect87126-7-4-9-68"
         width="87"
         height="11.86814"
         x="323.31622"
         y="175.54401"
         ry="0"
         class="device-frame" />
      <path
         d="m 344.5815,186.2616 -3.49435,-3.49436 3.49435,-3.49434 0.64743,0.65571 -2.83864,2.83863 2.83864,2.83864 z"
         id="path86606-8-2-2-6"
         class="device-button" />
      <path
         d="m 387.51666,185.93375 v -6.33299 h 6.33299 v 6.33299 z m 0.75528,-0.75531 h 4.81407 v -4.81409 h -4.81407 z m 0,0 v -4.81409 z"
         id="path84114-7-2-5-87"
         class="device-button" />
      <path
         d="m 367.07754,186.26575 q -0.72212,0 -1.3612,-0.26974 -0.63912,-0.26978 -1.11638,-0.74703 -0.47726,-0.47728 -0.74699,-1.11634 -0.26979,-0.63913 -0.26979,-1.36124 0,-0.72212 0.26979,-1.36121 0.26973,-0.63911 0.74699,-1.11638 0.47726,-0.47725 1.11638,-0.75114 0.63908,-0.27392 1.35291,-0.27392 0.7304,0 1.37369,0.27392 0.64323,0.27389 1.11632,0.75114 0.47312,0.47727 0.74705,1.11638 0.27387,0.63909 0.27387,1.3695 0,0.71382 -0.27387,1.35295 -0.27393,0.63906 -0.75119,1.11634 -0.47726,0.47725 -1.11634,0.74703 -0.63913,0.26974 -1.36124,0.26974 z m 0,-0.75532 q 1.13713,0 1.93807,-0.80097 0.80097,-0.80093 0.80097,-1.93806 0,-1.13714 -0.80097,-1.93807 -0.80094,-0.80094 -1.93807,-0.80094 -1.13713,0 -1.93807,0.80094 -0.80095,0.80093 -0.80095,1.93807 0,1.13713 0.80095,1.93806 0.80094,0.80097 1.93807,0.80097 z m 0,-2.73903 z"
         id="path85723-0-0-4-9"
         class="device-button" />
      <g
         id="g3843"
         transform="translate(77.384079)">
        <path
           d="m 304.97658,35.44219 q 0.35444,-0.270278 0.75977,-0.42047 0.40549,-0.150199 0.8679,-0.150199 0.46241,0 0.87091,0.150199 0.40836,0.150192 0.76266,0.42047 l 0.66667,-0.660757 q -0.50449,-0.390342 -1.08106,-0.609589 -0.57658,-0.219239 -1.21918,-0.219239 -0.6426,0 -1.21917,0.219239 -0.57657,0.219247 -1.08107,0.609589 z m 1.62767,2.108094 q -0.0422,0 -0.0751,-0.01208 -0.033,-0.012 -0.063,-0.04192 l -2.60675,-2.606699 q -0.0599,-0.05992 -0.057,-0.141119 0.003,-0.081 0.0632,-0.135056 0.57052,-0.504509 1.26731,-0.78386 0.69665,-0.279199 1.47142,-0.279199 0.77478,0 1.47142,0.279199 0.6968,0.279351 1.26732,0.78386 0.0602,0.05408 0.063,0.135056 0.003,0.08116 -0.057,0.141119 l -2.60668,2.606699 q -0.0299,0.02992 -0.063,0.04192 -0.033,0.01208 -0.0751,0.01208 z"
           id="path3829"
           class="device-statusbar-labeltext" />
        <path
           d="m 313.72916,37.194574 h 1.11485 v -3.041961 l -1.11485,1.114858 z m -2.35191,0.355742 q -0.11671,0 -0.16181,-0.108943 -0.0452,-0.108808 0.0344,-0.193663 l 3.64717,-3.641951 q 0.085,-0.08486 0.19379,-0.03984 0.10882,0.04504 0.10882,0.161944 v 3.647174 q 0,0.07424 -0.0505,0.124743 -0.0503,0.05048 -0.12996,0.05048 z"
           id="path3831"
           class="device-statusbar-labeltext" />
        <path
           d="m 328.79464,37.550308 q -0.0701,0 -0.11761,-0.04752 -0.0474,-0.04752 -0.0474,-0.117479 v -3.319952 q 0,-0.07496 0.0474,-0.122519 0.0475,-0.04752 0.11761,-0.04752 h 0.43498 v -0.179991 q 0,-0.07 0.0474,-0.11748 0.0475,-0.04752 0.1176,-0.04752 h 0.46991 q 0.0701,0 0.11759,0.04752 0.0474,0.04752 0.0474,0.11748 v 0.179991 h 0.43499 q 0.0701,0 0.1176,0.04752 0.0474,0.04752 0.0474,0.122519 v 3.319952 q 0,0.07 -0.0474,0.117479 -0.0475,0.04752 -0.1176,0.04752 z m 0.16991,-1.61504 h 1.33005 v -1.704912 h -1.33005 z"
           id="path3833"
           class="device-statusbar-labeltext" />
        <text
           xml:space="preserve"
           style="font-style:normal;font-variant:normal;font-weight:bold;font-stretch:normal;font-size:4.93889px;line-height:125%;font-family:Roboto;-inkscape-font-specification:'Sans, Bold';font-variant-ligatures:normal;font-variant-caps:normal;font-variant-numeric:normal;font-variant-east-asian:normal;letter-spacing:0px;word-spacing:0px"
           x="318.27667"
           y="37.471352"
           id="text3837"
           class="device-statusbar-labeltext"><tspan
             sodipodi:role="line"
             id="tspan3835"
             style="font-style:normal;font-variant:normal;font-weight:500;font-stretch:normal;font-size:4.93889px;font-family:Roboto;-inkscape-font-specification:'Roboto Medium';font-variant-ligatures:normal;font-variant-caps:normal;font-variant-numeric:normal;font-variant-east-asian:normal;fill:#ffffff"
             x="318.27667"
             y="37.471352">72%</tspan></text>
        <text
           xml:space="preserve"
           style="font-style:normal;font-variant:normal;font-weight:bold;font-stretch:normal;font-size:4.93889px;line-height:125%;font-family:Roboto;-inkscape-font-specification:'Sans, Bold';font-variant-ligatures:normal;font-variant-caps:normal;font-variant-numeric:normal;font-variant-east-asian:normal;letter-spacing:0px;word-spacing:0px"
           x="248.42583"
           y="37.471352"
           id="text3841"
           class="device-statusbar-labeltext"><tspan
             sodipodi:role="line"
             id="tspan3839"
             style="font-style:normal;font-variant:normal;font-weight:500;font-stretch:normal;font-size:4.93889px;font-family:Roboto;-inkscape-font-specification:'Roboto Medium';font-variant-ligatures:normal;font-variant-caps:normal;font-variant-numeric:normal;font-variant-east-asian:normal;fill:#ffffff"
             x="248.42583"
             y="37.471352">12:30</tspan></text>
      </g>
      <path
         style="color:#000000;fill:#000000;stroke-linecap:square;-inkscape-stroke:none"
         d="m 325.8388,27.570325 c -2.84285,0 -5.22461,2.381761 -5.22461,5.224609 V 185.34375 c 0,2.84285 2.38176,5.22657 5.22461,5.22657 h 82.55078 c 2.84285,0 5.22461,-2.38372 5.22461,-5.22657 V 32.794934 c 0,-2.842848 -2.38176,-5.224609 -5.22461,-5.224609 z m 0.66081,3.354166 c 0,0 79.63141,0.01523 81.22916,0 1.59775,-0.01523 2.53125,1.059019 2.53125,2.602083 0,0 -0.007,149.479706 0,151.087496 0.007,1.60779 -0.98468,2.60208 -2.53125,2.60208 -1.54657,0 -79.63141,-0.0153 -81.22916,0 -1.59775,0.0152 -2.53125,-1.05901 -2.53125,-2.60208 V 33.526574 c 0,-1.754401 0.78627,-2.602083 2.53125,-2.602083 z"
         id="path3123-6"
         sodipodi:nodetypes="sssssssssszzzzzzss"
         class="device-frame" />
    </g>
  </g>
</svg>
