<?xml version="1.0" encoding="UTF-8" standalone="no"?>
<svg
   height="2184.1565"
   id="svg8"
   version="1.1"
   viewBox="0 0 116.23619 218.41565"
   width="1162.3619"
   inkscape:version="1.2.1 (9c6d41e410, 2022-07-14, custom)"
   sodipodi:docname="mockup3.svg"
   xmlns:inkscape="http://www.inkscape.org/namespaces/inkscape"
   xmlns:sodipodi="http://sodipodi.sourceforge.net/DTD/sodipodi-0.dtd"
   xmlns="http://www.w3.org/2000/svg"
   xmlns:svg="http://www.w3.org/2000/svg">
  <style
     id="style"><!-- needed for Inkscape only, must be removed by build process -->







     @import url(mockstyle_inkscape.css);
  </style>
  <defs
     id="defs2" />
  <sodipodi:namedview
     bordercolor="#666666"
     borderopacity="1.0"
     id="base"
     pagecolor="#ffffff"
     showgrid="false"
     inkscape:bbox-nodes="true"
     inkscape:bbox-paths="true"
     inkscape:current-layer="layer1"
     inkscape:cx="1143.1952"
     inkscape:cy="1584.6804"
     inkscape:document-rotation="0"
     inkscape:document-units="px"
     inkscape:pageopacity="0.0"
     inkscape:pageshadow="2"
     inkscape:snap-bbox="true"
     inkscape:snap-bbox-edge-midpoints="true"
     inkscape:snap-bbox-midpoints="true"
     inkscape:snap-global="false"
     inkscape:window-height="708"
     inkscape:window-maximized="1"
     inkscape:window-width="1366"
     inkscape:window-x="0"
     inkscape:window-y="0"
     inkscape:zoom="0.27860508"
     inkscape:showpageshadow="2"
     inkscape:pagecheckerboard="0"
     inkscape:deskcolor="#d1d1d1" />
  <g
     id="layer1"
     inkscape:groupmode="layer"
     inkscape:label="Ebene 1">
    <rect
       id="deviceBackground-0-0-1-4-9-2"
       class="device-background"
       width="107.79967"
       height="196.2267"
       x="4.2933106"
       y="4.3743129"
       ry="2.7811289"
       style="stroke-width:1" />
    <text
       xml:space="preserve"
       style="font-style:normal;font-weight:normal;font-size:8.68131px;line-height:125%;font-family:Roboto;letter-spacing:0px;word-spacing:0px;fill:#000000;stroke-width:1"
       x="32.588947"
       y="216.58565"
       id="text9214-7-0-6"
       class="mock-description"><tspan
         sodipodi:role="line"
         x="32.588947"
         y="216.58565"
         id="tspan173836"
         style="stroke-width:1">Music Player</tspan></text>
    <rect
       id="topappbarContainer-9-7"
       class="topappbar-container"
       width="108.73709"
       height="30.376324"
       x="3.8885558"
       y="4.0693831"
       style="stroke-width:1" />
    <rect
       style="mix-blend-mode:normal;stroke-width:1"
       id="rect87126-2-5-2-6-8"
       width="108.73709"
       height="12.498516"
       x="3.8885252"
       y="4.0693831"
       class="device-statusbar" />
    <path
       d="m 106.42455,30.308769 q -0.50888,0 -0.87032,-0.36595 -0.36167,-0.366177 -0.36167,-0.87504 0,-0.06236 0.009,-0.151701 0.009,-0.08935 0.0357,-0.178472 l -2.26773,-1.321349 q -0.16948,0.178482 -0.39274,0.281107 -0.22326,0.10285 -0.4643,0.10285 -0.51766,0 -0.87932,-0.366169 -0.36146,-0.365957 -0.36146,-0.874822 0,-0.517869 0.36146,-0.879324 0.36166,-0.361675 0.87932,-0.361675 0.24104,0 0.4598,0.08935 0.21877,0.08935 0.39724,0.267827 l 2.26773,-1.312343 q -0.0267,-0.07134 -0.0357,-0.156195 -0.009,-0.08485 -0.009,-0.165201 0,-0.508863 0.36617,-0.870328 0.36596,-0.361665 0.87482,-0.361665 0.50886,0 0.87483,0.361665 0.36617,0.361465 0.36617,0.870328 0,0.51787 -0.36617,0.883828 -0.36597,0.365959 -0.88383,0.365959 -0.24105,0 -0.45958,-0.07588 -0.21876,-0.07588 -0.37947,-0.254327 l -2.27652,1.258782 q 0.0269,0.07134 0.0356,0.173978 0.009,0.102638 0.009,0.1652 0,0.07134 -0.009,0.147409 -0.009,0.07588 -0.0356,0.156194 l 2.27652,1.285564 q 0.16071,-0.169695 0.37047,-0.245541 0.20975,-0.07588 0.46858,-0.07588 0.51786,0 0.88383,0.361456 0.36617,0.361666 0.36617,0.879325 0,0.508864 -0.36617,0.875041 -0.36597,0.36595 -0.88383,0.36595 z m 0.009,-5.811811 q 0.18748,0 0.3169,-0.133909 0.12941,-0.133918 0.12941,-0.312398 0,-0.187478 -0.13391,-0.316885 -0.13392,-0.129632 -0.3124,-0.129632 -0.18748,0 -0.31689,0.129632 -0.12941,0.129407 -0.12941,0.316885 0,0.187485 0.12941,0.316892 0.12941,0.129415 0.31689,0.129415 z m -4.32099,2.508559 q 0.18748,0 0.3171,-0.129407 0.12943,-0.129414 0.12943,-0.316892 0,-0.187477 -0.13391,-0.316891 -0.13393,-0.129415 -0.31262,-0.129415 -0.18747,0 -0.31688,0.129415 -0.12943,0.129414 -0.12943,0.316891 0,0.187478 0.12943,0.316892 0.12941,0.129407 0.31688,0.129407 z m 4.32099,2.508779 q 0.18748,0 0.3169,-0.133909 0.12941,-0.133918 0.12941,-0.312608 0,-0.187478 -0.13391,-0.316893 -0.13392,-0.129414 -0.3124,-0.129414 -0.18748,0 -0.31689,0.129414 -0.12941,0.129415 -0.12941,0.316893 0,0.187476 0.12941,0.317102 0.12941,0.129415 0.31689,0.129415 z m 0,-5.463645 z m -4.32099,2.508567 z m 4.32099,2.508561 z"
       id="topappbarActionMenuItem-3-8"
       class="topappbar-actionmenuitem"
       style="stroke-width:1" />
    <path
       d="m 8.0692099,29.442104 q -0.23992,0 -0.41127,-0.171354 -0.17137,-0.171367 -0.17137,-0.411264 0,-0.228398 0.17137,-0.399752 0.17135,-0.171355 0.41127,-0.171355 h 7.3912411 q 0.23991,0 0.40551,0.171355 0.16561,0.171354 0.16561,0.411263 0,0.239909 -0.16561,0.405515 -0.1656,0.165592 -0.40551,0.165592 z m 0,-2.479105 q -0.23992,0 -0.41127,-0.171355 -0.17137,-0.171367 -0.17137,-0.411264 0,-0.228385 0.17137,-0.399752 0.17135,-0.171355 0.41127,-0.171355 h 7.3912411 q 0.23991,0 0.40551,0.171355 0.16561,0.171367 0.16561,0.411276 0,0.239897 -0.16561,0.405502 -0.1656,0.165593 -0.40551,0.165593 z m 0,-2.467582 q -0.23992,0 -0.41127,-0.171355 -0.17137,-0.171367 -0.17137,-0.411276 0,-0.239897 0.17137,-0.411251 0.17135,-0.171367 0.41127,-0.171367 h 7.3912411 q 0.23991,0 0.40551,0.177129 0.16561,0.177116 0.16561,0.405489 0,0.239909 -0.16561,0.411276 -0.1656,0.171355 -0.40551,0.171355 z"
       id="topappbarNavigationIcon-9-9"
       class="topappbar-navigationicon"
       style="stroke-width:1" />
    <rect
       id="bottomsheetContainer-8"
       class="bottomsheet-container"
       width="107.76381"
       height="15.719384"
       x="120.59798"
       y="82.066483"
       style="stroke-width:1" />
    <text
       xml:space="preserve"
       style="font-style:normal;font-variant:normal;font-weight:bold;font-stretch:normal;font-size:5.29103px;line-height:125%;font-family:Roboto-serif;-inkscape-font-specification:'sans-serif, Bold';font-variant-ligatures:normal;font-variant-caps:normal;font-variant-numeric:normal;font-variant-east-asian:normal;letter-spacing:0px;word-spacing:0px;stroke-width:1"
       x="140.60336"
       y="95.044296"
       id="backdropText-4-3-97"
       class="label-onsurface"><tspan
         sodipodi:role="line"
         id="tspan9212-1-9-1-56-0-0-8"
         style="font-style:normal;font-variant:normal;font-weight:normal;font-stretch:normal;font-size:5.29103px;font-family:Roboto;-inkscape-font-specification:Roboto;font-variant-ligatures:normal;font-variant-caps:normal;font-variant-numeric:normal;font-variant-east-asian:normal;stroke-width:1"
         x="140.60336"
         y="95.044296">Jailhouse Rock</tspan></text>
    <text
       xml:space="preserve"
       style="font-style:normal;font-variant:normal;font-weight:bold;font-stretch:normal;font-size:5.29103px;line-height:125%;font-family:Roboto;-inkscape-font-specification:'Roboto Bold';font-variant-ligatures:normal;font-variant-caps:normal;font-variant-numeric:normal;font-variant-east-asian:normal;letter-spacing:0px;word-spacing:0px;stroke-width:1"
       x="140.40443"
       y="88.482407"
       id="backdropText-4-3-97-8"
       class="label-onsurface"><tspan
         sodipodi:role="line"
         id="tspan9212-1-9-1-56-0-0-8-7"
         style="font-style:normal;font-variant:normal;font-weight:bold;font-stretch:normal;font-size:5.29103px;font-family:Roboto;-inkscape-font-specification:'Roboto Bold';font-variant-ligatures:normal;font-variant-caps:normal;font-variant-numeric:normal;font-variant-east-asian:normal;stroke-width:1"
         x="140.40443"
         y="88.482407">Elivs Presley</tspan></text>
    <path
       d="m 125.97016,87.848022 q -0.19163,-0.19161 -0.19776,-0.45345 -0.007,-0.26184 0.18519,-0.46634 l 2.45275,-2.43986 q 0.0892,-0.0896 0.2042,-0.14042 0.11499,-0.0512 0.24282,-0.0512 0.12785,0 0.24283,0.0512 0.11498,0.0509 0.20418,0.14042 l 2.46562,2.43986 q 0.17875,0.19163 0.17875,0.4599 0,0.26828 -0.19162,0.44733 -0.19163,0.19162 -0.4599,0.19162 -0.26826,0 -0.45988,-0.19162 l -1.97998,-1.96743 -1.97999,1.99288 q -0.17905,0.19161 -0.44732,0.18517 -0.26828,-0.007 -0.45989,-0.19806 z"
       id="bottomappbarNavigationIcon-2"
       class="bottomsheet-content"
       style="stroke-width:1" />
    <path
       d="m 208.29285,94.515182 q -0.21948,0.14632 -0.44626,0.0146 -0.2268,-0.13169 -0.2268,-0.39506 v -6.58422 q 0,-0.26336 0.2268,-0.39505 0.22678,-0.13168 0.44626,0.0146 l 5.17957,3.30675 q 0.20485,0.13168 0.20485,0.36578 0,0.23411 -0.20485,0.3658 z"
       id="bottomappbarNavigationIcon-5"
       class="iconbutton-tonal-icon"
       style="stroke-width:1" />
    <path
       d="m 218.35503,93.981552 q -0.17953,0.13167 -0.37102,0.0299 -0.19149,-0.10174 -0.19149,-0.31718 v -4.38045 q 0,-0.21543 0.19149,-0.31716 0.19149,-0.10174 0.37102,0.0299 l 3.14771,2.17826 q 0.16757,0.10774 0.16757,0.29922 0,0.1915 -0.16757,0.29921 z m 4.87118,0 q -0.17952,0.13167 -0.37103,0.0299 -0.1915,-0.10174 -0.1915,-0.31718 v -4.38045 q 0,-0.21543 0.1915,-0.31716 0.19151,-0.10174 0.37103,0.0299 l 3.14772,2.17826 q 0.16755,0.10774 0.16755,0.29922 0,0.1915 -0.16755,0.29921 z"
       id="bottomappbarNavigationIcon-3"
       class="iconbutton-tonal-icon"
       style="stroke-width:1" />
    <path
       d="m 201.918,93.337172 -3.16938,-2.19327 q -0.16871,-0.10849 -0.16871,-0.30127 0,-0.19281 0.16871,-0.30128 l 3.16938,-2.19326 q 0.18077,-0.13256 0.37358,-0.0301 0.19282,0.10249 0.19282,0.31935 v 4.41064 q 0,0.21691 -0.19282,0.31935 -0.19281,0.10248 -0.37358,-0.0301 z m -4.84446,0 -3.16939,-2.19327 q -0.16871,-0.10849 -0.16871,-0.30127 0,-0.19281 0.16871,-0.30128 l 3.16939,-2.19326 q 0.18077,-0.13256 0.37358,-0.0301 0.19282,0.10249 0.19282,0.31935 v 4.41064 q 0,0.21691 -0.19282,0.31935 -0.19281,0.10248 -0.37358,-0.0301 z"
       id="bottomappbarNavigationIcon-4"
       class="iconbutton-tonal-icon"
       style="stroke-width:1" />
    <text
       xml:space="preserve"
       style="font-style:normal;font-variant:normal;font-weight:normal;font-stretch:normal;font-size:6.17288px;line-height:125%;font-family:Roboto;-inkscape-font-specification:'Roboto, Normal';font-variant-ligatures:normal;font-variant-caps:normal;font-variant-numeric:normal;font-variant-east-asian:normal;letter-spacing:0px;word-spacing:0px;stroke-width:1"
       x="21.339911"
       y="28.071564"
       id="topappbarTitle-6-6"
       class="topappbar-title"><tspan
         sodipodi:role="line"
         id="tspan9212-1-9-1-7-7-0-0-0"
         style="font-style:normal;font-variant:normal;font-weight:normal;font-stretch:normal;font-size:6.17288px;font-family:Roboto;-inkscape-font-specification:'Roboto, Normal';font-variant-ligatures:normal;font-variant-caps:normal;font-variant-numeric:normal;font-variant-east-asian:normal;stroke-width:1"
         x="21.339911"
         y="28.071564">Music Player</tspan></text>
    <g
       id="g641"
       transform="translate(0,-22.561076)">
      <rect
         id="listContainer1"
         class="container-surface"
         width="108.73709"
         height="112.23096"
         x="3.8885558"
         y="57.006783"
         ry="0"
         style="stroke-width:1" />
      <circle
         cx="16.368322"
         cy="166.41112"
         id="iconButtonContainer-1-27"
         class="iconbutton-tonal-container"
         r="7.3733954"
         style="stroke-width:1" />
      <path
         d="m 15.462191,170.16063 q -0.65618,0 -1.10925,-0.45307 -0.45307,-0.45307 -0.45307,-1.10924 0,-0.65617 0.45307,-1.10924 0.45307,-0.45308 1.10925,-0.45308 0.29162,0 0.52597,0.0834 0.23435,0.0834 0.41142,0.22915 v -4.06202 q 0,-0.26038 0.18226,-0.44266 0.18228,-0.18227 0.44266,-0.18227 h 1.11446 q 0.29162,0 0.49473,0.2031 0.2031,0.20311 0.2031,0.49473 0,0.29164 -0.2031,0.49994 -0.20311,0.20832 -0.49473,0.20832 h -1.11446 v 4.53071 q 0,0.65617 -0.45307,1.10924 -0.45307,0.45307 -1.10924,0.45307 z"
         id="iconButtonIcon-1-0"
         class="iconbutton-tonal-icon"
         style="stroke-width:1" />
      <text
         xml:space="preserve"
         style="font-style:normal;font-weight:normal;font-size:5.29103px;line-height:125%;font-family:Roboto;letter-spacing:0px;word-spacing:0px;stroke-width:1"
         x="29.973042"
         y="74.271317"
         id="backdropText-4-5"
         class="label-onsurface"><tspan
           sodipodi:role="line"
           id="tspan9212-1-9-1-56-0-7"
           style="font-size:5.29103px;stroke-width:1"
           x="29.973042"
           y="74.271317">Queen</tspan></text>
      <text
         xml:space="preserve"
         style="font-style:normal;font-weight:normal;font-size:5.29103px;line-height:125%;font-family:Roboto;letter-spacing:0px;word-spacing:0px;stroke-width:1"
         x="29.973042"
         y="98.876343"
         id="backdropText-4-5-4"
         class="label-onsurface"><tspan
           sodipodi:role="line"
           id="tspan9212-1-9-1-56-0-7-9"
           style="font-size:5.29103px;stroke-width:1"
           x="29.973042"
           y="98.876343">Stairway to Heaven</tspan></text>
      <text
         xml:space="preserve"
         style="font-style:normal;font-weight:normal;font-size:5.29103px;line-height:125%;font-family:Roboto;letter-spacing:0px;word-spacing:0px;stroke-width:1"
         x="29.973042"
         y="123.48139"
         id="backdropText-4-5-9"
         class="label-onsurface"><tspan
           sodipodi:role="line"
           id="tspan9212-1-9-1-56-0-7-4"
           style="font-size:5.29103px;stroke-width:1"
           x="29.973042"
           y="123.48139">I Can't Get No Satisfaction</tspan></text>
      <text
         xml:space="preserve"
         style="font-style:normal;font-weight:normal;font-size:5.29103px;line-height:125%;font-family:Roboto;letter-spacing:0px;word-spacing:0px;stroke-width:1"
         x="29.973042"
         y="147.425"
         id="backdropText-4-5-5"
         class="label-onsurface"><tspan
           sodipodi:role="line"
           id="tspan9212-1-9-1-56-0-7-93"
           style="font-size:5.29103px;stroke-width:1"
           x="29.973042"
           y="147.425">I Wanna Hold Your Hand</tspan></text>
      <text
         xml:space="preserve"
         style="font-style:normal;font-variant:normal;font-weight:normal;font-stretch:normal;font-size:6.17288px;line-height:125%;font-family:Roboto;-inkscape-font-specification:'Roboto, Normal';font-variant-ligatures:normal;font-variant-caps:normal;font-variant-numeric:normal;font-variant-east-asian:normal;letter-spacing:0px;word-spacing:0px;stroke-width:1"
         x="29.961033"
         y="66.487244"
         id="backdropText-4-3"
         class="label-onsurface"><tspan
           sodipodi:role="line"
           id="tspan9212-1-9-1-56-0-0"
           style="font-style:normal;font-variant:normal;font-weight:normal;font-stretch:normal;font-size:6.17288px;font-family:Roboto;-inkscape-font-specification:'Roboto, Normal';font-variant-ligatures:normal;font-variant-caps:normal;font-variant-numeric:normal;font-variant-east-asian:normal;stroke-width:1"
           x="29.961033"
           y="66.487244">1. Bohemian Rhapsody</tspan></text>
      <text
         xml:space="preserve"
         style="font-style:normal;font-variant:normal;font-weight:normal;font-stretch:normal;font-size:6.17288px;line-height:125%;font-family:Roboto;-inkscape-font-specification:'Roboto, Normal';font-variant-ligatures:normal;font-variant-caps:normal;font-variant-numeric:normal;font-variant-east-asian:normal;letter-spacing:0px;word-spacing:0px;stroke-width:1"
         x="30.087589"
         y="91.162735"
         id="backdropText-4-3-1"
         class="label-onsurface"><tspan
           sodipodi:role="line"
           id="tspan9212-1-9-1-56-0-0-7"
           style="font-style:normal;font-variant:normal;font-weight:normal;font-stretch:normal;font-size:6.17288px;font-family:Roboto;-inkscape-font-specification:'Roboto, Normal';font-variant-ligatures:normal;font-variant-caps:normal;font-variant-numeric:normal;font-variant-east-asian:normal;stroke-width:1"
           x="30.087589"
           y="91.162735">2. Led Zeppelin</tspan></text>
      <text
         xml:space="preserve"
         style="font-style:normal;font-variant:normal;font-weight:normal;font-stretch:normal;font-size:6.17288px;line-height:125%;font-family:Roboto;-inkscape-font-specification:'Roboto, Normal';font-variant-ligatures:normal;font-variant-caps:normal;font-variant-numeric:normal;font-variant-east-asian:normal;letter-spacing:0px;word-spacing:0px;stroke-width:1"
         x="30.096821"
         y="115.83817"
         id="backdropText-4-3-8"
         class="label-onsurface"><tspan
           sodipodi:role="line"
           id="tspan9212-1-9-1-56-0-0-9"
           style="font-style:normal;font-variant:normal;font-weight:normal;font-stretch:normal;font-size:6.17288px;font-family:Roboto;-inkscape-font-specification:'Roboto, Normal';font-variant-ligatures:normal;font-variant-caps:normal;font-variant-numeric:normal;font-variant-east-asian:normal;stroke-width:1"
           x="30.096821"
           y="115.83817">3. The Rolling Stones</tspan></text>
      <text
         xml:space="preserve"
         style="font-style:normal;font-variant:normal;font-weight:normal;font-stretch:normal;font-size:6.17288px;line-height:125%;font-family:Roboto;-inkscape-font-specification:'Roboto, Normal';font-variant-ligatures:normal;font-variant-caps:normal;font-variant-numeric:normal;font-variant-east-asian:normal;letter-spacing:0px;word-spacing:0px;stroke-width:1"
         x="30.170887"
         y="139.85231"
         id="backdropText-4-3-15"
         class="label-onsurface"><tspan
           sodipodi:role="line"
           id="tspan9212-1-9-1-56-0-0-4"
           style="font-style:normal;font-variant:normal;font-weight:normal;font-stretch:normal;font-size:6.17288px;font-family:Roboto;-inkscape-font-specification:'Roboto, Normal';font-variant-ligatures:normal;font-variant-caps:normal;font-variant-numeric:normal;font-variant-east-asian:normal;stroke-width:1"
           x="30.170887"
           y="139.85231">4. The Beatles</tspan></text>
      <text
         xml:space="preserve"
         style="font-style:normal;font-variant:normal;font-weight:normal;font-stretch:normal;font-size:6.17288px;line-height:125%;font-family:Roboto;-inkscape-font-specification:'Roboto, Normal';font-variant-ligatures:normal;font-variant-caps:normal;font-variant-numeric:normal;font-variant-east-asian:normal;letter-spacing:0px;word-spacing:0px;stroke-width:1"
         x="30.041279"
         y="164.52779"
         id="backdropText-4-3-9"
         class="label-onsurface"><tspan
           sodipodi:role="line"
           id="tspan9212-1-9-1-56-0-0-2"
           style="font-style:normal;font-variant:normal;font-weight:normal;font-stretch:normal;font-size:6.17288px;font-family:Roboto;-inkscape-font-specification:'Roboto, Normal';font-variant-ligatures:normal;font-variant-caps:normal;font-variant-numeric:normal;font-variant-east-asian:normal;stroke-width:1"
           x="30.041279"
           y="164.52779">5. Nirvana</tspan></text>
      <path
         d="m 105.40055,71.889482 q -0.29809,0 -0.51382,-0.175463 -0.21573,-0.175463 -0.21573,-0.423657 0,-0.239772 0.2108,-0.423865 0.21055,-0.184091 0.50839,-0.184091 0.29782,0 0.50839,0.184091 0.2108,0.184093 0.2108,0.423865 0,0.248194 -0.20563,0.423657 -0.20537,0.175463 -0.5032,0.175463 z m 0,-2.525304 q -0.29809,0 -0.51382,-0.175669 -0.21573,-0.175461 -0.21573,-0.423656 0,-0.248196 0.2108,-0.423657 0.21055,-0.175669 0.50839,-0.175669 0.29782,0 0.50839,0.171353 0.2108,0.171147 0.2108,0.419343 0,0.248401 -0.20563,0.428179 -0.20537,0.179776 -0.5032,0.179776 z m 0,-2.51688 q -0.29809,0 -0.51382,-0.179777 -0.21573,-0.179776 -0.21573,-0.428177 0,-0.256824 0.2108,-0.427972 0.21055,-0.171148 0.50839,-0.171148 0.29782,0 0.50839,0.175462 0.2108,0.175463 0.2108,0.423658 0,0.248401 -0.20563,0.428177 -0.20537,0.179777 -0.5032,0.179777 z"
         id="topappbarActionMenuItem-2-4-9"
         class="button-text-labeltext"
         style="stroke-width:1" />
      <path
         d="m 105.40055,96.064179 q -0.29809,0 -0.51382,-0.17547 -0.21573,-0.17546 -0.21573,-0.42365 0,-0.23977 0.2108,-0.42387 0.21055,-0.18409 0.50839,-0.18409 0.29782,0 0.50839,0.18409 0.2108,0.1841 0.2108,0.42387 0,0.24819 -0.20563,0.42365 -0.20537,0.17547 -0.5032,0.17547 z m 0,-2.525305 q -0.29809,0 -0.51382,-0.17568 -0.21573,-0.17545 -0.21573,-0.42365 0,-0.24819 0.2108,-0.42366 0.21055,-0.17567 0.50839,-0.17567 0.29782,0 0.50839,0.17136 0.2108,0.17114 0.2108,0.41934 0,0.2484 -0.20563,0.42818 -0.20537,0.17978 -0.5032,0.17978 z m 0,-2.51688 q -0.29809,0 -0.51382,-0.17978 -0.21573,-0.17977 -0.21573,-0.42817 0,-0.25683 0.2108,-0.42798 0.21055,-0.17115 0.50839,-0.17115 0.29782,0 0.50839,0.17546 0.2108,0.17547 0.2108,0.42367 0,0.2484 -0.20563,0.42817 -0.20537,0.17978 -0.5032,0.17978 z"
         id="topappbarActionMenuItem-2-4-9-3"
         class="button-text-labeltext"
         style="stroke-width:1" />
      <path
         d="m 105.40055,120.23887 q -0.29809,0 -0.51382,-0.17546 -0.21573,-0.17547 -0.21573,-0.42367 0,-0.23977 0.2108,-0.42386 0.21055,-0.18409 0.50839,-0.18409 0.29782,0 0.50839,0.18409 0.2108,0.18409 0.2108,0.42386 0,0.2482 -0.20563,0.42367 -0.20537,0.17546 -0.5032,0.17546 z m 0,-2.52531 q -0.29809,0 -0.51382,-0.17567 -0.21573,-0.17545 -0.21573,-0.42365 0,-0.24819 0.2108,-0.42366 0.21055,-0.17566 0.50839,-0.17566 0.29782,0 0.50839,0.17135 0.2108,0.17114 0.2108,0.41934 0,0.24841 -0.20563,0.42818 -0.20537,0.17977 -0.5032,0.17977 z m 0,-2.51688 q -0.29809,0 -0.51382,-0.17977 -0.21573,-0.17978 -0.21573,-0.42818 0,-0.25682 0.2108,-0.42797 0.21055,-0.17114 0.50839,-0.17114 0.29782,0 0.50839,0.17545 0.2108,0.17547 0.2108,0.42366 0,0.2484 -0.20563,0.42818 -0.20537,0.17977 -0.5032,0.17977 z"
         id="topappbarActionMenuItem-2-4-9-9"
         class="button-text-labeltext"
         style="stroke-width:1" />
      <path
         d="m 105.40055,144.41358 q -0.29809,0 -0.51382,-0.17547 -0.21573,-0.17545 -0.21573,-0.42365 0,-0.23977 0.2108,-0.42386 0.21055,-0.18409 0.50839,-0.18409 0.29782,0 0.50839,0.18409 0.2108,0.18409 0.2108,0.42386 0,0.2482 -0.20563,0.42365 -0.20537,0.17547 -0.5032,0.17547 z m 0,-2.5253 q -0.29809,0 -0.51382,-0.17567 -0.21573,-0.17547 -0.21573,-0.42366 0,-0.2482 0.2108,-0.42365 0.21055,-0.17568 0.50839,-0.17568 0.29782,0 0.50839,0.17135 0.2108,0.17116 0.2108,0.41936 0,0.24839 -0.20563,0.42817 -0.20537,0.17978 -0.5032,0.17978 z m 0,-2.51688 q -0.29809,0 -0.51382,-0.17978 -0.21573,-0.17978 -0.21573,-0.42818 0,-0.25682 0.2108,-0.42797 0.21055,-0.17115 0.50839,-0.17115 0.29782,0 0.50839,0.17547 0.2108,0.17546 0.2108,0.42366 0,0.24839 -0.20563,0.42817 -0.20537,0.17978 -0.5032,0.17978 z"
         id="topappbarActionMenuItem-2-4-9-2"
         class="button-text-labeltext"
         style="stroke-width:1" />
      <path
         d="m 105.40055,168.58827 q -0.29809,0 -0.51382,-0.17547 -0.21573,-0.17546 -0.21573,-0.42365 0,-0.23977 0.2108,-0.42387 0.21055,-0.18409 0.50839,-0.18409 0.29782,0 0.50839,0.18409 0.2108,0.1841 0.2108,0.42387 0,0.24819 -0.20563,0.42365 -0.20537,0.17547 -0.5032,0.17547 z m 0,-2.5253 q -0.29809,0 -0.51382,-0.17568 -0.21573,-0.17545 -0.21573,-0.42365 0,-0.24819 0.2108,-0.42366 0.21055,-0.17567 0.50839,-0.17567 0.29782,0 0.50839,0.17136 0.2108,0.17114 0.2108,0.41933 0,0.24841 -0.20563,0.42819 -0.20537,0.17978 -0.5032,0.17978 z m 0,-2.51689 q -0.29809,0 -0.51382,-0.17978 -0.21573,-0.17976 -0.21573,-0.42817 0,-0.25682 0.2108,-0.42798 0.21055,-0.17114 0.50839,-0.17114 0.29782,0 0.50839,0.17546 0.2108,0.17546 0.2108,0.42366 0,0.24841 -0.20563,0.42817 -0.20537,0.17978 -0.5032,0.17978 z"
         id="topappbarActionMenuItem-2-4-9-8"
         class="button-text-labeltext"
         style="stroke-width:1" />
      <rect
         id="divider"
         class="divider-container"
         width="108.73711"
         height="0.62492579"
         x="3.8885558"
         y="80.570366"
         style="stroke-width:1" />
      <rect
         id="divider2"
         class="divider-container"
         width="108.73711"
         height="0.62492579"
         x="3.8885558"
         y="104.80634"
         style="stroke-width:1" />
      <rect
         id="divider3"
         class="divider-container"
         width="108.73711"
         height="0.62492579"
         x="3.8885558"
         y="129.04222"
         style="stroke-width:1" />
      <rect
         id="divider4"
         class="divider-container"
         width="108.73711"
         height="0.62492579"
         x="3.8885558"
         y="153.27815"
         style="stroke-width:1" />
      <circle
         cx="16.368322"
         cy="117.38657"
         id="iconButtonContainer-1"
         class="iconbutton-tonal-container"
         r="7.3733954"
         style="stroke-width:1" />
      <path
         d="m 15.462191,121.13609 q -0.65618,0 -1.10925,-0.45307 -0.45307,-0.45307 -0.45307,-1.10924 0,-0.65617 0.45307,-1.10925 0.45307,-0.45307 1.10925,-0.45307 0.29162,0 0.52597,0.0834 0.23435,0.0834 0.41142,0.22915 v -4.06202 q 0,-0.26038 0.18226,-0.44266 0.18228,-0.18227 0.44266,-0.18227 h 1.11446 q 0.29162,0 0.49473,0.2031 0.2031,0.2031 0.2031,0.49473 0,0.29164 -0.2031,0.49994 -0.20311,0.20832 -0.49473,0.20832 h -1.11446 v 4.53071 q 0,0.65617 -0.45307,1.10924 -0.45307,0.45307 -1.10924,0.45307 z"
         id="iconButtonIcon-1"
         class="iconbutton-tonal-icon"
         style="stroke-width:1" />
      <circle
         cx="16.368322"
         cy="141.89885"
         id="iconButtonContainer-1-6"
         class="iconbutton-tonal-container"
         r="7.3733954"
         style="stroke-width:1" />
      <path
         d="m 15.462191,145.64837 q -0.65618,0 -1.10925,-0.45308 -0.45307,-0.45306 -0.45307,-1.10924 0,-0.65618 0.45307,-1.10925 0.45307,-0.45306 1.10925,-0.45306 0.29162,0 0.52597,0.0834 0.23435,0.0834 0.41142,0.22913 v -4.06202 q 0,-0.26038 0.18226,-0.44264 0.18228,-0.18228 0.44266,-0.18228 h 1.11446 q 0.29162,0 0.49473,0.2031 0.2031,0.2031 0.2031,0.49474 0,0.29163 -0.2031,0.49994 -0.20311,0.2083 -0.49473,0.2083 h -1.11446 v 4.53071 q 0,0.65617 -0.45307,1.10926 -0.45307,0.45306 -1.10924,0.45306 z"
         id="iconButtonIcon-1-7"
         class="iconbutton-tonal-icon"
         style="stroke-width:1" />
      <circle
         cx="16.368322"
         cy="92.874306"
         id="iconButtonContainer-1-3"
         class="iconbutton-tonal-container"
         r="7.3733954"
         style="stroke-width:1" />
      <path
         d="m 15.462191,96.623809 q -0.65618,0 -1.10925,-0.45307 -0.45307,-0.45307 -0.45307,-1.10924 0,-0.656175 0.45307,-1.109245 0.45307,-0.45307 1.10925,-0.45307 0.29162,0 0.52597,0.0834 0.23435,0.0834 0.41142,0.22915 v -4.06202 q 0,-0.26038 0.18226,-0.44266 0.18228,-0.18226 0.44266,-0.18226 h 1.11446 q 0.29162,0 0.49473,0.2031 0.2031,0.2031 0.2031,0.49472 0,0.29165 -0.2031,0.49995 -0.20311,0.20831 -0.49473,0.20831 h -1.11446 v 4.530715 q 0,0.65617 -0.45307,1.10924 -0.45307,0.45307 -1.10924,0.45307 z"
         id="iconButtonIcon-1-5"
         class="iconbutton-tonal-icon"
         style="stroke-width:1" />
      <circle
         cx="16.368322"
         cy="68.362022"
         id="iconButtonContainer-1-2"
         class="iconbutton-tonal-container"
         r="7.3733954"
         style="stroke-width:1" />
      <path
         d="m 15.462191,72.111534 q -0.65618,0 -1.10925,-0.453071 -0.45307,-0.453071 -0.45307,-1.109243 0,-0.656172 0.45307,-1.109243 0.45307,-0.453072 1.10925,-0.453072 0.29162,0 0.52597,0.08337 0.23435,0.08337 0.41142,0.229148 v -4.062017 q 0,-0.260382 0.18226,-0.44266 0.18228,-0.182266 0.44266,-0.182266 h 1.11446 q 0.29162,0 0.49473,0.203101 0.2031,0.2031 0.2031,0.494728 0,0.291641 -0.2031,0.499941 -0.20311,0.208313 -0.49473,0.208313 h -1.11446 v 4.530712 q 0,0.656172 -0.45307,1.109243 -0.45307,0.453071 -1.10924,0.453071 z"
         id="iconButtonIcon-1-9"
         class="iconbutton-tonal-icon"
         style="stroke-width:1" />
    </g>
    <rect
       id="bottomnavigationContainer-2"
       class="bottomnavigation-container"
       width="108.65897"
       height="19.98929"
       x="3.9171827"
       y="165.1514"
       ry="0"
       style="fill:#fffbff;stroke-width:1" />
    <g
       id="g382"
       transform="matrix(1.2498516,0,0,1.2498516,-275.08463,-33.75941)"
       style="stroke-width:0.800095">
      <rect
         id="rect87126-7-4-9-2"
         width="86.573845"
         height="12.516596"
         x="223.20502"
         y="174.99402"
         ry="0"
         class="device-frame"
         style="stroke-width:0.800095" />
      <path
         d="m 286.75281,185.93375 v -6.33299 h 6.33299 v 6.33299 z m 0.75528,-0.75531 h 4.81407 v -4.81409 h -4.81407 z m 0,0 v -4.81409 z"
         id="path13463"
         class="device-button"
         style="stroke-width:0.800095" />
      <path
         d="m 266.31369,186.26575 q -0.72212,0 -1.3612,-0.26974 -0.63912,-0.26978 -1.11638,-0.74703 -0.47726,-0.47728 -0.74699,-1.11634 -0.26979,-0.63913 -0.26979,-1.36124 0,-0.72212 0.26979,-1.36121 0.26973,-0.63911 0.74699,-1.11638 0.47726,-0.47725 1.11638,-0.75114 0.63908,-0.27392 1.35291,-0.27392 0.7304,0 1.37369,0.27392 0.64323,0.27389 1.11632,0.75114 0.47312,0.47727 0.74705,1.11638 0.27387,0.63909 0.27387,1.3695 0,0.71382 -0.27387,1.35295 -0.27393,0.63906 -0.75119,1.11634 -0.47726,0.47725 -1.11634,0.74703 -0.63913,0.26974 -1.36124,0.26974 z m 0,-0.75532 q 1.13713,0 1.93807,-0.80097 0.80097,-0.80093 0.80097,-1.93806 0,-1.13714 -0.80097,-1.93807 -0.80094,-0.80094 -1.93807,-0.80094 -1.13713,0 -1.93807,0.80094 -0.80095,0.80093 -0.80095,1.93807 0,1.13713 0.80095,1.93806 0.80094,0.80097 1.93807,0.80097 z m 0,-2.73903 z"
         id="path13465"
         class="device-button"
         style="stroke-width:0.800095" />
      <path
         d="m 243.81765,186.2616 -3.49435,-3.49436 3.49435,-3.49434 0.64743,0.65571 -2.83864,2.83863 2.83864,2.83864 z"
         id="path13474"
         class="device-button"
         style="stroke-width:0.800095" />
      <path
         style="color:#000000;fill:#000000;stroke-width:0.800095;stroke-linecap:square;-inkscape-stroke:none"
         d="m 225.33149,27.02866 c -2.84285,0 -5.22461,2.381761 -5.22461,5.224609 V 184.80208 c 0,2.84285 2.38176,5.22657 5.22461,5.22657 h 82.55078 c 2.84285,0 5.22461,-2.38372 5.22461,-5.22657 V 32.253269 c 0,-2.842848 -2.38176,-5.224609 -5.22461,-5.224609 z m 0.66081,3.354166 c 0,0 79.63141,0.01523 81.22916,0 1.59775,-0.01523 2.53125,1.059019 2.53125,2.602083 0,0 -0.007,149.479701 0,151.087491 0.007,1.60779 -0.98468,2.60208 -2.53125,2.60208 -1.54657,0 -79.63141,-0.0153 -81.22916,0 -1.59775,0.0152 -2.53125,-1.05901 -2.53125,-2.60208 V 32.984909 c 0,-1.754401 0.78627,-2.602083 2.53125,-2.602083 z"
         id="path3123"
         sodipodi:nodetypes="sssssssssszzzzzzss"
         class="device-frame" />
      <g
         id="g3827"
         transform="translate(-23.123362)"
         style="stroke-width:0.800095">
        <path
           d="m 304.97658,35.44219 q 0.35444,-0.270278 0.75977,-0.42047 0.40549,-0.150199 0.8679,-0.150199 0.46241,0 0.87091,0.150199 0.40836,0.150192 0.76266,0.42047 l 0.66667,-0.660757 q -0.50449,-0.390342 -1.08106,-0.609589 -0.57658,-0.219239 -1.21918,-0.219239 -0.6426,0 -1.21917,0.219239 -0.57657,0.219247 -1.08107,0.609589 z m 1.62767,2.108094 q -0.0422,0 -0.0751,-0.01208 -0.033,-0.012 -0.063,-0.04192 l -2.60675,-2.606699 q -0.0599,-0.05992 -0.057,-0.141119 0.003,-0.081 0.0632,-0.135056 0.57052,-0.504509 1.26731,-0.78386 0.69665,-0.279199 1.47142,-0.279199 0.77478,0 1.47142,0.279199 0.6968,0.279351 1.26732,0.78386 0.0602,0.05408 0.063,0.135056 0.003,0.08116 -0.057,0.141119 l -2.60668,2.606699 q -0.0299,0.02992 -0.063,0.04192 -0.033,0.01208 -0.0751,0.01208 z"
           id="path91309-4-5-4-8"
           class="device-statusbar-labeltext"
           style="stroke-width:0.800095" />
        <path
           d="m 313.72916,37.194574 h 1.11485 v -3.041961 l -1.11485,1.114858 z m -2.35191,0.355742 q -0.11671,0 -0.16181,-0.108943 -0.0452,-0.108808 0.0344,-0.193663 l 3.64717,-3.641951 q 0.085,-0.08486 0.19379,-0.03984 0.10882,0.04504 0.10882,0.161944 v 3.647174 q 0,0.07424 -0.0505,0.124743 -0.0503,0.05048 -0.12996,0.05048 z"
           id="path91986-8-5-9-3"
           class="device-statusbar-labeltext"
           style="stroke-width:0.800095" />
        <path
           d="m 328.79464,37.550308 q -0.0701,0 -0.11761,-0.04752 -0.0474,-0.04752 -0.0474,-0.117479 v -3.319952 q 0,-0.07496 0.0474,-0.122519 0.0475,-0.04752 0.11761,-0.04752 h 0.43498 v -0.179991 q 0,-0.07 0.0474,-0.11748 0.0475,-0.04752 0.1176,-0.04752 h 0.46991 q 0.0701,0 0.11759,0.04752 0.0474,0.04752 0.0474,0.11748 v 0.179991 h 0.43499 q 0.0701,0 0.1176,0.04752 0.0474,0.04752 0.0474,0.122519 v 3.319952 q 0,0.07 -0.0474,0.117479 -0.0475,0.04752 -0.1176,0.04752 z m 0.16991,-1.61504 h 1.33005 v -1.704912 h -1.33005 z"
           id="path92143-0-2-9-8"
           class="device-statusbar-labeltext"
           style="stroke-width:0.800095" />
        <text
           xml:space="preserve"
           style="font-style:normal;font-variant:normal;font-weight:bold;font-stretch:normal;font-size:4.93889px;line-height:125%;font-family:Roboto;-inkscape-font-specification:'Sans, Bold';font-variant-ligatures:normal;font-variant-caps:normal;font-variant-numeric:normal;font-variant-east-asian:normal;letter-spacing:0px;word-spacing:0px;stroke-width:0.800095"
           x="318.27667"
           y="37.471352"
           id="text92824-4-9-3-3"
           class="device-statusbar-labeltext"><tspan
             sodipodi:role="line"
             id="tspan92822-29-0-6-33"
             style="font-style:normal;font-variant:normal;font-weight:500;font-stretch:normal;font-size:4.93889px;font-family:Roboto;-inkscape-font-specification:'Roboto Medium';font-variant-ligatures:normal;font-variant-caps:normal;font-variant-numeric:normal;font-variant-east-asian:normal;stroke-width:0.800095"
             x="318.27667"
             y="37.471352">72%</tspan></text>
        <text
           xml:space="preserve"
           style="font-style:normal;font-variant:normal;font-weight:bold;font-stretch:normal;font-size:4.93889px;line-height:125%;font-family:Roboto;-inkscape-font-specification:'Sans, Bold';font-variant-ligatures:normal;font-variant-caps:normal;font-variant-numeric:normal;font-variant-east-asian:normal;letter-spacing:0px;word-spacing:0px;stroke-width:0.800095"
           x="248.42583"
           y="37.471352"
           id="text3716"
           class="device-statusbar-labeltext"><tspan
             sodipodi:role="line"
             id="tspan3714"
             style="font-style:normal;font-variant:normal;font-weight:500;font-stretch:normal;font-size:4.93889px;font-family:Roboto;-inkscape-font-specification:'Roboto Medium';font-variant-ligatures:normal;font-variant-caps:normal;font-variant-numeric:normal;font-variant-east-asian:normal;stroke-width:0.800095"
             x="248.42583"
             y="37.471352">12:30</tspan></text>
      </g>
    </g>
    <path
       d="m 89.181393,175.68428 q -0.15487,0 -0.25655,-0.10989 -0.10189,-0.11009 -0.10189,-0.25674 0,-0.14665 0.10189,-0.25262 0.10168,-0.1058 0.25655,-0.1058 h 1.45827 q 0.14665,0 0.25675,0.1058 0.10988,0.10597 0.10988,0.25262 0,0.14665 -0.10988,0.25674 -0.1101,0.10989 -0.25675,0.10989 z m 0,-4.17133 q -0.15487,0 -0.25655,-0.10188 -0.10189,-0.10189 -0.10189,-0.25674 0,-0.15467 0.10189,-0.26064 0.10168,-0.10599 0.25655,-0.10599 h 2.77812 q 0.14666,0 0.25674,0.11009 0.10989,0.10989 0.10989,0.25654 0,0.15487 -0.10989,0.25674 -0.11008,0.10188 -0.25674,0.10188 z m 2.59902,4.82304 q -0.15487,0 -0.26084,-0.10578 -0.10579,-0.10599 -0.10579,-0.26085 v -1.31164 q 0,-0.15486 0.10579,-0.25654 0.10597,-0.10189 0.26084,-0.10189 0.14665,0 0.25243,0.10189 0.10598,0.10168 0.10598,0.25654 v 0.30151 h 2.41973 q 0.15485,0 0.25654,0.1058 0.10188,0.10597 0.10188,0.25262 0,0.14665 -0.10188,0.25674 -0.10169,0.10989 -0.25654,0.10989 h -2.41973 v 0.28508 q 0,0.15486 -0.10598,0.26085 -0.10578,0.10578 -0.25243,0.10578 z m -1.14075,-2.08557 q -0.14665,0 -0.25242,-0.10188 -0.10599,-0.10189 -0.10599,-0.25673 v -0.2933 h -1.09986 q -0.15487,0 -0.25655,-0.10578 -0.10189,-0.10599 -0.10189,-0.25263 0,-0.15487 0.10189,-0.25655 0.10168,-0.10188 0.25655,-0.10188 h 1.09986 v -0.31774 q 0,-0.14665 0.10189,-0.24853 0.10188,-0.10189 0.25655,-0.10189 0.14665,0 0.25673,0.10189 0.10989,0.10188 0.10989,0.24853 v 1.32787 q 0,0.15485 -0.10989,0.25673 -0.11008,0.10189 -0.25673,0.10189 z m 1.14075,-0.6519 q -0.15487,0 -0.26084,-0.10578 -0.10579,-0.10599 -0.10579,-0.25263 0,-0.15487 0.10579,-0.25655 0.10597,-0.10188 0.26084,-0.10188 h 2.77814 q 0.15485,0 0.25654,0.10188 0.10188,0.10168 0.10188,0.24833 0,0.15486 -0.10188,0.26085 -0.10169,0.10578 -0.25654,0.10578 z m 1.31984,-1.42564 q -0.14665,0 -0.25673,-0.10189 -0.10989,-0.10188 -0.10989,-0.25673 v -1.31164 q 0,-0.15486 0.10989,-0.26065 0.11008,-0.10598 0.25673,-0.10598 0.14665,0 0.25243,0.10598 0.10599,0.10579 0.10599,0.26065 v 0.28508 h 1.09988 q 0.15485,0 0.25654,0.11009 0.10188,0.10989 0.10188,0.25654 0,0.15487 -0.10188,0.25674 -0.10169,0.10188 -0.25654,0.10188 h -1.09988 v 0.30132 q 0,0.15486 -0.10599,0.25673 -0.10578,0.10189 -0.25243,0.10189 z"
       id="tabInactiveIcon1-2"
       class="bottomnavigation-icon-inactive"
       style="stroke-width:1" />
    <rect
       id="bottomnavigationActiveindicator-2"
       class="bottomnavigation-activeindicator"
       width="17.942551"
       height="8.7489614"
       x="13.552742"
       y="168.83023"
       ry="3.6821301"
       style="fill:#ffd9e2;stroke-width:1" />
    <text
       xml:space="preserve"
       style="font-style:normal;font-variant:normal;font-weight:bold;font-stretch:normal;font-size:4.4092px;line-height:125%;font-family:Roboto;-inkscape-font-specification:'Roboto, Bold';font-variant-ligatures:normal;font-variant-caps:normal;font-variant-numeric:normal;font-variant-east-asian:normal;letter-spacing:0px;word-spacing:0px;stroke-width:1"
       x="15.718376"
       y="182.31607"
       id="tabActiveLabel-1-2"
       class="bottomnavigation-labeltext-active"><tspan
         sodipodi:role="line"
         id="tspan9212-1-9-1-8-6-5-6"
         style="font-style:normal;font-variant:normal;font-weight:bold;font-stretch:normal;font-size:4.4092px;font-family:Roboto;-inkscape-font-specification:'Roboto, Bold';font-variant-ligatures:normal;font-variant-caps:normal;font-variant-numeric:normal;font-variant-east-asian:normal;stroke-width:1"
         x="15.718376"
         y="182.31607">Songs</tspan></text>
    <text
       xml:space="preserve"
       style="font-style:normal;font-variant:normal;font-weight:bold;font-stretch:normal;font-size:4.4092px;line-height:125%;font-family:Roboto;-inkscape-font-specification:'Roboto, Bold';font-variant-ligatures:normal;font-variant-caps:normal;font-variant-numeric:normal;font-variant-east-asian:normal;letter-spacing:0px;word-spacing:0px;stroke-width:1"
       x="82.378181"
       y="182.34251"
       id="tabInactiveLabel2-1-5"
       class="bottomnavigation-labeltext-inactive"><tspan
         sodipodi:role="line"
         id="tspan9212-1-9-1-8-5-4-4-8"
         style="font-style:normal;font-variant:normal;font-weight:bold;font-stretch:normal;font-size:4.4092px;font-family:Roboto;-inkscape-font-specification:'Roboto, Bold';font-variant-ligatures:normal;font-variant-caps:normal;font-variant-numeric:normal;font-variant-east-asian:normal;stroke-width:1"
         x="82.378181"
         y="182.34251">Equalizer</tspan></text>
    <text
       xml:space="preserve"
       style="font-style:normal;font-variant:normal;font-weight:bold;font-stretch:normal;font-size:4.4092px;line-height:125%;font-family:Roboto;-inkscape-font-specification:'Roboto, Bold';font-variant-ligatures:normal;font-variant-caps:normal;font-variant-numeric:normal;font-variant-east-asian:normal;letter-spacing:0px;word-spacing:0px;stroke-width:1"
       x="50.732719"
       y="182.34251"
       id="tabInactiveLabel1-9-8"
       class="bottomnavigation-labeltext-inactive"><tspan
         sodipodi:role="line"
         id="tspan9212-1-9-1-8-9-2-9-7"
         style="font-style:normal;font-variant:normal;font-weight:bold;font-stretch:normal;font-size:4.4092px;font-family:Roboto;-inkscape-font-specification:'Roboto, Bold';font-variant-ligatures:normal;font-variant-caps:normal;font-variant-numeric:normal;font-variant-east-asian:normal;stroke-width:1"
         x="50.732719"
         y="182.34251">Playlist</tspan></text>
    <path
       d="m 20.514103,175.49534 h 0.90716 v -2.12211 h 2.197 v 2.12211 h 0.90715 v -3.01249 l -2.00565,-1.50634 -2.00566,1.50634 z m 0,0.84065 q -0.34952,0 -0.59499,-0.24546 -0.24547,-0.24567 -0.24547,-0.59519 v -3.01249 q 0,-0.20811 0.0875,-0.38288 0.0873,-0.17475 0.25365,-0.2912 l 1.99727,-1.49795 q 0.11664,-0.0833 0.24566,-0.12903 0.12882,-0.0458 0.26205,-0.0458 0.13321,0 0.26204,0.0458 0.12902,0.0458 0.24566,0.12903 l 1.99728,1.49795 q 0.16636,0.11645 0.25784,0.2954 0.0917,0.17895 0.0917,0.37868 v 3.01249 q 0,0.34952 -0.24965,0.59519 -0.24966,0.24546 -0.59918,0.24546 h -1.64775 v -2.22197 h -0.71582 v 2.22197 z m 2.00566,-3.10416 z"
       id="tabActiveIcon-3"
       class="bottomnavigation-icon-active"
       style="stroke-width:1" />
    <path
       d="m 59.493213,176.33599 q -0.54991,0 -0.94806,-0.39338 -0.39816,-0.39337 -0.39816,-0.93371 0,-0.55925 0.38882,-0.93853 0.38861,-0.37928 0.93853,-0.37928 0.0946,0 0.19907,0.0191 0.10416,0.0188 0.19908,0.0472 v -3.2137 q 0,-0.17064 0.12313,-0.28917 0.12337,-0.11854 0.29394,-0.11854 h 1.29869 q 0.21819,0 0.36971,0.15177 0.15177,0.15174 0.15177,0.36969 0,0.21797 -0.15177,0.36972 -0.15152,0.15177 -0.36971,0.15177 h -0.74876 v 3.83936 q 0,0.54035 -0.38884,0.92896 -0.3886,0.38859 -0.95739,0.38859 z m -4.62612,-5.24224 q -0.19908,0 -0.34128,-0.1422 -0.14221,-0.1422 -0.14221,-0.33195 0,-0.19906 0.14221,-0.34128 0.1422,-0.14219 0.34128,-0.14219 h 3.64962 q 0.18975,0 0.33193,0.14219 0.14221,0.14221 0.14221,0.34128 0,0.19908 -0.14221,0.33672 -0.14218,0.13745 -0.33193,0.13745 z m 0,1.77259 q -0.19908,0 -0.34128,-0.1422 -0.14221,-0.1422 -0.14221,-0.33172 0,-0.19909 0.14221,-0.34126 0.1422,-0.14222 0.34128,-0.14222 h 3.64962 q 0.18975,0 0.33193,0.14222 0.14221,0.14217 0.14221,0.34126 0,0.19908 -0.14221,0.33649 -0.14218,0.13743 -0.33193,0.13743 z m 0,1.7917 q -0.19908,0 -0.34128,-0.14219 -0.14221,-0.14221 -0.14221,-0.35061 0,-0.19908 0.14221,-0.3365 0.1422,-0.13765 0.34128,-0.13765 h 2.16142 q 0.18952,0 0.33172,0.1422 0.14219,0.14221 0.14219,0.33195 0,0.2084 -0.14219,0.35061 -0.1422,0.14219 -0.33172,0.14219 z"
       id="tabInactiveIcon1-9"
       class="bottomnavigation-icon-inactive"
       style="stroke-width:1" />
    <circle
       cx="62.485847"
       cy="170.66902"
       id="badgeContainer"
       class="badge-container"
       r="2.4997032"
       style="fill:#ba1a1a;stroke-width:1" />
    <text
       xml:space="preserve"
       style="font-style:normal;font-weight:normal;font-size:4.4092px;line-height:125%;font-family:Roboto;letter-spacing:0px;word-spacing:0px;fill:#ffffff;stroke-width:1"
       x="61.326363"
       y="172.24173"
       id="badgeLabel"
       class="badge-labeltext"><tspan
         sodipodi:role="line"
         id="tspan3001"
         style="font-style:normal;font-variant:normal;font-weight:500;font-stretch:normal;font-size:4.4092px;font-family:Roboto;-inkscape-font-specification:'Roboto Medium';stroke-width:1"
         x="61.326363"
         y="172.24173">1</tspan></text>
  </g>
</svg>
