<?xml version="1.0" encoding="UTF-8" standalone="no"?>
<svg
   height="2184.1565"
   id="svg8"
   version="1.1"
   viewBox="0 0 116.23619 218.41565"
   width="1162.3619"
   inkscape:version="1.2.1 (9c6d41e410, 2022-07-14, custom)"
   sodipodi:docname="mockup3.svg"
   xmlns:inkscape="http://www.inkscape.org/namespaces/inkscape"
   xmlns:sodipodi="http://sodipodi.sourceforge.net/DTD/sodipodi-0.dtd"
   xmlns="http://www.w3.org/2000/svg"
   xmlns:svg="http://www.w3.org/2000/svg"
   xmlns:rdf="http://www.w3.org/1999/02/22-rdf-syntax-ns#"
   xmlns:cc="http://creativecommons.org/ns#"
   xmlns:dc="http://purl.org/dc/elements/1.1/">
  <style
     id="style"><!-- needed for Inkscape only, must be removed by build process -->



     @import url(mockstyle_inkscape.css);
  </style>
  <defs
     id="defs2" />
  <sodipodi:namedview
     bordercolor="#666666"
     borderopacity="1.0"
     id="base"
     pagecolor="#ffffff"
     showgrid="false"
     inkscape:bbox-nodes="true"
     inkscape:bbox-paths="true"
     inkscape:current-layer="layer1"
     inkscape:cx="-611.8649"
     inkscape:cy="483.05123"
     inkscape:document-rotation="0"
     inkscape:document-units="px"
     inkscape:pageopacity="0.0"
     inkscape:pageshadow="2"
     inkscape:snap-bbox="true"
     inkscape:snap-bbox-edge-midpoints="true"
     inkscape:snap-bbox-midpoints="true"
     inkscape:snap-global="false"
     inkscape:window-height="708"
     inkscape:window-maximized="1"
     inkscape:window-width="1366"
     inkscape:window-x="0"
     inkscape:window-y="0"
     inkscape:zoom="0.13973673"
     inkscape:showpageshadow="2"
     inkscape:pagecheckerboard="0"
     inkscape:deskcolor="#d1d1d1" />
  <metadata
     id="metadata5">
    <rdf:RDF>
      <cc:Work
         rdf:about="">
        <dc:format>image/svg+xml</dc:format>
        <dc:type
           rdf:resource="http://purl.org/dc/dcmitype/StillImage" />
      </cc:Work>
    </rdf:RDF>
  </metadata>
  <g
     id="layer1"
     transform="translate(-220.10688,-27.02866)"
     inkscape:groupmode="layer"
     inkscape:label="Ebene 1">
    <rect
       id="deviceBackground-0-0-1-4-9-2"
       class="device-background"
       width="107.79967"
       height="196.2267"
       x="224.38388"
       y="31.380568"
       ry="2.7811289"
       style="stroke-width:1" />
    <text
       xml:space="preserve"
       style="font-style:normal;font-weight:normal;font-size:8.68131px;line-height:125%;font-family:Roboto;letter-spacing:0px;word-spacing:0px;fill:#000000;stroke-width:1"
       x="252.67952"
       y="243.5919"
       id="text9214-7-0-6"
       class="mock-description"><tspan
         sodipodi:role="line"
         x="252.67952"
         y="243.5919"
         id="tspan173836"
         style="stroke-width:1">Music Player</tspan></text>
    <rect
       id="listContainer1"
       class="container-surface"
       width="108.73709"
       height="112.23096"
       x="223.97913"
       y="84.013039"
       ry="0"
       style="stroke-width:1" />
    <circle
       cx="236.45889"
       cy="193.41737"
       id="iconButtonContainer-1-27"
       class="iconbutton-tonal-container"
       r="7.3733954"
       style="stroke-width:1" />
    <path
       d="m 235.55276,197.16688 q -0.65618,0 -1.10925,-0.45307 -0.45307,-0.45307 -0.45307,-1.10924 0,-0.65617 0.45307,-1.10924 0.45307,-0.45308 1.10925,-0.45308 0.29162,0 0.52597,0.0834 0.23435,0.0834 0.41142,0.22915 v -4.06202 q 0,-0.26038 0.18226,-0.44266 0.18228,-0.18227 0.44266,-0.18227 h 1.11446 q 0.29162,0 0.49473,0.2031 0.2031,0.20311 0.2031,0.49473 0,0.29164 -0.2031,0.49994 -0.20311,0.20832 -0.49473,0.20832 h -1.11446 v 4.53071 q 0,0.65617 -0.45307,1.10924 -0.45307,0.45307 -1.10924,0.45307 z"
       id="iconButtonIcon-1-0"
       class="iconbutton-tonal-icon"
       style="stroke-width:1" />
    <text
       xml:space="preserve"
       style="font-style:normal;font-weight:normal;font-size:5.29103px;line-height:125%;font-family:Roboto;letter-spacing:0px;word-spacing:0px;stroke-width:1"
       x="250.06361"
       y="101.27757"
       id="backdropText-4-5"
       class="label-onsurface"><tspan
         sodipodi:role="line"
         id="tspan9212-1-9-1-56-0-7"
         style="font-size:5.29103px;stroke-width:1"
         x="250.06361"
         y="101.27757">Queen</tspan></text>
    <text
       xml:space="preserve"
       style="font-style:normal;font-weight:normal;font-size:5.29103px;line-height:125%;font-family:Roboto;letter-spacing:0px;word-spacing:0px;stroke-width:1"
       x="250.06361"
       y="125.8826"
       id="backdropText-4-5-4"
       class="label-onsurface"><tspan
         sodipodi:role="line"
         id="tspan9212-1-9-1-56-0-7-9"
         style="font-size:5.29103px;stroke-width:1"
         x="250.06361"
         y="125.8826">Stairway to Heaven</tspan></text>
    <text
       xml:space="preserve"
       style="font-style:normal;font-weight:normal;font-size:5.29103px;line-height:125%;font-family:Roboto;letter-spacing:0px;word-spacing:0px;stroke-width:1"
       x="250.06361"
       y="150.48766"
       id="backdropText-4-5-9"
       class="label-onsurface"><tspan
         sodipodi:role="line"
         id="tspan9212-1-9-1-56-0-7-4"
         style="font-size:5.29103px;stroke-width:1"
         x="250.06361"
         y="150.48766">I Can't Get No Satisfaction</tspan></text>
    <text
       xml:space="preserve"
       style="font-style:normal;font-weight:normal;font-size:5.29103px;line-height:125%;font-family:Roboto;letter-spacing:0px;word-spacing:0px;stroke-width:1"
       x="250.06361"
       y="174.43126"
       id="backdropText-4-5-5"
       class="label-onsurface"><tspan
         sodipodi:role="line"
         id="tspan9212-1-9-1-56-0-7-93"
         style="font-size:5.29103px;stroke-width:1"
         x="250.06361"
         y="174.43126">I Wanna Hold Your Hand</tspan></text>
    <text
       xml:space="preserve"
       style="font-style:normal;font-variant:normal;font-weight:normal;font-stretch:normal;font-size:6.17288px;line-height:125%;font-family:Roboto;-inkscape-font-specification:'Roboto, Normal';font-variant-ligatures:normal;font-variant-caps:normal;font-variant-numeric:normal;font-variant-east-asian:normal;letter-spacing:0px;word-spacing:0px;stroke-width:1"
       x="250.05161"
       y="93.4935"
       id="backdropText-4-3"
       class="label-onsurface"><tspan
         sodipodi:role="line"
         id="tspan9212-1-9-1-56-0-0"
         style="font-style:normal;font-variant:normal;font-weight:normal;font-stretch:normal;font-size:6.17288px;font-family:Roboto;-inkscape-font-specification:'Roboto, Normal';font-variant-ligatures:normal;font-variant-caps:normal;font-variant-numeric:normal;font-variant-east-asian:normal;stroke-width:1"
         x="250.05161"
         y="93.4935">1. Bohemian Rhapsody</tspan></text>
    <text
       xml:space="preserve"
       style="font-style:normal;font-variant:normal;font-weight:normal;font-stretch:normal;font-size:6.17288px;line-height:125%;font-family:Roboto;-inkscape-font-specification:'Roboto, Normal';font-variant-ligatures:normal;font-variant-caps:normal;font-variant-numeric:normal;font-variant-east-asian:normal;letter-spacing:0px;word-spacing:0px;stroke-width:1"
       x="250.17816"
       y="118.16899"
       id="backdropText-4-3-1"
       class="label-onsurface"><tspan
         sodipodi:role="line"
         id="tspan9212-1-9-1-56-0-0-7"
         style="font-style:normal;font-variant:normal;font-weight:normal;font-stretch:normal;font-size:6.17288px;font-family:Roboto;-inkscape-font-specification:'Roboto, Normal';font-variant-ligatures:normal;font-variant-caps:normal;font-variant-numeric:normal;font-variant-east-asian:normal;stroke-width:1"
         x="250.17816"
         y="118.16899">2. Led Zeppelin</tspan></text>
    <text
       xml:space="preserve"
       style="font-style:normal;font-variant:normal;font-weight:normal;font-stretch:normal;font-size:6.17288px;line-height:125%;font-family:Roboto;-inkscape-font-specification:'Roboto, Normal';font-variant-ligatures:normal;font-variant-caps:normal;font-variant-numeric:normal;font-variant-east-asian:normal;letter-spacing:0px;word-spacing:0px;stroke-width:1"
       x="250.18739"
       y="142.84444"
       id="backdropText-4-3-8"
       class="label-onsurface"><tspan
         sodipodi:role="line"
         id="tspan9212-1-9-1-56-0-0-9"
         style="font-style:normal;font-variant:normal;font-weight:normal;font-stretch:normal;font-size:6.17288px;font-family:Roboto;-inkscape-font-specification:'Roboto, Normal';font-variant-ligatures:normal;font-variant-caps:normal;font-variant-numeric:normal;font-variant-east-asian:normal;stroke-width:1"
         x="250.18739"
         y="142.84444">3. The Rolling Stones</tspan></text>
    <text
       xml:space="preserve"
       style="font-style:normal;font-variant:normal;font-weight:normal;font-stretch:normal;font-size:6.17288px;line-height:125%;font-family:Roboto;-inkscape-font-specification:'Roboto, Normal';font-variant-ligatures:normal;font-variant-caps:normal;font-variant-numeric:normal;font-variant-east-asian:normal;letter-spacing:0px;word-spacing:0px;stroke-width:1"
       x="250.26146"
       y="166.85857"
       id="backdropText-4-3-15"
       class="label-onsurface"><tspan
         sodipodi:role="line"
         id="tspan9212-1-9-1-56-0-0-4"
         style="font-style:normal;font-variant:normal;font-weight:normal;font-stretch:normal;font-size:6.17288px;font-family:Roboto;-inkscape-font-specification:'Roboto, Normal';font-variant-ligatures:normal;font-variant-caps:normal;font-variant-numeric:normal;font-variant-east-asian:normal;stroke-width:1"
         x="250.26146"
         y="166.85857">4. The Beatles</tspan></text>
    <text
       xml:space="preserve"
       style="font-style:normal;font-variant:normal;font-weight:normal;font-stretch:normal;font-size:6.17288px;line-height:125%;font-family:Roboto;-inkscape-font-specification:'Roboto, Normal';font-variant-ligatures:normal;font-variant-caps:normal;font-variant-numeric:normal;font-variant-east-asian:normal;letter-spacing:0px;word-spacing:0px;stroke-width:1"
       x="250.13185"
       y="191.53404"
       id="backdropText-4-3-9"
       class="label-onsurface"><tspan
         sodipodi:role="line"
         id="tspan9212-1-9-1-56-0-0-2"
         style="font-style:normal;font-variant:normal;font-weight:normal;font-stretch:normal;font-size:6.17288px;font-family:Roboto;-inkscape-font-specification:'Roboto, Normal';font-variant-ligatures:normal;font-variant-caps:normal;font-variant-numeric:normal;font-variant-east-asian:normal;stroke-width:1"
         x="250.13185"
         y="191.53404">5. Nirvana</tspan></text>
    <rect
       id="tabContainer-6-6"
       class="tab-container"
       width="108.73709"
       height="22.561077"
       x="223.97913"
       y="61.451962"
       ry="0"
       style="stroke-width:1" />
    <rect
       id="tabActiveIndicator-1-5"
       class="tab-active-tabindicator"
       width="34.995846"
       height="1.4051198"
       x="223.97913"
       y="82.607918"
       ry="0"
       style="stroke-width:1" />
    <text
       xml:space="preserve"
       style="font-style:normal;font-variant:normal;font-weight:bold;font-stretch:normal;font-size:4.4092px;line-height:125%;font-family:Roboto;-inkscape-font-specification:'Roboto, Bold';font-variant-ligatures:normal;font-variant-caps:normal;font-variant-numeric:normal;font-variant-east-asian:normal;letter-spacing:0px;word-spacing:0px;stroke-width:1"
       x="234.78389"
       y="79.158333"
       id="tabActiveLabel-1-2"
       class="tab-active-textlabel"><tspan
         sodipodi:role="line"
         id="tspan9212-1-9-1-8-6-5-6"
         style="font-style:normal;font-variant:normal;font-weight:bold;font-stretch:normal;font-size:4.4092px;font-family:Roboto;-inkscape-font-specification:'Roboto, Bold';font-variant-ligatures:normal;font-variant-caps:normal;font-variant-numeric:normal;font-variant-east-asian:normal;stroke-width:1"
         x="234.78389"
         y="79.158333">SONGS</tspan></text>
    <text
       xml:space="preserve"
       style="font-style:normal;font-variant:normal;font-weight:bold;font-stretch:normal;font-size:4.4092px;line-height:125%;font-family:Roboto;-inkscape-font-specification:'Roboto, Bold';font-variant-ligatures:normal;font-variant-caps:normal;font-variant-numeric:normal;font-variant-east-asian:normal;letter-spacing:0px;word-spacing:0px;stroke-width:1"
       x="301.4437"
       y="79.184784"
       id="tabInactiveLabel2-1-5"
       class="tab-inactive-textlabel"><tspan
         sodipodi:role="line"
         id="tspan9212-1-9-1-8-5-4-4-8"
         style="font-style:normal;font-variant:normal;font-weight:bold;font-stretch:normal;font-size:4.4092px;font-family:Roboto;-inkscape-font-specification:'Roboto, Bold';font-variant-ligatures:normal;font-variant-caps:normal;font-variant-numeric:normal;font-variant-east-asian:normal;stroke-width:1"
         x="301.4437"
         y="79.184784">EQUALIZER</tspan></text>
    <rect
       id="topappbarContainer-9-7"
       class="topappbar-container"
       width="108.73709"
       height="30.376324"
       x="223.97913"
       y="31.075638"
       style="stroke-width:1" />
    <rect
       style="mix-blend-mode:normal;fill:#000000;fill-opacity:0.598419;stroke-width:1"
       id="rect87126-2-5-2-6-8"
       width="108.73709"
       height="12.498516"
       x="223.9791"
       y="31.075638"
       class="device-statusbar" />
    <path
       d="m 326.51513,57.315025 q -0.50888,0 -0.87032,-0.36595 -0.36167,-0.366177 -0.36167,-0.87504 0,-0.06236 0.009,-0.151701 0.009,-0.08935 0.0357,-0.178472 l -2.26773,-1.321349 q -0.16948,0.178482 -0.39274,0.281107 -0.22326,0.10285 -0.4643,0.10285 -0.51766,0 -0.87932,-0.366169 -0.36146,-0.365957 -0.36146,-0.874822 0,-0.517869 0.36146,-0.879324 0.36166,-0.361675 0.87932,-0.361675 0.24104,0 0.4598,0.08935 0.21877,0.08935 0.39724,0.267827 l 2.26773,-1.312343 q -0.0267,-0.07134 -0.0357,-0.156195 -0.009,-0.08485 -0.009,-0.165201 0,-0.508863 0.36617,-0.870328 0.36596,-0.361665 0.87482,-0.361665 0.50886,0 0.87483,0.361665 0.36617,0.361465 0.36617,0.870328 0,0.51787 -0.36617,0.883828 -0.36597,0.365959 -0.88383,0.365959 -0.24105,0 -0.45958,-0.07588 -0.21876,-0.07588 -0.37947,-0.254327 l -2.27652,1.258782 q 0.0269,0.07134 0.0356,0.173978 0.009,0.102638 0.009,0.1652 0,0.07134 -0.009,0.147409 -0.009,0.07588 -0.0356,0.156194 l 2.27652,1.285564 q 0.16071,-0.169695 0.37047,-0.245541 0.20975,-0.07588 0.46858,-0.07588 0.51786,0 0.88383,0.361456 0.36617,0.361666 0.36617,0.879325 0,0.508864 -0.36617,0.875041 -0.36597,0.36595 -0.88383,0.36595 z m 0.009,-5.811811 q 0.18748,0 0.3169,-0.133909 0.12941,-0.133918 0.12941,-0.312398 0,-0.187478 -0.13391,-0.316885 -0.13392,-0.129632 -0.3124,-0.129632 -0.18748,0 -0.31689,0.129632 -0.12941,0.129407 -0.12941,0.316885 0,0.187485 0.12941,0.316892 0.12941,0.129415 0.31689,0.129415 z m -4.32099,2.508559 q 0.18748,0 0.3171,-0.129407 0.12943,-0.129414 0.12943,-0.316892 0,-0.187477 -0.13391,-0.316891 -0.13393,-0.129415 -0.31262,-0.129415 -0.18747,0 -0.31688,0.129415 -0.12943,0.129414 -0.12943,0.316891 0,0.187478 0.12943,0.316892 0.12941,0.129407 0.31688,0.129407 z m 4.32099,2.508779 q 0.18748,0 0.3169,-0.133909 0.12941,-0.133918 0.12941,-0.312608 0,-0.187478 -0.13391,-0.316893 -0.13392,-0.129414 -0.3124,-0.129414 -0.18748,0 -0.31689,0.129414 -0.12941,0.129415 -0.12941,0.316893 0,0.187476 0.12941,0.317102 0.12941,0.129415 0.31689,0.129415 z m 0,-5.463645 z m -4.32099,2.508567 z m 4.32099,2.508561 z"
       id="topappbarActionMenuItem-3-8"
       class="topappbar-actionmenuitem"
       style="stroke-width:1" />
    <path
       d="m 228.15978,56.44836 q -0.23992,0 -0.41127,-0.171354 -0.17137,-0.171367 -0.17137,-0.411264 0,-0.228398 0.17137,-0.399752 0.17135,-0.171355 0.41127,-0.171355 h 7.39124 q 0.23991,0 0.40551,0.171355 0.16561,0.171354 0.16561,0.411263 0,0.239909 -0.16561,0.405515 -0.1656,0.165592 -0.40551,0.165592 z m 0,-2.479105 q -0.23992,0 -0.41127,-0.171355 -0.17137,-0.171367 -0.17137,-0.411264 0,-0.228385 0.17137,-0.399752 0.17135,-0.171355 0.41127,-0.171355 h 7.39124 q 0.23991,0 0.40551,0.171355 0.16561,0.171367 0.16561,0.411276 0,0.239897 -0.16561,0.405502 -0.1656,0.165593 -0.40551,0.165593 z m 0,-2.467582 q -0.23992,0 -0.41127,-0.171355 -0.17137,-0.171367 -0.17137,-0.411276 0,-0.239897 0.17137,-0.411251 0.17135,-0.171367 0.41127,-0.171367 h 7.39124 q 0.23991,0 0.40551,0.177129 0.16561,0.177116 0.16561,0.405489 0,0.239909 -0.16561,0.411276 -0.1656,0.171355 -0.40551,0.171355 z"
       id="topappbarNavigationIcon-9-9"
       class="topappbar-navigationicon"
       style="stroke-width:1" />
    <path
       d="m 325.49113,98.895738 q -0.29809,0 -0.51382,-0.175463 -0.21573,-0.175463 -0.21573,-0.423657 0,-0.239772 0.2108,-0.423865 0.21055,-0.184091 0.50839,-0.184091 0.29782,0 0.50839,0.184091 0.2108,0.184093 0.2108,0.423865 0,0.248194 -0.20563,0.423657 -0.20537,0.175463 -0.5032,0.175463 z m 0,-2.525304 q -0.29809,0 -0.51382,-0.175669 -0.21573,-0.175461 -0.21573,-0.423656 0,-0.248196 0.2108,-0.423657 0.21055,-0.175669 0.50839,-0.175669 0.29782,0 0.50839,0.171353 0.2108,0.171147 0.2108,0.419343 0,0.248401 -0.20563,0.428179 -0.20537,0.179776 -0.5032,0.179776 z m 0,-2.51688 q -0.29809,0 -0.51382,-0.179777 -0.21573,-0.179776 -0.21573,-0.428177 0,-0.256824 0.2108,-0.427972 0.21055,-0.171148 0.50839,-0.171148 0.29782,0 0.50839,0.175462 0.2108,0.175463 0.2108,0.423658 0,0.248401 -0.20563,0.428177 -0.20537,0.179777 -0.5032,0.179777 z"
       id="topappbarActionMenuItem-2-4-9"
       class="button-text-labeltext"
       style="stroke-width:1" />
    <path
       d="m 325.49113,123.07043 q -0.29809,0 -0.51382,-0.17547 -0.21573,-0.17546 -0.21573,-0.42365 0,-0.23977 0.2108,-0.42387 0.21055,-0.18409 0.50839,-0.18409 0.29782,0 0.50839,0.18409 0.2108,0.1841 0.2108,0.42387 0,0.24819 -0.20563,0.42365 -0.20537,0.17547 -0.5032,0.17547 z m 0,-2.5253 q -0.29809,0 -0.51382,-0.17568 -0.21573,-0.17545 -0.21573,-0.42365 0,-0.24819 0.2108,-0.42366 0.21055,-0.17567 0.50839,-0.17567 0.29782,0 0.50839,0.17136 0.2108,0.17114 0.2108,0.41934 0,0.2484 -0.20563,0.42818 -0.20537,0.17978 -0.5032,0.17978 z m 0,-2.51688 q -0.29809,0 -0.51382,-0.17978 -0.21573,-0.17977 -0.21573,-0.42817 0,-0.25683 0.2108,-0.42798 0.21055,-0.17115 0.50839,-0.17115 0.29782,0 0.50839,0.17546 0.2108,0.17547 0.2108,0.42367 0,0.2484 -0.20563,0.42817 -0.20537,0.17978 -0.5032,0.17978 z"
       id="topappbarActionMenuItem-2-4-9-3"
       class="button-text-labeltext"
       style="stroke-width:1" />
    <path
       d="m 325.49113,147.24512 q -0.29809,0 -0.51382,-0.17546 -0.21573,-0.17547 -0.21573,-0.42367 0,-0.23977 0.2108,-0.42386 0.21055,-0.18409 0.50839,-0.18409 0.29782,0 0.50839,0.18409 0.2108,0.18409 0.2108,0.42386 0,0.2482 -0.20563,0.42367 -0.20537,0.17546 -0.5032,0.17546 z m 0,-2.52531 q -0.29809,0 -0.51382,-0.17567 -0.21573,-0.17545 -0.21573,-0.42365 0,-0.24819 0.2108,-0.42366 0.21055,-0.17566 0.50839,-0.17566 0.29782,0 0.50839,0.17135 0.2108,0.17114 0.2108,0.41934 0,0.24841 -0.20563,0.42818 -0.20537,0.17977 -0.5032,0.17977 z m 0,-2.51688 q -0.29809,0 -0.51382,-0.17977 -0.21573,-0.17978 -0.21573,-0.42818 0,-0.25682 0.2108,-0.42797 0.21055,-0.17114 0.50839,-0.17114 0.29782,0 0.50839,0.17545 0.2108,0.17547 0.2108,0.42366 0,0.2484 -0.20563,0.42818 -0.20537,0.17977 -0.5032,0.17977 z"
       id="topappbarActionMenuItem-2-4-9-9"
       class="button-text-labeltext"
       style="stroke-width:1" />
    <path
       d="m 325.49113,171.41983 q -0.29809,0 -0.51382,-0.17547 -0.21573,-0.17545 -0.21573,-0.42365 0,-0.23977 0.2108,-0.42386 0.21055,-0.18409 0.50839,-0.18409 0.29782,0 0.50839,0.18409 0.2108,0.18409 0.2108,0.42386 0,0.2482 -0.20563,0.42365 -0.20537,0.17547 -0.5032,0.17547 z m 0,-2.5253 q -0.29809,0 -0.51382,-0.17567 -0.21573,-0.17547 -0.21573,-0.42366 0,-0.2482 0.2108,-0.42365 0.21055,-0.17568 0.50839,-0.17568 0.29782,0 0.50839,0.17135 0.2108,0.17116 0.2108,0.41936 0,0.24839 -0.20563,0.42817 -0.20537,0.17978 -0.5032,0.17978 z m 0,-2.51688 q -0.29809,0 -0.51382,-0.17978 -0.21573,-0.17978 -0.21573,-0.42818 0,-0.25682 0.2108,-0.42797 0.21055,-0.17115 0.50839,-0.17115 0.29782,0 0.50839,0.17547 0.2108,0.17546 0.2108,0.42366 0,0.24839 -0.20563,0.42817 -0.20537,0.17978 -0.5032,0.17978 z"
       id="topappbarActionMenuItem-2-4-9-2"
       class="button-text-labeltext"
       style="stroke-width:1" />
    <path
       d="m 325.49113,195.59452 q -0.29809,0 -0.51382,-0.17547 -0.21573,-0.17546 -0.21573,-0.42365 0,-0.23977 0.2108,-0.42387 0.21055,-0.18409 0.50839,-0.18409 0.29782,0 0.50839,0.18409 0.2108,0.1841 0.2108,0.42387 0,0.24819 -0.20563,0.42365 -0.20537,0.17547 -0.5032,0.17547 z m 0,-2.5253 q -0.29809,0 -0.51382,-0.17568 -0.21573,-0.17545 -0.21573,-0.42365 0,-0.24819 0.2108,-0.42366 0.21055,-0.17567 0.50839,-0.17567 0.29782,0 0.50839,0.17136 0.2108,0.17114 0.2108,0.41933 0,0.24841 -0.20563,0.42819 -0.20537,0.17978 -0.5032,0.17978 z m 0,-2.51689 q -0.29809,0 -0.51382,-0.17978 -0.21573,-0.17976 -0.21573,-0.42817 0,-0.25682 0.2108,-0.42798 0.21055,-0.17114 0.50839,-0.17114 0.29782,0 0.50839,0.17546 0.2108,0.17546 0.2108,0.42366 0,0.24841 -0.20563,0.42817 -0.20537,0.17978 -0.5032,0.17978 z"
       id="topappbarActionMenuItem-2-4-9-8"
       class="button-text-labeltext"
       style="stroke-width:1" />
    <text
       xml:space="preserve"
       style="font-style:normal;font-variant:normal;font-weight:bold;font-stretch:normal;font-size:4.4092px;line-height:125%;font-family:Roboto;-inkscape-font-specification:'Roboto, Bold';font-variant-ligatures:normal;font-variant-caps:normal;font-variant-numeric:normal;font-variant-east-asian:normal;letter-spacing:0px;word-spacing:0px;stroke-width:1"
       x="268.39825"
       y="79.184784"
       id="tabInactiveLabel1-9-8"
       class="tab-inactive-textlabel"><tspan
         sodipodi:role="line"
         id="tspan9212-1-9-1-8-9-2-9-7"
         style="font-style:normal;font-variant:normal;font-weight:bold;font-stretch:normal;font-size:4.4092px;font-family:Roboto;-inkscape-font-specification:'Roboto, Bold';font-variant-ligatures:normal;font-variant-caps:normal;font-variant-numeric:normal;font-variant-east-asian:normal;stroke-width:1"
         x="268.39825"
         y="79.184784">PLAYLIST</tspan></text>
    <path
       d="m 240.18838,71.777653 h 1.09725 V 69.21087 h 2.65737 v 2.566783 h 1.09724 V 68.13391 l -2.42592,-1.821983 -2.42594,1.821983 z m 0,1.016804 q -0.42276,0 -0.71966,-0.296902 -0.29691,-0.29714 -0.29691,-0.719902 V 68.13391 q 0,-0.25172 0.10587,-0.463107 0.10561,-0.211375 0.3068,-0.352221 l 2.41579,-1.811847 q 0.14108,-0.100738 0.29714,-0.156057 0.15581,-0.05537 0.31696,-0.05537 0.16112,0 0.31695,0.05537 0.15605,0.05537 0.29714,0.156057 l 2.41579,1.811847 q 0.20123,0.140846 0.31187,0.357295 0.11086,0.21645 0.11086,0.458033 v 3.643743 q 0,0.422762 -0.30196,0.719902 -0.30198,0.296902 -0.72474,0.296902 h -1.99303 v -2.687568 h -0.86582 v 2.687568 z m 2.42594,-3.754617 z"
       id="tabActiveIcon-3"
       class="tab-active-icon"
       style="stroke-width:1" />
    <path
       d="m 309.75827,72.006176 q -0.18731,0 -0.3103,-0.132922 -0.12324,-0.133147 -0.12324,-0.310526 0,-0.177379 0.12324,-0.305563 0.12299,-0.12796 0.3103,-0.12796 h 1.76384 q 0.17738,0 0.31054,0.12796 0.13291,0.128184 0.13291,0.305563 0,0.177379 -0.13291,0.310526 -0.13316,0.132922 -0.31054,0.132922 z m 0,-5.045376 q -0.18731,0 -0.3103,-0.123236 -0.12324,-0.123235 -0.12324,-0.310525 0,-0.187078 0.12324,-0.315263 0.12299,-0.128185 0.3103,-0.128185 h 3.36025 q 0.17738,0 0.31053,0.133147 0.13292,0.132922 0.13292,0.310301 0,0.187315 -0.13292,0.310525 -0.13315,0.123236 -0.31053,0.123236 z m 3.14362,5.833645 q -0.18732,0 -0.3155,-0.127948 -0.12795,-0.128185 -0.12795,-0.3155 v -1.586474 q 0,-0.187315 0.12795,-0.310301 0.12818,-0.123235 0.3155,-0.123235 0.17737,0 0.30532,0.123235 0.12819,0.122986 0.12819,0.310301 v 0.364682 h 2.92675 q 0.1873,0 0.31029,0.12796 0.12323,0.128184 0.12323,0.305563 0,0.177379 -0.12323,0.310526 -0.12299,0.132922 -0.31029,0.132922 h -2.92675 v 0.344821 q 0,0.187315 -0.12819,0.3155 -0.12795,0.127948 -0.30532,0.127948 z m -1.37978,-2.522563 q -0.17738,0 -0.30532,-0.123236 -0.12819,-0.123235 -0.12819,-0.310525 v -0.354758 h -1.33033 q -0.18731,0 -0.3103,-0.127948 -0.12324,-0.128197 -0.12324,-0.305563 0,-0.187316 0.12324,-0.310301 0.12299,-0.123235 0.3103,-0.123235 h 1.33033 v -0.384317 q 0,-0.177379 0.12324,-0.300602 0.12323,-0.123235 0.3103,-0.123235 0.17738,0 0.31053,0.123235 0.13291,0.123235 0.13291,0.300602 v 1.606109 q 0,0.187303 -0.13291,0.310526 -0.13315,0.123235 -0.31053,0.123235 z m 1.37978,-0.788507 q -0.18732,0 -0.3155,-0.127947 -0.12795,-0.128197 -0.12795,-0.305564 0,-0.187315 0.12795,-0.310301 0.12818,-0.123235 0.3155,-0.123235 h 3.36026 q 0.1873,0 0.31029,0.123235 0.12323,0.122986 0.12323,0.300352 0,0.187316 -0.12323,0.315513 -0.12299,0.127947 -0.31029,0.127947 z m 1.59639,-1.72437 q -0.17738,0 -0.31052,-0.123235 -0.13292,-0.123236 -0.13292,-0.310526 V 65.73877 q 0,-0.187315 0.13292,-0.315263 0.13314,-0.128185 0.31052,-0.128185 0.17738,0 0.30533,0.128185 0.1282,0.127948 0.1282,0.315263 v 0.344821 h 1.33034 q 0.1873,0 0.31029,0.133147 0.12323,0.132922 0.12323,0.310301 0,0.187315 -0.12323,0.310525 -0.12299,0.123236 -0.31029,0.123236 h -1.33034 v 0.364456 q 0,0.187316 -0.1282,0.310526 -0.12795,0.123235 -0.30533,0.123235 z"
       id="tabInactiveIcon1-2"
       class="tab-inactive-icon"
       style="stroke-width:1" />
    <path
       d="m 279.85482,72.794438 q -0.66514,0 -1.14672,-0.475806 -0.48159,-0.475793 -0.48159,-1.129366 0,-0.676432 0.4703,-1.13519 0.47004,-0.458745 1.13518,-0.458745 0.11448,0 0.24079,0.02312 0.12598,0.02275 0.24079,0.05712 V 65.78847 q 0,-0.206388 0.14893,-0.349758 0.14923,-0.143383 0.35554,-0.143383 h 1.57081 q 0.26391,0 0.44719,0.183565 0.18357,0.183541 0.18357,0.44716 0,0.263643 -0.18357,0.447197 -0.18328,0.183565 -0.44719,0.183565 h -0.90565 v 4.643862 q 0,0.653584 -0.47032,1.123616 -0.47002,0.470019 -1.158,0.470019 z m -5.59548,-6.340697 q -0.2408,0 -0.41279,-0.172004 -0.17201,-0.171993 -0.17201,-0.401503 0,-0.240771 0.17201,-0.412788 0.17199,-0.171992 0.41279,-0.171992 h 4.41436 q 0.22951,0 0.40149,0.171992 0.172,0.172004 0.172,0.412788 0,0.240797 -0.172,0.407277 -0.17198,0.166243 -0.40149,0.166243 z m 0,2.144021 q -0.2408,0 -0.41279,-0.172005 -0.17201,-0.171992 -0.17201,-0.401227 0,-0.240797 0.17201,-0.412776 0.17199,-0.172017 0.41279,-0.172017 h 4.41436 q 0.22951,0 0.40149,0.172017 0.172,0.171979 0.172,0.412776 0,0.240796 -0.172,0.407001 -0.17198,0.166231 -0.40149,0.166231 z m 0,2.16713 q -0.2408,0 -0.41279,-0.17198 -0.17201,-0.172017 -0.17201,-0.424087 0,-0.240796 0.17201,-0.407002 0.17199,-0.166492 0.41279,-0.166492 h 2.61432 q 0.22924,0 0.40124,0.171992 0.17198,0.172004 0.17198,0.401502 0,0.25207 -0.17198,0.424087 -0.172,0.17198 -0.40124,0.17198 z"
       id="tabInactiveIcon1-9"
       class="tab-inactive-icon"
       style="stroke-width:1" />
    <rect
       id="divider"
       class="divider-container"
       width="108.73711"
       height="0.62492579"
       x="223.97913"
       y="107.57662"
       style="stroke-width:1" />
    <rect
       id="divider2"
       class="divider-container"
       width="108.73711"
       height="0.62492579"
       x="223.97913"
       y="131.81259"
       style="stroke-width:1" />
    <rect
       id="divider3"
       class="divider-container"
       width="108.73711"
       height="0.62492579"
       x="223.97913"
       y="156.04848"
       style="stroke-width:1" />
    <rect
       id="divider4"
       class="divider-container"
       width="108.73711"
       height="0.62492579"
       x="223.97913"
       y="180.28441"
       style="stroke-width:1" />
    <rect
       id="bottomsheetContainer-8"
       class="bottomsheet-container"
       width="107.76381"
       height="15.719384"
       x="224.38388"
       y="196.244"
       style="stroke-width:1" />
    <text
       xml:space="preserve"
       style="font-style:normal;font-variant:normal;font-weight:bold;font-stretch:normal;font-size:5.29103px;line-height:125%;font-family:Roboto-serif;-inkscape-font-specification:'sans-serif, Bold';font-variant-ligatures:normal;font-variant-caps:normal;font-variant-numeric:normal;font-variant-east-asian:normal;letter-spacing:0px;word-spacing:0px;stroke-width:1"
       x="244.38927"
       y="209.22182"
       id="backdropText-4-3-97"
       class="label-onsurface"><tspan
         sodipodi:role="line"
         id="tspan9212-1-9-1-56-0-0-8"
         style="font-style:normal;font-variant:normal;font-weight:normal;font-stretch:normal;font-size:5.29103px;font-family:Roboto;-inkscape-font-specification:Roboto;font-variant-ligatures:normal;font-variant-caps:normal;font-variant-numeric:normal;font-variant-east-asian:normal;stroke-width:1"
         x="244.38927"
         y="209.22182">Jailhouse Rock</tspan></text>
    <text
       xml:space="preserve"
       style="font-style:normal;font-variant:normal;font-weight:bold;font-stretch:normal;font-size:5.29103px;line-height:125%;font-family:Roboto;-inkscape-font-specification:'Roboto Bold';font-variant-ligatures:normal;font-variant-caps:normal;font-variant-numeric:normal;font-variant-east-asian:normal;letter-spacing:0px;word-spacing:0px;stroke-width:1"
       x="244.19034"
       y="202.65993"
       id="backdropText-4-3-97-8"
       class="label-onsurface"><tspan
         sodipodi:role="line"
         id="tspan9212-1-9-1-56-0-0-8-7"
         style="font-style:normal;font-variant:normal;font-weight:bold;font-stretch:normal;font-size:5.29103px;font-family:Roboto;-inkscape-font-specification:'Roboto Bold';font-variant-ligatures:normal;font-variant-caps:normal;font-variant-numeric:normal;font-variant-east-asian:normal;stroke-width:1"
         x="244.19034"
         y="202.65993">Elivs Presley</tspan></text>
    <path
       d="m 229.75607,202.02554 q -0.19163,-0.19161 -0.19776,-0.45345 -0.007,-0.26184 0.18519,-0.46634 l 2.45274,-2.43986 q 0.0892,-0.0896 0.2042,-0.14042 0.11499,-0.0512 0.24282,-0.0512 0.12785,0 0.24283,0.0512 0.11498,0.0509 0.20418,0.14042 l 2.46562,2.43986 q 0.17875,0.19163 0.17875,0.4599 0,0.26828 -0.19162,0.44733 -0.19163,0.19162 -0.4599,0.19162 -0.26826,0 -0.45988,-0.19162 l -1.97998,-1.96743 -1.97999,1.99288 q -0.17905,0.19161 -0.44732,0.18517 -0.26827,-0.007 -0.45988,-0.19806 z"
       id="bottomappbarNavigationIcon-2"
       class="bottomsheet-content"
       style="stroke-width:1" />
    <path
       d="m 312.07875,208.6927 q -0.21948,0.14632 -0.44626,0.0146 -0.2268,-0.13169 -0.2268,-0.39506 v -6.58422 q 0,-0.26336 0.2268,-0.39505 0.22678,-0.13168 0.44626,0.0146 l 5.17958,3.30675 q 0.20485,0.13168 0.20485,0.36578 0,0.23411 -0.20485,0.3658 z"
       id="bottomappbarNavigationIcon-5"
       class="iconbutton-tonal-icon"
       style="stroke-width:1" />
    <path
       d="m 322.14095,208.15907 q -0.17953,0.13167 -0.37102,0.0299 -0.19149,-0.10174 -0.19149,-0.31718 v -4.38045 q 0,-0.21543 0.19149,-0.31716 0.19149,-0.10174 0.37102,0.0299 l 3.14771,2.17826 q 0.16757,0.10774 0.16757,0.29922 0,0.1915 -0.16757,0.29921 z m 4.87118,0 q -0.17952,0.13167 -0.37103,0.0299 -0.1915,-0.10174 -0.1915,-0.31718 v -4.38045 q 0,-0.21543 0.1915,-0.31716 0.19151,-0.10174 0.37103,0.0299 l 3.14772,2.17826 q 0.16755,0.10774 0.16755,0.29922 0,0.1915 -0.16755,0.29921 z"
       id="bottomappbarNavigationIcon-3"
       class="iconbutton-tonal-icon"
       style="stroke-width:1" />
    <path
       d="m 305.7039,207.51469 -3.16938,-2.19327 q -0.16871,-0.10849 -0.16871,-0.30127 0,-0.19281 0.16871,-0.30128 l 3.16938,-2.19326 q 0.18077,-0.13256 0.37358,-0.0301 0.19282,0.10249 0.19282,0.31935 v 4.41064 q 0,0.21691 -0.19282,0.31935 -0.19281,0.10248 -0.37358,-0.0301 z m -4.84446,0 -3.16939,-2.19327 q -0.16871,-0.10849 -0.16871,-0.30127 0,-0.19281 0.16871,-0.30128 l 3.16939,-2.19326 q 0.18077,-0.13256 0.37358,-0.0301 0.19282,0.10249 0.19282,0.31935 v 4.41064 q 0,0.21691 -0.19282,0.31935 -0.19281,0.10248 -0.37358,-0.0301 z"
       id="bottomappbarNavigationIcon-4"
       class="iconbutton-tonal-icon"
       style="stroke-width:1" />
    <text
       xml:space="preserve"
       style="font-style:normal;font-variant:normal;font-weight:normal;font-stretch:normal;font-size:6.17288px;line-height:125%;font-family:Roboto;-inkscape-font-specification:'Roboto, Normal';font-variant-ligatures:normal;font-variant-caps:normal;font-variant-numeric:normal;font-variant-east-asian:normal;letter-spacing:0px;word-spacing:0px;stroke-width:1"
       x="241.43048"
       y="55.07782"
       id="topappbarTitle-6-6"
       class="topappbar-title"><tspan
         sodipodi:role="line"
         id="tspan9212-1-9-1-7-7-0-0-0"
         style="font-style:normal;font-variant:normal;font-weight:normal;font-stretch:normal;font-size:6.17288px;font-family:Roboto;-inkscape-font-specification:'Roboto, Normal';font-variant-ligatures:normal;font-variant-caps:normal;font-variant-numeric:normal;font-variant-east-asian:normal;stroke-width:1"
         x="241.43048"
         y="55.07782">Music Player</tspan></text>
    <circle
       cx="236.45889"
       cy="144.39282"
       id="iconButtonContainer-1"
       class="iconbutton-tonal-container"
       r="7.3733954"
       style="stroke-width:1" />
    <path
       d="m 235.55276,148.14234 q -0.65618,0 -1.10925,-0.45307 -0.45307,-0.45307 -0.45307,-1.10924 0,-0.65617 0.45307,-1.10925 0.45307,-0.45307 1.10925,-0.45307 0.29162,0 0.52597,0.0834 0.23435,0.0834 0.41142,0.22915 v -4.06202 q 0,-0.26038 0.18226,-0.44266 0.18228,-0.18227 0.44266,-0.18227 h 1.11446 q 0.29162,0 0.49473,0.2031 0.2031,0.2031 0.2031,0.49473 0,0.29164 -0.2031,0.49994 -0.20311,0.20832 -0.49473,0.20832 h -1.11446 v 4.53071 q 0,0.65617 -0.45307,1.10924 -0.45307,0.45307 -1.10924,0.45307 z"
       id="iconButtonIcon-1"
       class="iconbutton-tonal-icon"
       style="stroke-width:1" />
    <circle
       cx="236.45889"
       cy="168.90511"
       id="iconButtonContainer-1-6"
       class="iconbutton-tonal-container"
       r="7.3733954"
       style="stroke-width:1" />
    <path
       d="m 235.55276,172.65462 q -0.65618,0 -1.10925,-0.45308 -0.45307,-0.45306 -0.45307,-1.10924 0,-0.65618 0.45307,-1.10925 0.45307,-0.45306 1.10925,-0.45306 0.29162,0 0.52597,0.0834 0.23435,0.0834 0.41142,0.22913 v -4.06202 q 0,-0.26038 0.18226,-0.44264 0.18228,-0.18228 0.44266,-0.18228 h 1.11446 q 0.29162,0 0.49473,0.2031 0.2031,0.2031 0.2031,0.49474 0,0.29163 -0.2031,0.49994 -0.20311,0.2083 -0.49473,0.2083 h -1.11446 v 4.53071 q 0,0.65617 -0.45307,1.10926 -0.45307,0.45306 -1.10924,0.45306 z"
       id="iconButtonIcon-1-7"
       class="iconbutton-tonal-icon"
       style="stroke-width:1" />
    <circle
       cx="236.45889"
       cy="119.88056"
       id="iconButtonContainer-1-3"
       class="iconbutton-tonal-container"
       r="7.3733954"
       style="stroke-width:1" />
    <path
       d="m 235.55276,123.63006 q -0.65618,0 -1.10925,-0.45307 -0.45307,-0.45307 -0.45307,-1.10924 0,-0.65617 0.45307,-1.10924 0.45307,-0.45307 1.10925,-0.45307 0.29162,0 0.52597,0.0834 0.23435,0.0834 0.41142,0.22915 v -4.06202 q 0,-0.26038 0.18226,-0.44266 0.18228,-0.18226 0.44266,-0.18226 h 1.11446 q 0.29162,0 0.49473,0.2031 0.2031,0.2031 0.2031,0.49472 0,0.29165 -0.2031,0.49995 -0.20311,0.20831 -0.49473,0.20831 h -1.11446 v 4.53071 q 0,0.65617 -0.45307,1.10924 -0.45307,0.45307 -1.10924,0.45307 z"
       id="iconButtonIcon-1-5"
       class="iconbutton-tonal-icon"
       style="stroke-width:1" />
    <circle
       cx="236.45889"
       cy="95.368279"
       id="iconButtonContainer-1-2"
       class="iconbutton-tonal-container"
       r="7.3733954"
       style="stroke-width:1" />
    <path
       d="m 235.55276,99.11779 q -0.65618,0 -1.10925,-0.453071 -0.45307,-0.453071 -0.45307,-1.109243 0,-0.656172 0.45307,-1.109243 0.45307,-0.453072 1.10925,-0.453072 0.29162,0 0.52597,0.08337 0.23435,0.08337 0.41142,0.229148 v -4.062017 q 0,-0.260382 0.18226,-0.44266 0.18228,-0.182266 0.44266,-0.182266 h 1.11446 q 0.29162,0 0.49473,0.203101 0.2031,0.2031 0.2031,0.494728 0,0.291641 -0.2031,0.499941 -0.20311,0.208313 -0.49473,0.208313 h -1.11446 v 4.530712 q 0,0.656172 -0.45307,1.109243 -0.45307,0.453071 -1.10924,0.453071 z"
       id="iconButtonIcon-1-9"
       class="iconbutton-tonal-icon"
       style="stroke-width:1" />
    <g
       id="g382"
       transform="matrix(1.2498516,0,0,1.2498516,-54.994058,-6.7531542)"
       style="stroke-width:0.800095">
      <rect
         id="rect87126-7-4-9-2"
         width="86.573845"
         height="12.516596"
         x="223.20502"
         y="174.99402"
         ry="0"
         class="device-frame"
         style="stroke-width:0.800095" />
      <path
         d="m 286.75281,185.93375 v -6.33299 h 6.33299 v 6.33299 z m 0.75528,-0.75531 h 4.81407 v -4.81409 h -4.81407 z m 0,0 v -4.81409 z"
         id="path13463"
         class="device-button"
         style="stroke-width:0.800095" />
      <path
         d="m 266.31369,186.26575 q -0.72212,0 -1.3612,-0.26974 -0.63912,-0.26978 -1.11638,-0.74703 -0.47726,-0.47728 -0.74699,-1.11634 -0.26979,-0.63913 -0.26979,-1.36124 0,-0.72212 0.26979,-1.36121 0.26973,-0.63911 0.74699,-1.11638 0.47726,-0.47725 1.11638,-0.75114 0.63908,-0.27392 1.35291,-0.27392 0.7304,0 1.37369,0.27392 0.64323,0.27389 1.11632,0.75114 0.47312,0.47727 0.74705,1.11638 0.27387,0.63909 0.27387,1.3695 0,0.71382 -0.27387,1.35295 -0.27393,0.63906 -0.75119,1.11634 -0.47726,0.47725 -1.11634,0.74703 -0.63913,0.26974 -1.36124,0.26974 z m 0,-0.75532 q 1.13713,0 1.93807,-0.80097 0.80097,-0.80093 0.80097,-1.93806 0,-1.13714 -0.80097,-1.93807 -0.80094,-0.80094 -1.93807,-0.80094 -1.13713,0 -1.93807,0.80094 -0.80095,0.80093 -0.80095,1.93807 0,1.13713 0.80095,1.93806 0.80094,0.80097 1.93807,0.80097 z m 0,-2.73903 z"
         id="path13465"
         class="device-button"
         style="stroke-width:0.800095" />
      <path
         d="m 243.81765,186.2616 -3.49435,-3.49436 3.49435,-3.49434 0.64743,0.65571 -2.83864,2.83863 2.83864,2.83864 z"
         id="path13474"
         class="device-button"
         style="stroke-width:0.800095" />
      <path
         style="color:#000000;fill:#000000;stroke-width:0.800095;stroke-linecap:square;-inkscape-stroke:none"
         d="m 225.33149,27.02866 c -2.84285,0 -5.22461,2.381761 -5.22461,5.224609 V 184.80208 c 0,2.84285 2.38176,5.22657 5.22461,5.22657 h 82.55078 c 2.84285,0 5.22461,-2.38372 5.22461,-5.22657 V 32.253269 c 0,-2.842848 -2.38176,-5.224609 -5.22461,-5.224609 z m 0.66081,3.354166 c 0,0 79.63141,0.01523 81.22916,0 1.59775,-0.01523 2.53125,1.059019 2.53125,2.602083 0,0 -0.007,149.479701 0,151.087491 0.007,1.60779 -0.98468,2.60208 -2.53125,2.60208 -1.54657,0 -79.63141,-0.0153 -81.22916,0 -1.59775,0.0152 -2.53125,-1.05901 -2.53125,-2.60208 V 32.984909 c 0,-1.754401 0.78627,-2.602083 2.53125,-2.602083 z"
         id="path3123"
         sodipodi:nodetypes="sssssssssszzzzzzss"
         class="device-frame" />
      <g
         id="g3827"
         transform="translate(-23.123362)"
         style="stroke-width:0.800095">
        <path
           d="m 304.97658,35.44219 q 0.35444,-0.270278 0.75977,-0.42047 0.40549,-0.150199 0.8679,-0.150199 0.46241,0 0.87091,0.150199 0.40836,0.150192 0.76266,0.42047 l 0.66667,-0.660757 q -0.50449,-0.390342 -1.08106,-0.609589 -0.57658,-0.219239 -1.21918,-0.219239 -0.6426,0 -1.21917,0.219239 -0.57657,0.219247 -1.08107,0.609589 z m 1.62767,2.108094 q -0.0422,0 -0.0751,-0.01208 -0.033,-0.012 -0.063,-0.04192 l -2.60675,-2.606699 q -0.0599,-0.05992 -0.057,-0.141119 0.003,-0.081 0.0632,-0.135056 0.57052,-0.504509 1.26731,-0.78386 0.69665,-0.279199 1.47142,-0.279199 0.77478,0 1.47142,0.279199 0.6968,0.279351 1.26732,0.78386 0.0602,0.05408 0.063,0.135056 0.003,0.08116 -0.057,0.141119 l -2.60668,2.606699 q -0.0299,0.02992 -0.063,0.04192 -0.033,0.01208 -0.0751,0.01208 z"
           id="path91309-4-5-4-8"
           class="device-statusbar-labeltext"
           style="stroke-width:0.800095" />
        <path
           d="m 313.72916,37.194574 h 1.11485 v -3.041961 l -1.11485,1.114858 z m -2.35191,0.355742 q -0.11671,0 -0.16181,-0.108943 -0.0452,-0.108808 0.0344,-0.193663 l 3.64717,-3.641951 q 0.085,-0.08486 0.19379,-0.03984 0.10882,0.04504 0.10882,0.161944 v 3.647174 q 0,0.07424 -0.0505,0.124743 -0.0503,0.05048 -0.12996,0.05048 z"
           id="path91986-8-5-9-3"
           class="device-statusbar-labeltext"
           style="stroke-width:0.800095" />
        <path
           d="m 328.79464,37.550308 q -0.0701,0 -0.11761,-0.04752 -0.0474,-0.04752 -0.0474,-0.117479 v -3.319952 q 0,-0.07496 0.0474,-0.122519 0.0475,-0.04752 0.11761,-0.04752 h 0.43498 v -0.179991 q 0,-0.07 0.0474,-0.11748 0.0475,-0.04752 0.1176,-0.04752 h 0.46991 q 0.0701,0 0.11759,0.04752 0.0474,0.04752 0.0474,0.11748 v 0.179991 h 0.43499 q 0.0701,0 0.1176,0.04752 0.0474,0.04752 0.0474,0.122519 v 3.319952 q 0,0.07 -0.0474,0.117479 -0.0475,0.04752 -0.1176,0.04752 z m 0.16991,-1.61504 h 1.33005 v -1.704912 h -1.33005 z"
           id="path92143-0-2-9-8"
           class="device-statusbar-labeltext"
           style="stroke-width:0.800095" />
        <text
           xml:space="preserve"
           style="font-style:normal;font-variant:normal;font-weight:bold;font-stretch:normal;font-size:4.93889px;line-height:125%;font-family:Roboto;-inkscape-font-specification:'Sans, Bold';font-variant-ligatures:normal;font-variant-caps:normal;font-variant-numeric:normal;font-variant-east-asian:normal;letter-spacing:0px;word-spacing:0px;stroke-width:0.800095"
           x="318.27667"
           y="37.471352"
           id="text92824-4-9-3-3"
           class="device-statusbar-labeltext"><tspan
             sodipodi:role="line"
             id="tspan92822-29-0-6-33"
             style="font-style:normal;font-variant:normal;font-weight:500;font-stretch:normal;font-size:4.93889px;font-family:Roboto;-inkscape-font-specification:'Roboto Medium';font-variant-ligatures:normal;font-variant-caps:normal;font-variant-numeric:normal;font-variant-east-asian:normal;fill:#ffffff;stroke-width:0.800095"
             x="318.27667"
             y="37.471352">72%</tspan></text>
        <text
           xml:space="preserve"
           style="font-style:normal;font-variant:normal;font-weight:bold;font-stretch:normal;font-size:4.93889px;line-height:125%;font-family:Roboto;-inkscape-font-specification:'Sans, Bold';font-variant-ligatures:normal;font-variant-caps:normal;font-variant-numeric:normal;font-variant-east-asian:normal;letter-spacing:0px;word-spacing:0px;stroke-width:0.800095"
           x="248.42583"
           y="37.471352"
           id="text3716"
           class="device-statusbar-labeltext"><tspan
             sodipodi:role="line"
             id="tspan3714"
             style="font-style:normal;font-variant:normal;font-weight:500;font-stretch:normal;font-size:4.93889px;font-family:Roboto;-inkscape-font-specification:'Roboto Medium';font-variant-ligatures:normal;font-variant-caps:normal;font-variant-numeric:normal;font-variant-east-asian:normal;fill:#ffffff;stroke-width:0.800095"
             x="248.42583"
             y="37.471352">12:30</tspan></text>
      </g>
    </g>
  </g>
</svg>
